<?xml version="1.0" encoding="UTF-8" standalone="no"?>
<!-- Created with Inkscape (http://www.inkscape.org/) -->

<svg
   xmlns:dc="http://purl.org/dc/elements/1.1/"
   xmlns:cc="http://creativecommons.org/ns#"
   xmlns:rdf="http://www.w3.org/1999/02/22-rdf-syntax-ns#"
   xmlns:svg="http://www.w3.org/2000/svg"
   xmlns="http://www.w3.org/2000/svg"
   xmlns:sodipodi="http://sodipodi.sourceforge.net/DTD/sodipodi-0.dtd"
   xmlns:inkscape="http://www.inkscape.org/namespaces/inkscape"
   width="48"
   version="1.1"
   height="48"
   id="svg2"
   inkscape:version="0.92.2 (unknown)"
   sodipodi:docname="ark.svg">
  <sodipodi:namedview
     pagecolor="#ffffff"
     bordercolor="#666666"
     borderopacity="1"
     objecttolerance="10"
     gridtolerance="10"
     guidetolerance="10"
     inkscape:pageopacity="0"
     inkscape:pageshadow="2"
     inkscape:window-width="1280"
     inkscape:window-height="994"
     id="namedview43"
     showgrid="false"
     inkscape:zoom="2.4583333"
     inkscape:cx="-22.849276"
     inkscape:cy="-35.788246"
     inkscape:window-x="1920"
     inkscape:window-y="0"
     inkscape:window-maximized="1"
     inkscape:current-layer="layer1" />
  <defs
     id="defs5455" />
  <metadata
     id="metadata5458">
    <rdf:RDF>
      <cc:Work
         rdf:about="">
        <dc:format>image/svg+xml</dc:format>
        <dc:type
           rdf:resource="http://purl.org/dc/dcmitype/StillImage" />
      </cc:Work>
    </rdf:RDF>
  </metadata>
  <g
     inkscape:label="Capa 1"
     inkscape:groupmode="layer"
     id="layer1"
     transform="matrix(1 0 0 1 -384.57143 -499.798)">
    <g
       id="g8931"
       transform="matrix(0.9794807,0,0,0.9794807,850.11882,246.48288)">
      <path
         inkscape:transform-center-y="6.0573562e-06"
         transform="matrix(0,1.4766604,-1.4766604,0,-319.76555,519.2189)"
         d="m -151.59588,103.09044 c -0.71776,0.41441 -15.85833,0.41441 -16.5761,0 -0.71776,-0.4144 -8.28804,-13.526513 -8.28804,-14.355318 0,-0.828805 7.57028,-13.940919 8.28805,-14.355321 0.71776,-0.414403 15.85833,-0.414402 16.57609,10e-7 0.71777,0.414402 8.28805,13.526517 8.28805,14.355321 0,0.828805 -7.57028,13.940917 -8.28805,14.355317 z"
         inkscape:randomized="0"
         inkscape:rounded="0.05"
         inkscape:flatsided="true"
         sodipodi:arg2="1.5707963"
         sodipodi:arg1="1.0471976"
         sodipodi:r2="14.355322"
         sodipodi:r1="16.576097"
         sodipodi:cy="88.735123"
         sodipodi:cx="-159.88393"
         sodipodi:sides="6"
         id="path7988"
         style="opacity:1;fill:#423835;fill-opacity:1;stroke:none;stroke-width:0.70799464;stroke-linecap:round;stroke-linejoin:bevel;stroke-miterlimit:4;stroke-dasharray:none;stroke-dashoffset:0;stroke-opacity:1;paint-order:stroke markers fill"
         sodipodi:type="star" />
      <path
         inkscape:connector-curvature="0"
         style="opacity:1;fill:#ddccc4;fill-opacity:1;stroke:none;stroke-width:1.05833328;stroke-linecap:round;stroke-linejoin:bevel;stroke-miterlimit:4;stroke-dasharray:none;stroke-dashoffset:0;stroke-opacity:1;paint-order:stroke markers fill"
         d="m -450.79704,258.64733 c -1.22388,-2e-5 -20.58627,11.17862 -21.1982,12.23852 -0.044,0.0762 -0.0843,0.27392 -0.12195,0.55448 h 42.63977 c -0.0377,-0.28056 -0.0779,-0.47828 -0.12195,-0.55448 -0.61193,-1.0599 -19.97381,-12.23852 -21.19767,-12.23852 z"
         id="rect7992" />
      <path
         inkscape:connector-curvature="0"
         style="opacity:1;fill:#80585b;fill-opacity:1;stroke:none;stroke-width:1.05833328;stroke-linecap:round;stroke-linejoin:bevel;stroke-miterlimit:4;stroke-dasharray:none;stroke-dashoffset:0;stroke-opacity:1;paint-order:stroke markers fill"
         d="m -429.16787,278.90706 -43.27179,7.12774 c 0.0427,4.74793 0.18978,8.88754 0.44442,9.32863 0.61193,1.05989 19.97432,12.23851 21.1982,12.23851 1.22386,0 20.58574,-11.17862 21.19767,-12.23851 0.38083,-0.65963 0.52469,-9.56627 0.4315,-16.45637 z"
         id="rect7994" />
      <g
         id="g12649"
         transform="matrix(1.1058525,0,0,1.1058525,47.785798,-29.901695)">
        <path
           style="opacity:0.5;fill:#1a1a1a;fill-opacity:1;stroke:none;stroke-width:3.25215864;stroke-linecap:round;stroke-linejoin:bevel;stroke-miterlimit:4;stroke-dasharray:none;stroke-dashoffset:0;stroke-opacity:1;paint-order:stroke markers fill"
           d="m -369.2793,-462.08789 c -5.49991,0 -92.51171,50.23691 -95.26172,55 -2.74995,4.76309 -2.74995,105.23691 0,110 2.75001,4.76309 89.76181,55 95.26172,55 5.49996,0 92.50981,-50.23691 95.25977,-55 2.75,-4.76309 2.75,-105.23691 0,-110 -2.74996,-4.76309 -89.75981,-55 -95.25977,-55 z m 0,3.41406 c 5.32928,0 89.64198,48.67567 92.30664,53.29102 2.66457,4.61534 2.66457,101.9745 0,106.58984 -1.07379,1.85988 -15.45336,10.89258 -32.5332,20.99414 0.004,-0.17401 0.0137,-0.3464 0.0137,-0.52148 v -93.51172 c 0,-11.48234 -9.24422,-20.72656 -20.72656,-20.72656 h -93.51172 c -11.48234,0 -20.72656,9.24422 -20.72656,20.72656 v 84.74414 c -9.55522,-5.89839 -16.405,-10.45122 -17.12891,-11.70508 -2.6647,-4.61534 -2.6647,-101.9745 0,-106.58984 2.66466,-4.61535 86.97728,-53.29102 92.30664,-53.29102 z m -24.42773,201.08008 h 48.85742 c -12.74982,7.00862 -22.71198,12.0918 -24.42969,12.0918 -1.71773,0 -11.67803,-5.08325 -24.42773,-12.0918 z"
           transform="matrix(0.20143061,0,0,0.20143061,-376.47437,353.98465)"
           id="rect12651"
           inkscape:connector-curvature="0" />
        <rect
           style="opacity:1;fill:#87b9cb;fill-opacity:1;stroke:none;stroke-width:0.65508431;stroke-linecap:round;stroke-linejoin:bevel;stroke-miterlimit:4;stroke-dasharray:none;stroke-dashoffset:0;stroke-opacity:1;paint-order:stroke markers fill"
           id="rect8002"
           width="27.186001"
           height="27.186001"
           x="-464.3902"
           y="269.53162"
           ry="4.1749015" />
        <rect
           style="fill:#4a4c50;fill-opacity:1;stroke-width:1.44287479;stroke-opacity:0.55"
           id="rect7676"
           height="15.628391"
           y="270.88779"
           x="-453.51581"
           width="5.4372206" />
        <path
           style="fill:#eae7df;fill-opacity:1;stroke-width:1.90302718;stroke-opacity:0.55"
           id="path7682"
           d="m -453.51582,270.21125 v 2.03896 h 2.03896 v -0.67965 h 0.67965 v -0.67966 h -0.67965 v -0.67965 z"
           inkscape:connector-curvature="0" />
        <path
           id="path7700"
           d="m -452.15652,283.8043 v 2.71861 h 0.67966 v 2.71861 h 1.3593 v -2.71861 h 0.67965 v -2.71861 z m 0.67966,0.67966 h 1.3593 v 1.3593 h -1.3593 z"
           inkscape:connector-curvature="0"
           style="fill:#eae7df;fill-opacity:1;stroke-width:1.90302718;stroke-opacity:0.55" />
        <rect
           style="fill:#4a4c50;fill-opacity:1;stroke-width:1.15440786;stroke-opacity:0.55"
           id="rect8057"
           height="25.538029"
           y="271.1796"
           x="-451.86218"
           width="2.1299291" />
        <path
           inkscape:connector-curvature="0"
           d="m -453.51582,270.29238 v 2.03896 h 2.03896 v -0.67965 h 0.67965 v -0.67966 h -0.67965 v -0.67965 z"
           id="path8035"
           style="fill:#eae7df;fill-opacity:1;stroke-width:1.90302718;stroke-opacity:0.55" />
        <path
           inkscape:connector-curvature="0"
           d="m -448.0786,271.65169 v 2.03896 h -2.03896 v -0.67966 h -0.67965 v -0.67965 h 0.67965 v -0.67965 z"
           id="path8037"
           style="fill:#eae7df;fill-opacity:1;stroke-width:1.90302718;stroke-opacity:0.55" />
        <path
           inkscape:connector-curvature="0"
           d="m -453.51582,273.01099 v 2.03896 h 2.03896 v -0.67965 h 0.67965 v -0.67965 h -0.67965 v -0.67966 z"
           id="path8039"
           style="fill:#eae7df;fill-opacity:1;stroke-width:1.90302718;stroke-opacity:0.55" />
        <path
           style="fill:#eae7df;fill-opacity:1;stroke-width:1.90302718;stroke-opacity:0.55"
           inkscape:connector-curvature="0"
           d="m -448.0786,274.3703 v 2.03896 h -2.03896 v -0.67966 h -0.67965 v -0.67965 h 0.67965 v -0.67965 z"
           id="path8041" />
        <path
           style="fill:#eae7df;fill-opacity:1;stroke-width:1.90302718;stroke-opacity:0.55"
           inkscape:connector-curvature="0"
           d="m -453.51582,275.7296 v 2.03896 h 2.03896 v -0.67965 h 0.67965 v -0.67965 h -0.67965 v -0.67966 z"
           id="path8043" />
        <path
           style="fill:#eae7df;fill-opacity:1;stroke-width:1.90302718;stroke-opacity:0.55"
           inkscape:connector-curvature="0"
           d="m -448.0786,277.08891 v 2.03896 h -2.03896 v -0.67966 h -0.67965 v -0.67965 h 0.67965 v -0.67965 z"
           id="path8045" />
        <path
           style="fill:#eae7df;fill-opacity:1;stroke-width:1.90302718;stroke-opacity:0.55"
           inkscape:connector-curvature="0"
           d="m -453.51582,278.44821 v 2.03896 h 2.03896 v -0.67965 h 0.67965 v -0.67965 h -0.67965 v -0.67966 z"
           id="path8047" />
        <path
           style="fill:#eae7df;fill-opacity:1;stroke-width:1.90302718;stroke-opacity:0.55"
           inkscape:connector-curvature="0"
           d="m -448.0786,279.80752 v 2.03896 h -2.03896 v -0.67966 h -0.67965 v -0.67965 h 0.67965 v -0.67965 z"
           id="path8049" />
        <path
           style="fill:#eae7df;fill-opacity:1;stroke-width:1.90302718;stroke-opacity:0.55"
           inkscape:connector-curvature="0"
           d="m -453.51582,281.16682 v 2.03896 h 2.03896 v -0.67965 h 0.67965 v -0.67965 h -0.67965 v -0.67966 z"
           id="path8051" />
        <path
           style="fill:#eae7df;fill-opacity:1;stroke-width:1.90302718;stroke-opacity:0.55"
           inkscape:connector-curvature="0"
           d="m -452.15652,283.88543 v 2.71861 h 0.67966 v 2.71861 h 1.3593 v -2.71861 h 0.67965 v -2.71861 z m 0.67966,0.67966 h 1.3593 v 1.3593 h -1.3593 z"
           id="path8053" />
      </g>
    </g>
  </g>
</svg>
