<?xml version="1.0" encoding="UTF-8" standalone="no"?>
<!-- Created with Inkscape (http://www.inkscape.org/) -->

<svg
   xmlns:dc="http://purl.org/dc/elements/1.1/"
   xmlns:cc="http://creativecommons.org/ns#"
   xmlns:rdf="http://www.w3.org/1999/02/22-rdf-syntax-ns#"
   xmlns:svg="http://www.w3.org/2000/svg"
   xmlns="http://www.w3.org/2000/svg"
   xmlns:sodipodi="http://sodipodi.sourceforge.net/DTD/sodipodi-0.dtd"
   xmlns:inkscape="http://www.inkscape.org/namespaces/inkscape"
   width="42.468727"
   version="1.1"
   height="48"
   id="svg26"
   sodipodi:docname="blender.svg"
   inkscape:version="0.92.2 (unknown)">
  <sodipodi:namedview
     pagecolor="#ffffff"
     bordercolor="#666666"
     borderopacity="1"
     objecttolerance="10"
     gridtolerance="10"
     guidetolerance="10"
     inkscape:pageopacity="0"
     inkscape:pageshadow="2"
     inkscape:window-width="1872"
     inkscape:window-height="1050"
     id="namedview28"
     showgrid="false"
     fit-margin-top="0"
     fit-margin-left="0"
     fit-margin-right="0"
     fit-margin-bottom="0"
     inkscape:zoom="6.9532167"
     inkscape:cx="29.169559"
     inkscape:cy="11.837665"
     inkscape:window-x="48"
     inkscape:window-y="0"
     inkscape:window-maximized="1"
     inkscape:current-layer="layer1" />
  <defs
     id="defs5455" />
  <metadata
     id="metadata5458">
    <rdf:RDF>
      <cc:Work
         rdf:about="">
        <dc:format>image/svg+xml</dc:format>
        <dc:type
           rdf:resource="http://purl.org/dc/dcmitype/StillImage" />
        <dc:title></dc:title>
      </cc:Work>
    </rdf:RDF>
  </metadata>
  <g
     inkscape:label="Capa 1"
     inkscape:groupmode="layer"
     id="layer1"
     transform="translate(-387.33703,-499.798)">
    <g
       id="g4525"
       transform="matrix(0.97948648,0,0,0.97948648,1442.4912,263.4269)">
      <g
         transform="translate(30.008293,8.2098719)"
         id="g4509">
        <path
           inkscape:transform-center-y="6.0573562e-06"
           transform="matrix(0,1.4766604,-1.4766604,0,-954.5498,493.70849)"
           d="m -151.59588,103.09044 c -0.71776,0.41441 -15.85833,0.41441 -16.5761,0 -0.71776,-0.4144 -8.28804,-13.526513 -8.28804,-14.355318 0,-0.828805 7.57028,-13.940919 8.28805,-14.355321 0.71776,-0.414403 15.85833,-0.414402 16.57609,10e-7 0.71777,0.414402 8.28805,13.526517 8.28805,14.355321 0,0.828805 -7.57028,13.940917 -8.28805,14.355317 z"
           inkscape:randomized="0"
           inkscape:rounded="0.05"
           inkscape:flatsided="true"
           sodipodi:arg2="1.5707963"
           sodipodi:arg1="1.0471976"
           sodipodi:r2="14.355322"
           sodipodi:r1="16.576097"
           sodipodi:cy="88.735123"
           sodipodi:cx="-159.88393"
           sodipodi:sides="6"
           id="path4474"
           style="opacity:1;fill:#e3e4d5;fill-opacity:1;stroke:none;stroke-width:0.70799464;stroke-linecap:round;stroke-linejoin:bevel;stroke-miterlimit:4;stroke-dasharray:none;stroke-dashoffset:0;stroke-opacity:1;paint-order:stroke markers fill"
           sodipodi:type="star" />
        <path
           style="opacity:1;fill:#6c7479;fill-opacity:1;stroke:none;stroke-width:0.17754112;stroke-linecap:round;stroke-linejoin:bevel;stroke-miterlimit:4;stroke-dasharray:none;stroke-dashoffset:0;stroke-opacity:1;paint-order:stroke markers fill"
           d="m -1095.375,238.26555 c -5.4042,3.09438 -11.0776,6.54405 -11.4045,7.11016 -0.6119,1.0599 -0.6119,23.41716 0,24.47706 0.3269,0.56612 6.0003,4.01578 11.4045,7.11016 z"
           id="rect4478"
           inkscape:connector-curvature="0" />
        <path
           style="opacity:1;fill:#8edfca;fill-opacity:1;stroke:none;stroke-width:0.17754112;stroke-linecap:round;stroke-linejoin:bevel;stroke-miterlimit:4;stroke-dasharray:none;stroke-dashoffset:0;stroke-opacity:1;paint-order:stroke markers fill"
           d="m -1085.5813,233.13719 c -0.7143,0 -7.5983,3.80438 -13.3361,7.18612 l 22.9671,36.73264 c 5.4523,-3.11778 11.2366,-6.63139 11.5667,-7.20317 0.6119,-1.0599 0.6119,-23.41716 0,-24.47706 -0.6119,-1.0599 -19.9738,-12.23853 -21.1977,-12.23853 z"
           id="rect4480"
           inkscape:connector-curvature="0" />
        <path
           style="opacity:0.5;fill:#1a1a1a;fill-opacity:1;stroke:none;stroke-width:4.69825888;stroke-linecap:round;stroke-linejoin:bevel;stroke-miterlimit:4;stroke-dasharray:none;stroke-dashoffset:0;stroke-opacity:1;paint-order:stroke markers fill"
           d="m 1339.3887,-462.01758 c -5.4999,0 -92.5135,50.23689 -95.2637,55 -2.7497,4.76307 -2.7497,105.23689 0,110 2.7502,4.76312 89.7638,55 95.2637,55 5.4998,0 92.5096,-50.23688 95.2597,-55 2.7502,-4.76311 2.7502,-105.23693 0,-110 -2.7501,-4.76311 -89.7599,-55 -95.2597,-55 z m 0,3.41211 c 5.3292,0 89.6418,48.6776 92.3066,53.29297 2.6644,4.61537 2.6644,101.97447 0,106.58984 -1.3339,2.31019 -23.1241,15.65897 -45.2265,28.41797 3.5704,-4.42359 6.1997,-9.31579 7.8378,-14.54297 0.9527,-3.04586 1.5504,-6.13275 1.7911,-9.23437 0.2379,-3.05336 0.1385,-6.11023 -0.2969,-9.16602 -0.8463,-5.95754 -2.9063,-11.54341 -6.0762,-16.63672 -2.9041,-4.68037 -6.6447,-8.77778 -11.0918,-12.22656 v -0.006 l -44.8828,-34.46093 c -0.045,-0.0314 -0.071,-0.0623 -0.1113,-0.0879 -1.4739,-1.13139 -3.4482,-1.69436 -5.459,-1.6914 v -0.004 c -2.0108,0.003 -4.0579,0.57198 -5.6758,1.70508 -3.2763,2.2882 -3.6496,6.07467 -0.7383,8.4668 v 0.01 l 18.7168,15.22071 -57.0527,0.0625 h -0.076 c -4.716,0.002 -9.2503,3.09923 -10.1445,7.01171 -0.9248,3.98342 2.2784,7.28756 7.1816,7.30274 v 0.0176 l 28.914,-0.0547 -50.1093,38.46484 c -6.8176,-4.31546 -11.5193,-7.54954 -12.1075,-8.56836 -2.6648,-4.61537 -2.6648,-101.97447 0,-106.58984 2.6644,-4.61537 86.9774,-53.29297 92.3067,-53.29297 z m -42.4512,160.56836 c 0,0 -0.4123,3.10892 -0.3809,4.97656 v 0 c 0.045,1.87757 0.6323,5.51942 1.5293,8.36524 1.8855,6.02344 5.0826,11.59448 9.5351,16.50781 4.5661,5.04527 10.187,9.10235 16.6817,11.97852 6.8242,3.02561 14.2213,4.56353 21.9043,4.55078 2.6384,-0.008 5.2428,-0.20091 7.8027,-0.57227 -7.7667,4.10132 -13.3832,6.80078 -14.623,6.80078 -3.3659,0 -38.2116,-19.4048 -64.1211,-34.875 z m 73.459,13.76563 c -0.4669,0.55492 -0.9527,1.1006 -1.4707,1.6289 -0.3723,0.37898 -0.7674,0.73028 -1.1582,1.08789 0.9343,-0.8587 1.8131,-1.76466 2.6289,-2.71679 z"
           transform="matrix(0.22275123,0,0,0.22275123,-1383.9317,336.02656)"
           id="path4476"
           inkscape:connector-curvature="0" />
        <g
           id="g3387"
           transform="matrix(0.49523412,0,0,0.49523412,-1175.9953,-218.04719)">
          <path
             inkscape:transform-center-y="6.9861335"
             inkscape:transform-center-x="-3.3792892"
             id="path3026-3-0"
             style="fill:#ffffff;fill-opacity:1;fill-rule:nonzero;stroke:none"
             d="m 178.09349,963.54558 c 0.48091,-3.8479 2.57179,-7.1975 5.53156,-9.5339 2.90677,-2.2954 6.69333,-3.64698 10.71893,-3.54444 4.01962,0.10255 7.60638,1.64194 10.18106,4.07694 2.62569,2.479 4.23846,5.923 4.18378,9.7778 -0.0646,3.9687 -1.88115,7.6069 -4.81328,10.265 -2.98738,2.7037 -7.08067,4.3458 -11.53024,4.2324 -4.4516,-0.1132 -8.30952,-1.9584 -10.9096,-4.8043 -2.54936,-2.7977 -3.85051,-6.5155 -3.36221,-10.4695"
             inkscape:connector-curvature="0" />
          <path
             id="path3026-3"
             style="fill:#01597c;fill-opacity:1;fill-rule:nonzero;stroke:none"
             d="m 184.07651,964.06178 c 0.1325,-2.3625 1.29125,-4.445 3.03625,-5.9212 1.71375,-1.4501 4.0175,-2.3363 6.53375,-2.3363 2.5125,0 4.8175,0.8862 6.53,2.3363 1.74625,1.4762 2.9025,3.5587 3.03625,5.9187 0.1325,2.43 -0.8425,4.685 -2.55625,6.3575 -1.74625,1.7012 -4.22875,2.77 -7.01,2.77 -2.7825,0 -5.27,-1.0688 -7.01625,-2.77 -1.7125,-1.6725 -2.68625,-3.9275 -2.55375,-6.355"
             inkscape:connector-curvature="0" />
          <path
             id="path3028-11"
             style="fill:#f5843b;fill-opacity:1;fill-rule:nonzero;stroke:none"
             d="m 168.83901,968.83808 c 0.0163,0.9262 0.31125,2.7224 0.75375,4.1262 0.93,2.9713 2.5075,5.72 4.70375,8.1437 2.2525,2.4888 5.02625,4.49 8.23,5.9088 3.36625,1.4925 7.015,2.2513 10.805,2.245 3.785,-0.01 7.4325,-0.78 10.8,-2.2825 3.20375,-1.4325 5.975,-3.4425 8.225,-5.9338 2.1925,-2.4312 3.76875,-5.1849 4.7,-8.1562 0.47,-1.5025 0.765,-3.025 0.88375,-4.555 0.1175,-1.5062 0.0675,-3.0138 -0.14625,-4.5212 -0.4175,-2.9388 -1.43375,-5.6938 -2.9975,-8.2063 -1.4325,-2.3088 -3.2775,-4.33125 -5.47125,-6.0325 l 0.006,-0.002 -22.14,-17 c -0.0188,-0.015 -0.035,-0.0312 -0.0563,-0.0438 -1.45375,-1.11625 -3.89625,-1.11125 -5.4925,0.006 -1.61625,1.12875 -1.8,2.9975 -0.36375,4.1775 l -0.005,0.005 9.2325,7.50875 -28.14375,0.0312 c -0.0137,0 -0.0263,0 -0.0375,0 -2.32625,10e-4 -4.5625,1.5275 -5.00375,3.4575 -0.45625,1.965 1.12375,3.595 3.5425,3.6025 l -0.002,0.009 14.26375,-0.0275 -25.455,19.53875 c -0.0312,0.025 -0.0675,0.049 -0.0975,0.074 -2.40125,1.8375 -3.17625,4.8963 -1.66375,6.8301 1.53375,1.9687 4.79875,1.9725 7.225,0.011 l 13.8925,-11.3688 c 0,0 -0.20375,1.5338 -0.1875,2.4551 z m 35.7,5.1412 c -2.86375,2.9163 -6.87,4.57 -11.2075,4.5788 -4.3425,0.01 -8.34875,-1.6325 -11.2125,-4.5438 -1.39875,-1.4188 -2.42625,-3.05 -3.06,-4.79 -0.62,-1.7075 -0.8625,-3.5212 -0.7025,-5.3513 0.1525,-1.7899 0.68375,-3.495 1.535,-5.0399 0.835,-1.5163 1.98375,-2.8888 3.405,-4.0488 2.78125,-2.2675 6.32375,-3.49375 10.03,-3.49875 3.70875,-0.006 7.24875,1.21125 10.0325,3.47005 1.4175,1.1549 2.5675,2.5212 3.4025,4.0374 0.85375,1.5425 1.3825,3.2413 1.54,5.0363 0.15625,1.8275 -0.085,3.6387 -0.705,5.3488 -0.635,1.7437 -1.65875,3.375 -3.0575,4.8012"
             inkscape:connector-curvature="0" />
        </g>
      </g>
    </g>
  </g>
</svg>
