<?xml version="1.0" encoding="UTF-8" standalone="no"?>
<!-- Created with Inkscape (http://www.inkscape.org/) -->

<svg
   xmlns:dc="http://purl.org/dc/elements/1.1/"
   xmlns:cc="http://creativecommons.org/ns#"
   xmlns:rdf="http://www.w3.org/1999/02/22-rdf-syntax-ns#"
   xmlns:svg="http://www.w3.org/2000/svg"
   xmlns="http://www.w3.org/2000/svg"
   xmlns:sodipodi="http://sodipodi.sourceforge.net/DTD/sodipodi-0.dtd"
   xmlns:inkscape="http://www.inkscape.org/namespaces/inkscape"
   width="42.468826"
   height="48"
   id="svg5453"
   version="1.1"
   inkscape:version="0.92.2 (unknown)"
   sodipodi:docname="dolphin.svg">
  <defs
     id="defs5455">
    <linearGradient
       y2="174.70815"
       x2="146.52715"
       y1="131.02763"
       x1="123.64119"
       id="w-3-6"
       gradientTransform="matrix(1.0919081,0,0,0.91582798,1246.9727,705.59156)"
       gradientUnits="userSpaceOnUse">
      <stop
         id="stop5889-7"
         offset="0"
         stop-color="#eff7fc" />
      <stop
         id="stop5891-5"
         offset="1"
         stop-color="#fff" />
    </linearGradient>
  </defs>
  <sodipodi:namedview
     id="base"
     pagecolor="#ffffff"
     bordercolor="#666666"
     borderopacity="1.0"
     inkscape:pageopacity="0"
     inkscape:pageshadow="2"
     inkscape:zoom="1.0108546"
     inkscape:cx="-56.543779"
     inkscape:cy="-60.204385"
     inkscape:document-units="px"
     inkscape:current-layer="layer1"
     showgrid="false"
     fit-margin-top="0"
     fit-margin-left="0"
     fit-margin-right="0"
     fit-margin-bottom="0"
     inkscape:window-width="1280"
     inkscape:window-height="994"
     inkscape:window-x="1920"
     inkscape:window-y="0"
     inkscape:window-maximized="1"
     inkscape:showpageshadow="true"
     borderlayer="true"
     showguides="false"
     showborder="true"
     inkscape:pagecheckerboard="false">
    <inkscape:grid
       type="xygrid"
       id="grid4063"
       originx="223.44154"
       originy="53.617825" />
    <sodipodi:guide
       position="223.44155,101.61782"
       orientation="4,0"
       id="guide4146"
       inkscape:locked="false" />
    <sodipodi:guide
       position="223.44155,97.617823"
       orientation="0,48"
       id="guide4148"
       inkscape:locked="false" />
    <sodipodi:guide
       position="271.44155,97.617823"
       orientation="-4,0"
       id="guide4150"
       inkscape:locked="false" />
    <sodipodi:guide
       position="271.44155,101.61782"
       orientation="0,-48"
       id="guide4152"
       inkscape:locked="false" />
    <sodipodi:guide
       position="223.44155,57.617851"
       orientation="4,0"
       id="guide4154"
       inkscape:locked="false" />
    <sodipodi:guide
       position="223.44155,53.617851"
       orientation="0,48"
       id="guide4156"
       inkscape:locked="false" />
    <sodipodi:guide
       position="271.44155,53.617851"
       orientation="-4,0"
       id="guide4158"
       inkscape:locked="false" />
    <sodipodi:guide
       position="271.44155,57.617851"
       orientation="0,-48"
       id="guide4160"
       inkscape:locked="false" />
    <sodipodi:guide
       position="271.44155,101.61785"
       orientation="0,-4"
       id="guide4162"
       inkscape:locked="false" />
    <sodipodi:guide
       position="267.44155,101.61785"
       orientation="48,0"
       id="guide4164"
       inkscape:locked="false" />
    <sodipodi:guide
       position="267.44155,53.617851"
       orientation="0,4"
       id="guide4166"
       inkscape:locked="false" />
    <sodipodi:guide
       position="271.44155,53.617851"
       orientation="-48,0"
       id="guide4168"
       inkscape:locked="false" />
    <sodipodi:guide
       position="227.44158,101.61785"
       orientation="0,-4"
       id="guide4170"
       inkscape:locked="false" />
    <sodipodi:guide
       position="223.44158,101.61785"
       orientation="48,0"
       id="guide4172"
       inkscape:locked="false" />
    <sodipodi:guide
       position="223.44158,53.617851"
       orientation="0,4"
       id="guide4174"
       inkscape:locked="false" />
    <sodipodi:guide
       position="227.44158,53.617851"
       orientation="-48,0"
       id="guide4176"
       inkscape:locked="false" />
    <sodipodi:guide
       position="227.44155,101.61782"
       orientation="43.999969,0"
       id="guide4638"
       inkscape:locked="false" />
    <sodipodi:guide
       position="227.44155,57.617851"
       orientation="0,20"
       id="guide4640"
       inkscape:locked="false" />
    <sodipodi:guide
       position="247.44155,57.617851"
       orientation="-43.999969,0"
       id="guide4642"
       inkscape:locked="false" />
    <sodipodi:guide
       position="247.44155,101.61782"
       orientation="0,-20"
       id="guide4644"
       inkscape:locked="false" />
    <sodipodi:guide
       position="227.44158,77.617851"
       orientation="20,0"
       id="guide4666"
       inkscape:locked="false" />
    <sodipodi:guide
       position="227.44158,57.617851"
       orientation="0,39.999969"
       id="guide4668"
       inkscape:locked="false" />
    <sodipodi:guide
       position="267.44155,57.617851"
       orientation="-20,0"
       id="guide4670"
       inkscape:locked="false" />
    <sodipodi:guide
       position="267.44155,77.617851"
       orientation="0,-39.999969"
       id="guide4672"
       inkscape:locked="false" />
  </sodipodi:namedview>
  <metadata
     id="metadata5458">
    <rdf:RDF>
      <cc:Work
         rdf:about="">
        <dc:format>image/svg+xml</dc:format>
        <dc:type
           rdf:resource="http://purl.org/dc/dcmitype/StillImage" />
        <dc:title></dc:title>
      </cc:Work>
    </rdf:RDF>
  </metadata>
  <g
     inkscape:label="Capa 1"
     inkscape:groupmode="layer"
     id="layer1"
     transform="translate(-161.12989,-553.41582)">
    <g
       transform="matrix(1.1548533,0,0,1.1548533,1279.3216,551.00081)"
       id="g17461">
      <path
         inkscape:transform-center-x="-9.2692787e-05"
         sodipodi:type="star"
         style="opacity:1;fill:#f5ebd5;fill-opacity:1;stroke:none;stroke-width:0.70799464;stroke-linecap:round;stroke-linejoin:bevel;stroke-miterlimit:4;stroke-dasharray:none;stroke-dashoffset:0;stroke-opacity:1;paint-order:stroke markers fill"
         id="path3461-5-3"
         sodipodi:sides="6"
         sodipodi:cx="-159.88393"
         sodipodi:cy="88.735123"
         sodipodi:r1="16.576097"
         sodipodi:r2="14.355322"
         sodipodi:arg1="1.0471976"
         sodipodi:arg2="1.5707963"
         inkscape:flatsided="true"
         inkscape:rounded="0.05"
         inkscape:randomized="0"
         d="m -151.59588,103.09044 c -0.71776,0.41441 -15.85833,0.41441 -16.5761,0 -0.71776,-0.4144 -8.28804,-13.526513 -8.28804,-14.355318 0,-0.828805 7.57028,-13.940919 8.28805,-14.355321 0.71776,-0.414403 15.85833,-0.414402 16.57609,10e-7 0.71777,0.414402 8.28805,13.526517 8.28805,14.355321 0,0.828805 -7.57028,13.940917 -8.28805,14.355317 z"
         transform="matrix(0,1.252427,-1.252427,0,-838.73295,223.11593)"
         inkscape:transform-center-y="8.6501096e-06" />
      <path
         inkscape:connector-curvature="0"
         id="rect9331-6"
         d="m -949.86705,2.1131892 c -1.03817,0 -17.45954,9.4802848 -17.9785,10.3791968 -0.22024,0.380663 -0.34048,4.027018 -0.37415,8.142157 l 36.38077,-7.938067 c -0.0253,-0.0719 -0.0329,-0.173155 -0.0506,-0.204039 -0.51896,-0.898912 -16.94033,-10.3791972 -17.9785,-10.3791972 z"
         style="opacity:1;fill:#018f81;fill-opacity:1;stroke:none;stroke-width:0.66979408;stroke-linecap:round;stroke-linejoin:round;stroke-miterlimit:4;stroke-dasharray:none;stroke-dashoffset:0;stroke-opacity:1;paint-order:fill markers stroke" />
      <path
         inkscape:connector-curvature="0"
         id="rect9333-7"
         d="m -931.52376,26.436373 -36.54557,4.691234 c 0.0582,1.101939 0.13164,1.965638 0.22277,2.125781 0.51896,0.898937 16.94033,10.380488 17.9785,10.380488 1.03792,0 17.45929,-9.481551 17.9785,-10.380488 0.19492,-0.339905 0.31694,-3.265313 0.36479,-6.817015 z"
         style="opacity:1;fill:#4d4d4d;fill-opacity:1;stroke:none;stroke-width:0.66979408;stroke-linecap:round;stroke-linejoin:round;stroke-miterlimit:4;stroke-dasharray:none;stroke-dashoffset:0;stroke-opacity:1;paint-order:fill markers stroke" />
      <path
         inkscape:connector-curvature="0"
         id="path3491-9-5"
         transform="matrix(0.18892601,0,0,0.18892601,-1096.6108,89.378322)"
         d="m 776.72461,-462.01758 c -5.49914,0 -92.5108,50.2369 -95.26172,55 -2.74954,4.7631 -2.74954,105.23689 0,110 2.75092,4.7631 89.76258,55 95.26172,55 5.50046,0 92.5108,-50.2369 95.26172,-55 2.75092,-4.76311 2.75092,-105.2369 0,-110 -2.75092,-4.76324 -89.76126,-55 -95.26172,-55 z m 0,3.41211 c 5.33029,0 89.64342,48.67766 92.30859,53.29297 2.66512,4.61544 2.66512,101.97454 0,106.58984 -0.68659,1.18901 -6.83971,5.32544 -15.61718,10.77735 v -23.88086 c -10e-4,-0.27201 7e-5,-0.52479 -0.002,-0.79883 V -369.5 c 0,-12.68839 -10.2123,-22.90234 -22.90039,-22.90234 l -108.70312,0.002 c -12.68809,0 -22.90235,10.21395 -22.90235,22.90234 v 7.30664 h -4.375 c -6.84391,0 -5.23828,5.52933 -5.23828,12.39649 v 37.67578 h -0.12109 v 17.16992 c -2.69164,-1.84757 -4.41402,-3.18114 -4.75586,-3.77344 -2.66517,-4.6153 -2.66517,-101.9744 0,-106.58984 2.66379,-4.61531 86.97767,-53.29297 92.30664,-53.29297 z m -26.18555,200.10938 h 52.3711 c -13.57326,7.49813 -24.39066,13.0664 -26.18555,13.0664 -1.79445,0 -12.61234,-5.56827 -26.18555,-13.0664 z"
         style="opacity:0.5;fill:#1a1a1a;fill-opacity:1;stroke:none;stroke-width:4.69826126;stroke-linecap:round;stroke-linejoin:bevel;stroke-miterlimit:4;stroke-dasharray:none;stroke-dashoffset:0;stroke-opacity:1;paint-order:stroke markers fill" />
      <g
         id="g3698-0-3"
         transform="matrix(1.9175345,0,0,1.9175345,2499.988,1240.9418)">
        <path
           inkscape:connector-curvature="0"
           id="path5299-8-5"
           d="m -1807.1439,-633.91409 v 2.88459 c 0,1.3289 1.07,2.39829 2.3989,2.39829 h 11.3843 c 1.3289,0 2.3988,-1.06939 2.3988,-2.39829 v -2.88459 z"
           style="opacity:1;fill:#01a6ca;fill-opacity:1;stroke:none;stroke-width:2.63526201;stroke-linecap:round;stroke-linejoin:miter;stroke-miterlimit:4;stroke-dasharray:none;stroke-dashoffset:0;stroke-opacity:1;paint-order:markers stroke fill" />
        <rect
           style="opacity:1;fill:#01a6ca;fill-opacity:1;stroke:none;stroke-width:2.47906685;stroke-linecap:round;stroke-linejoin:miter;stroke-miterlimit:4;stroke-dasharray:none;stroke-dashoffset:0;stroke-opacity:1;paint-order:markers stroke fill"
           id="rect5301-8-6"
           width="15.222669"
           height="13.19298"
           x="-1806.1847"
           y="-641.82397"
           ry="2.2565536" />
        <rect
           ry="1.6347238"
           y="-640.9444"
           x="-1805.5455"
           height="9.5574417"
           width="13.94357"
           id="rect5303-5-2"
           style="opacity:1;fill:#c9e9f1;fill-opacity:1;stroke:none;stroke-width:2.01943159;stroke-linecap:round;stroke-linejoin:miter;stroke-miterlimit:4;stroke-dasharray:none;stroke-dashoffset:0;stroke-opacity:1;paint-order:markers stroke fill" />
        <rect
           style="opacity:1;fill:#01597c;fill-opacity:1;stroke:none;stroke-width:1.86409092;stroke-linecap:round;stroke-linejoin:miter;stroke-miterlimit:4;stroke-dasharray:none;stroke-dashoffset:0;stroke-opacity:1;paint-order:markers stroke fill"
           id="rect5305-0-9"
           width="12.870985"
           height="8.8222532"
           x="-1805.0094"
           y="-640.57684"
           ry="1.5089756" />
        <path
           sodipodi:nodetypes="csccssscscc"
           style="opacity:1;fill:#c9e9f1;fill-opacity:1;stroke:none;stroke-width:1.26012909;stroke-linecap:round;stroke-linejoin:miter;stroke-miterlimit:4;stroke-dasharray:none;stroke-dashoffset:0;stroke-opacity:1;paint-order:markers stroke fill"
           d="m -1805.101,-639.25981 c -0.6343,0 -0.054,0.51251 -0.054,1.149 v 1.88148 h 13.3924 v -0.49099 c 0,-0.70028 0.4283,-1.2643 -0.2697,-1.2643 h -5.1733 c -0.077,0 -0.152,0.01 -0.2238,0.0229 v -0.14906 c 0,-0.63649 -0.5111,-1.14899 -1.1455,-1.14899 z"
           id="path5307-9-1"
           inkscape:connector-curvature="0" />
        <path
           inkscape:connector-curvature="0"
           id="path5309-6-2"
           d="m -1806.6158,-638.84755 c -0.6743,0 -0.5161,0.5448 -0.5161,1.22139 v 6.34983 h 16.1464 v -0.52192 c 0,-0.74441 0.1983,-5.69377 -0.5436,-5.69377 h -7.1526 c -0.082,0 -0.1615,0.0102 -0.238,0.0243 v -0.15845 c 0,-0.67659 -0.5432,-1.22139 -1.2175,-1.22139 z"
           style="opacity:1;fill:#01a6ca;fill-opacity:1;stroke:none;stroke-width:1.33952439;stroke-linecap:round;stroke-linejoin:miter;stroke-miterlimit:4;stroke-dasharray:none;stroke-dashoffset:0;stroke-opacity:1;paint-order:markers stroke fill"
           sodipodi:nodetypes="csccssscscc" />
      </g>
    </g>
  </g>
</svg>
