<?xml version="1.0" encoding="UTF-8" standalone="no"?>
<!-- Created with Inkscape (http://www.inkscape.org/) -->

<svg
   xmlns:osb="http://www.openswatchbook.org/uri/2009/osb"
   xmlns:dc="http://purl.org/dc/elements/1.1/"
   xmlns:cc="http://creativecommons.org/ns#"
   xmlns:rdf="http://www.w3.org/1999/02/22-rdf-syntax-ns#"
   xmlns:svg="http://www.w3.org/2000/svg"
   xmlns="http://www.w3.org/2000/svg"
   xmlns:xlink="http://www.w3.org/1999/xlink"
   xmlns:sodipodi="http://sodipodi.sourceforge.net/DTD/sodipodi-0.dtd"
   xmlns:inkscape="http://www.inkscape.org/namespaces/inkscape"
   width="42.566166"
   height="48"
   id="svg5453"
   version="1.1"
   inkscape:version="0.92.2 (unknown)"
   sodipodi:docname="inkscape.svg">
  <defs
     id="defs5455">
    <linearGradient
       id="linearGradient4207"
       osb:paint="gradient">
      <stop
         style="stop-color:#3498db;stop-opacity:1;"
         offset="0"
         id="stop3371" />
      <stop
         style="stop-color:#3498db;stop-opacity:0;"
         offset="1"
         id="stop3373" />
    </linearGradient>
    <linearGradient
       inkscape:collect="always"
       id="linearGradient6278">
      <stop
         style="stop-color:#1a1a1a;stop-opacity:1;"
         offset="0"
         id="stop6274" />
      <stop
         style="stop-color:#1a1a1a;stop-opacity:0;"
         offset="1"
         id="stop6276" />
    </linearGradient>
    <linearGradient
       inkscape:collect="always"
       xlink:href="#linearGradient6278"
       id="linearGradient870"
       gradientUnits="userSpaceOnUse"
       gradientTransform="translate(-556.99441,-191.09026)"
       x1="-526.66846"
       y1="221.03201"
       x2="-484.37439"
       y2="225.36974" />
  </defs>
  <sodipodi:namedview
     id="base"
     pagecolor="#ffffff"
     bordercolor="#666666"
     borderopacity="1.0"
     inkscape:pageopacity="0"
     inkscape:pageshadow="2"
     inkscape:zoom="9.18"
     inkscape:cx="18.076498"
     inkscape:cy="5.0282124"
     inkscape:document-units="px"
     inkscape:current-layer="g4236"
     showgrid="false"
     fit-margin-top="0"
     fit-margin-left="0"
     fit-margin-right="0"
     fit-margin-bottom="0"
     inkscape:window-width="1280"
     inkscape:window-height="994"
     inkscape:window-x="1920"
     inkscape:window-y="0"
     inkscape:window-maximized="1"
     inkscape:showpageshadow="false"
     borderlayer="true"
     showguides="false"
     showborder="true"
     inkscape:snap-global="false">
    <inkscape:grid
       type="xygrid"
       id="grid4063"
       originx="179.03275"
       originy="51.321466" />
    <sodipodi:guide
       position="89.573429,96.482603"
       orientation="0,48"
       id="guide4148"
       inkscape:locked="false" />
    <sodipodi:guide
       position="227.03276,51.321493"
       orientation="-48,0"
       id="guide4168"
       inkscape:locked="false" />
    <sodipodi:guide
       position="74.032754,55.321466"
       orientation="0,-4"
       id="guide4170"
       inkscape:locked="false" />
    <sodipodi:guide
       position="179.03279,99.321493"
       orientation="48,0"
       id="guide4172"
       inkscape:locked="false" />
    <sodipodi:guide
       position="220.03275,55.321466"
       orientation="0,4"
       id="guide4174"
       inkscape:locked="false" />
    <sodipodi:guide
       position="183.03279,51.321493"
       orientation="-48,0"
       id="guide4176"
       inkscape:locked="false" />
    <sodipodi:guide
       position="164.03275,55.321466"
       orientation="0,-47.999969"
       id="guide4305"
       inkscape:locked="false" />
  </sodipodi:namedview>
  <metadata
     id="metadata5458">
    <rdf:RDF>
      <cc:Work
         rdf:about="">
        <dc:format>image/svg+xml</dc:format>
        <dc:type
           rdf:resource="http://purl.org/dc/dcmitype/StillImage" />
        <dc:title />
      </cc:Work>
    </rdf:RDF>
  </metadata>
  <g
     inkscape:label="Capa 1"
     inkscape:groupmode="layer"
     id="layer1"
     transform="translate(-205.53868,-551.11946)">
    <g
       id="g4470"
       transform="matrix(1.3382274,-0.31961128,0.31961128,1.3382274,-356.73681,-37.003194)">
      <g
         id="g7486"
         transform="matrix(0.26208427,0.02583472,-0.02583472,0.26208427,404.04667,465.90142)">
        <g
           id="g7427"
           transform="translate(-0.07478376,0.54574089)" />
        <g
           id="g4236"
           transform="matrix(0.98797581,0.13461765,-0.13501288,0.99084384,25.550446,-23.969633)">
          <g
             id="g5659"
             transform="matrix(0.95103704,-0.08414739,0.0863517,0.93246111,-8.7821912,30.506766)" />
          <g
             transform="matrix(3.2066492,0.00243447,-0.00242742,3.1973654,3085.5911,288.98072)"
             id="g15328">
            <path
               transform="matrix(0.8463258,0,0,0.8463258,-161.84674,2.2056635)"
               style="opacity:0.3;fill:url(#linearGradient870);fill-opacity:1;stroke:none;stroke-width:1.05833328;stroke-linecap:round;stroke-linejoin:bevel;stroke-miterlimit:4;stroke-dasharray:none;stroke-dashoffset:0;stroke-opacity:1;paint-order:stroke markers fill"
               d="m -1083.6913,29.162473 c 0.01,0.28067 0.019,0.51633 0.028,0.77928 l 41.352,4.99969 c 0.3798,-0.25534 0.7143,-0.48715 0.9421,-0.66198 z"
               id="path6283"
               inkscape:connector-curvature="0" />
            <path
               sodipodi:type="star"
               style="opacity:1;fill:#e1e5e4;fill-opacity:1;stroke:none;stroke-width:0.70799464;stroke-linecap:round;stroke-linejoin:bevel;stroke-miterlimit:4;stroke-dasharray:none;stroke-dashoffset:0;stroke-opacity:1;paint-order:stroke markers fill"
               id="path5766-3"
               sodipodi:sides="6"
               sodipodi:cx="-159.88393"
               sodipodi:cy="88.735123"
               sodipodi:r1="16.576097"
               sodipodi:r2="14.355322"
               sodipodi:arg1="1.0471976"
               sodipodi:arg2="1.5707963"
               inkscape:flatsided="true"
               inkscape:rounded="0.05"
               inkscape:randomized="0"
               d="m -151.59588,103.09044 c -0.71776,0.41441 -15.85833,0.41441 -16.5761,0 -0.71776,-0.4144 -8.28804,-13.526513 -8.28804,-14.355318 0,-0.828805 7.57028,-13.940919 8.28805,-14.355321 0.71776,-0.414403 15.85833,-0.414402 16.57609,10e-7 0.71777,0.414402 8.28805,13.526517 8.28805,14.355321 0,0.828805 -7.57028,13.940917 -8.28805,14.355317 z"
               transform="matrix(0,1.2497358,-1.2497358,0,-949.86141,220.33836)"
               inkscape:transform-center-y="6.0573562e-06" />
            <path
               transform="matrix(0.8463258,0,0,0.8463258,-161.84674,2.2056635)"
               inkscape:connector-curvature="0"
               id="rect6108"
               d="m -1062.1324,-2.8309275 c -0.7704,0 -8.7241,4.42787 -14.6678,7.97471 l 36.3202,17.8697105 c 0.026,-6.27704 -0.1248,-13.0339805 -0.4547,-13.6053705 -0.612,-1.0599 -19.9738,-12.23905 -21.1977,-12.23905 z"
               style="opacity:1;fill:#6e6d5e;fill-opacity:1;stroke:none;stroke-width:1.05833328;stroke-linecap:round;stroke-linejoin:bevel;stroke-miterlimit:4;stroke-dasharray:none;stroke-dashoffset:0;stroke-opacity:1;paint-order:stroke markers fill" />
            <path
               transform="matrix(0.8463258,0,0,0.8463258,-161.84674,2.2056635)"
               inkscape:connector-curvature="0"
               id="rect6113"
               d="m -1083.6913,29.162473 c 0.076,2.56341 0.195,4.43578 0.3607,4.72271 0.6119,1.05989 19.9743,12.238533 21.1982,12.238533 1.134,0 17.8291,-9.591493 20.7636,-11.844243 z"
               style="opacity:1;fill:#494c4d;fill-opacity:1;stroke:none;stroke-width:1.05833328;stroke-linecap:round;stroke-linejoin:bevel;stroke-miterlimit:4;stroke-dasharray:none;stroke-dashoffset:0;stroke-opacity:1;paint-order:stroke markers fill" />
            <path
               inkscape:connector-curvature="0"
               id="path13848-7"
               d="m -1060.7082,-0.1357076 c -0.2289,0 -0.3303,0.05985365 -0.5199,0.13431506 -0.1897,0.0744614 -0.4207,0.17881091 -0.6952,0.30921898 -0.549,0.26079157 -1.2659,0.62931631 -2.0989,1.07340956 -1.666,0.888162 -3.7929,2.0771905 -5.9024,3.295136 -2.1096,1.2179437 -4.2015,2.4639523 -5.8036,3.4626586 -0.8011,0.4993541 -1.4793,0.9368841 -1.9797,1.2818932 -0.2501,0.1725027 -0.454,0.3209626 -0.6132,0.4479606 -0.1594,0.1270093 -0.2617,0.1829766 -0.376,0.3811736 -0.1145,0.198194 -0.1136,0.31623 -0.144,0.5177 -0.03,0.20146 -0.057,0.454281 -0.082,0.757182 -0.048,0.605812 -0.088,1.409652 -0.1199,2.353087 -0.064,1.886881 -0.096,4.32192 -0.096,6.757794 0,2.435889 0.032,4.873129 0.096,6.760011 0.032,0.943434 0.071,1.747274 0.1199,2.353086 0.025,0.302902 0.051,0.555709 0.082,0.757182 0.031,0.201457 0.03,0.319517 0.144,0.517701 0.1143,0.198194 0.2166,0.253793 0.376,0.380803 0.1592,0.127011 0.3631,0.275828 0.6132,0.448331 0.5004,0.34502 1.1786,0.782539 1.9797,1.281893 1.6021,0.998706 3.694,2.242502 5.8036,3.460444 2.1095,1.217932 4.2364,2.409175 5.9024,3.29735 0.833,0.44408 1.5499,0.812605 2.0989,1.07341 0.2745,0.130397 0.5055,0.232175 0.6952,0.306636 0.1578,0.06198 0.2584,0.113337 0.4184,0.129517 0.042,0.01047 0.076,0.01623 0.1004,0.01623 0.022,0 0.056,-0.0073 0.091,-0.01549 0.166,-0.01481 0.2666,-0.06688 0.428,-0.130255 0.1897,-0.07446 0.4203,-0.176239 0.6948,-0.306636 0.549,-0.260805 1.2662,-0.629329 2.0992,-1.07341 1.666,-0.888175 3.7926,-2.079417 5.9021,-3.29735 2.1096,-1.217941 4.2018,-2.461738 5.804,-3.460444 0.801,-0.499354 1.4789,-0.936873 1.9793,-1.281893 0.2502,-0.172503 0.4564,-0.32132 0.6158,-0.448331 0.1593,-0.127009 0.2616,-0.182609 0.376,-0.380803 0.1145,-0.198184 0.1114,-0.316243 0.1417,-0.517701 0.031,-0.201473 0.057,-0.45428 0.081,-0.757181 0.048,-0.605812 0.088,-1.409653 0.1199,-2.353087 0.064,-1.886882 0.096,-4.324122 0.096,-6.760011 0,-2.435874 -0.032,-4.870913 -0.096,-6.757794 -0.032,-0.943434 -0.071,-1.747275 -0.1199,-2.353087 -0.025,-0.302901 -0.051,-0.555722 -0.081,-0.757181 -0.031,-0.201471 -0.027,-0.319506 -0.1417,-0.517701 -0.1144,-0.198197 -0.2167,-0.2541642 -0.376,-0.3811735 -0.1594,-0.126998 -0.3656,-0.2754579 -0.6158,-0.4479606 -0.5004,-0.3450091 -1.1783,-0.7825391 -1.9793,-1.2818932 -1.6022,-0.9987063 -3.6944,-2.2447149 -5.804,-3.4626586 -2.1095,-1.2179455 -4.2361,-2.406974 -5.9021,-3.295136 -0.833,-0.44409324 -1.5502,-0.81261798 -2.0992,-1.07340955 -0.2745,-0.13040807 -0.5051,-0.23475757 -0.6948,-0.30921898 -0.1896,-0.07446141 -0.2889,-0.13431506 -0.5177,-0.13431506 z m 0,0.88263965 c 0.042,0.0105799 0.1189,0.0291928 0.2015,0.061622 0.1579,0.0620206 0.3756,0.15735837 0.6394,0.28265035 0.5274,0.2505725 1.2373,0.6163692 2.0635,1.0568048 1.6522,0.8808619 3.7728,2.0665917 5.8758,3.2807455 2.103,1.2141652 4.1884,2.4577819 5.7774,3.4482681 0.7945,0.4952431 1.465,0.9264214 1.9457,1.2579072 0.2404,0.165745 0.4352,0.306372 0.5679,0.412169 0.069,0.05503 0.1235,0.112879 0.1539,0.144647 0.012,0.04132 0.034,0.116647 0.047,0.205162 0.025,0.167829 0.049,0.406367 0.072,0.697402 0.047,0.582071 0.088,1.379415 0.1196,2.315082 0.063,1.871348 0.094,4.298125 0.094,6.726429 0,2.428319 -0.031,4.857297 -0.094,6.728645 -0.031,0.93567 -0.073,1.733011 -0.1196,2.315083 -0.023,0.291034 -0.047,0.529202 -0.072,0.697033 -0.013,0.08724 -0.035,0.16265 -0.047,0.204423 -0.03,0.03113 -0.085,0.08811 -0.1539,0.14317 -0.1327,0.105797 -0.3275,0.24864 -0.5679,0.414383 -0.4807,0.331488 -1.1512,0.763033 -1.9457,1.258278 -1.589,0.990486 -3.6744,2.23152 -5.7774,3.445685 -0.7028,0.405772 -1.401,0.803533 -2.0896,1.192964 -0.9777,-0.629213 -2.5099,-1.142906 -1.8641,-1.801808 2.7853,-1.626595 12.4119,-2.685151 7.8441,-7.252987 l -11.4917,-11.746254 c -0.7027,-0.674651 -1.6403,-1.015464 -2.5689,-1.017323 -0.9287,-0.0019 -1.8483,0.335244 -2.5147,1.017323 l -11.0869,11.345155 c -3.7458,4.638813 2.5493,4.098842 5.2479,5.434944 0.5021,0.513206 -0.5139,0.956355 -1.4738,1.402554 -1.2227,-0.723138 -2.3788,-1.419593 -3.3424,-2.020253 -0.7945,-0.495245 -1.4652,-0.92679 -1.9461,-1.258278 -0.2403,-0.165743 -0.4325,-0.308586 -0.5653,-0.414383 -0.069,-0.05541 -0.1239,-0.112564 -0.1542,-0.143538 -0.012,-0.0419 -0.034,-0.117208 -0.047,-0.204055 -0.025,-0.167831 -0.051,-0.405999 -0.075,-0.697033 -0.047,-0.582072 -0.088,-1.379413 -0.1195,-2.315083 -0.064,-1.871348 -0.094,-4.300326 -0.094,-6.728645 0,-2.428304 0.03,-4.855081 0.094,-6.726429 0.031,-0.935667 0.073,-1.733011 0.1195,-2.315082 0.024,-0.291035 0.049,-0.529573 0.075,-0.697402 0.014,-0.08891 0.036,-0.164354 0.048,-0.20553 0.031,-0.03191 0.085,-0.08961 0.1535,-0.144279 0.1328,-0.105797 0.325,-0.246424 0.5653,-0.412169 0.4809,-0.3314858 1.1516,-0.7626641 1.9461,-1.2579072 1.589,-0.9904862 3.6766,-2.2341029 5.7796,-3.4482681 2.103,-1.2141538 4.2214,-2.399895 5.8737,-3.2807455 0.8261,-0.4404356 1.5356,-0.8062323 2.0631,-1.0568048 0.2637,-0.12529198 0.484,-0.22062972 0.642,-0.28265035 0.083,-0.0324292 0.1594,-0.0510403 0.2015,-0.061622 z"
               style="opacity:0.5;fill:#1a1a1a;stroke-width:0.08252645"
               transform="matrix(0.99682283,0,0,0.99682283,-3.4177341,-0.04544898)" />
            <path
               style="stroke-width:0.08252645"
               id="path6118"
               d="m -1063.4794,6.6937785 -11.0866,11.3449145 c -3.7458,4.638814 2.5493,4.099087 5.2479,5.435188 0.9681,0.989498 -3.7104,1.719854 -2.7423,2.71017 0.9679,0.989487 5.8535,1.906362 6.8232,2.89585 0.9681,0.989498 -1.9814,2.039236 -1.0134,3.028724 0.968,0.989487 3.2069,0.05203 3.6262,2.336326 0.2988,1.632372 4.0347,0.701468 5.8619,-0.635451 0.968,-0.990327 -1.8519,-0.897067 -0.8839,-1.886555 2.4073,-2.461765 4.6487,-0.894592 5.4723,-3.361307 0.4069,-1.218913 -3.5437,-1.879131 -2.574,-2.868619 2.7853,-1.626595 12.412,-2.685414 7.8442,-7.253251 l -11.4918,-11.7459895 c -1.4054,-1.349302 -3.7508,-1.3641604 -5.0837,0 z m 12.7347,21.8678595 c 0,0.562827 4.1469,0.931722 4.1469,-0.132863 -0.5909,-1.709957 -3.6567,-1.594415 -4.1469,0.132863 z m -18.6806,2.990755 c 0.9819,0.849201 2.4988,-0.211264 2.9535,-1.39634 -0.9515,-1.264306 -4.5133,0.0454 -2.9535,1.39634 z m 18.1607,-1.834556 c -1.266,1.135563 0.142,2.28763 1.3897,1.553971 0.2782,-0.282242 -0.011,-1.271729 -1.3897,-1.553971 z"
               inkscape:connector-curvature="0" />
            <path
               id="path6120"
               d="m -1066.1325,24.087878 c 0.2962,0.184033 4.7774,1.094302 5.8725,1.275861 0.3797,0.08009 0.1106,0.471224 -0.4126,0.735305 -1.1802,0.313604 -6.9042,-2.011166 -5.4599,-2.011166 z"
               inkscape:connector-curvature="0"
               style="fill:#ffffff;stroke-width:0.08252645" />
            <path
               sodipodi:nodetypes="ccsaaazzasccc"
               id="path6122"
               d="m -1059.0658,7.4893338 4.3862,4.4547812 c 0.4159,0.425004 0.2938,1.367044 0.1774,1.485469 -0.1164,0.118425 -1.3097,-2.074634 -2.1778,-1.742126 -0.814,0.311788 0.3527,2.192556 -0.4283,2.579771 -0.6145,0.304695 -1.1344,-0.987289 -1.8198,-0.96061 -1.1481,0.04469 -1.7623,2.303619 -2.914,1.841173 -1.1517,-0.462446 0.2116,-3.715187 -0.9647,-3.881228 -1.1763,-0.166041 -0.6623,2.187341 -1.5655,2.708525 -0.691,0.398701 -2.3932,0 -2.3932,0 -0.9755,0 -1.0903,-1.237903 -0.2039,-2.124233 1.5482,-1.671159 3.325,-3.374508 4.2905,-4.3615222 0.9706,-0.9919725 2.6616,-0.9639129 3.6131,0 z"
               inkscape:connector-curvature="0"
               style="fill:#ffffff;stroke-width:0.08252645" />
          </g>
        </g>
      </g>
    </g>
  </g>
  <style
     type="text/css"
     id="style26">
	.specularity {opacity:0.5;}
	.low-specularity {opacity:0.25;}
	.full-specularity {opacity:1;}
	.black {fill:#000000;}
	.white {fill:#ffffff;}
	.outline-big {stroke-width:16;stroke:none;opacity:0.1;fill:none;}
	.outline-small {stroke-width:8;stroke:none;opacity:0.2;fill:none;}
	.stroke-highlight {fill:none;stroke:none;opacity:0.2;}
       	.base-shadow 	{fill:black;opacity:75;}
	</style>
  <style
     type="text/css"
     id="style26-7">
	.specularity {opacity:0.5;}
	.low-specularity {opacity:0.25;}
	.full-specularity {opacity:1;}
	.black {fill:#000000;}
	.white {fill:#ffffff;}
	.outline-big {stroke-width:16;stroke:none;opacity:0.1;fill:none;}
	.outline-small {stroke-width:8;stroke:none;opacity:0.2;fill:none;}
	.stroke-highlight {fill:none;stroke:none;opacity:0.2;}
       	.base-shadow 	{fill:black;opacity:75;}
	</style>
</svg>
