<?xml version="1.0" encoding="UTF-8" standalone="no"?>
<!-- Created with Inkscape (http://www.inkscape.org/) -->

<svg
   xmlns:dc="http://purl.org/dc/elements/1.1/"
   xmlns:cc="http://creativecommons.org/ns#"
   xmlns:rdf="http://www.w3.org/1999/02/22-rdf-syntax-ns#"
   xmlns:svg="http://www.w3.org/2000/svg"
   xmlns="http://www.w3.org/2000/svg"
   xmlns:xlink="http://www.w3.org/1999/xlink"
   xmlns:sodipodi="http://sodipodi.sourceforge.net/DTD/sodipodi-0.dtd"
   xmlns:inkscape="http://www.inkscape.org/namespaces/inkscape"
   width="42.468742"
   version="1.1"
   height="48"
   id="svg44"
   sodipodi:docname="muondiscover.svg"
   inkscape:version="0.92.2 (unknown)">
  <sodipodi:namedview
     pagecolor="#ffffff"
     bordercolor="#666666"
     borderopacity="1"
     objecttolerance="10"
     gridtolerance="10"
     guidetolerance="10"
     inkscape:pageopacity="0"
     inkscape:pageshadow="2"
     inkscape:window-width="1872"
     inkscape:window-height="1050"
     id="namedview46"
     showgrid="false"
     fit-margin-top="0"
     fit-margin-left="0"
     fit-margin-right="0"
     fit-margin-bottom="0"
     inkscape:zoom="1.7383042"
     inkscape:cx="161.80933"
     inkscape:cy="15.014382"
     inkscape:window-x="48"
     inkscape:window-y="0"
     inkscape:window-maximized="1"
     inkscape:current-layer="layer1" />
  <defs
     id="defs5455">
    <linearGradient
       inkscape:collect="always"
       id="linearGradient4438">
      <stop
         style="stop-opacity:0"
         id="stop4440" />
      <stop
         offset="1"
         id="stop4442" />
    </linearGradient>
    <linearGradient
       inkscape:collect="always"
       xlink:href="#linearGradient4438"
       id="linearGradient4444"
       y1="1049.3622"
       y2="1033.3622"
       x2="0"
       gradientUnits="userSpaceOnUse"
       gradientTransform="translate(0,-2.00004)" />
  </defs>
  <metadata
     id="metadata5458">
    <rdf:RDF>
      <cc:Work
         rdf:about="">
        <dc:format>image/svg+xml</dc:format>
        <dc:type
           rdf:resource="http://purl.org/dc/dcmitype/StillImage" />
        <dc:title></dc:title>
      </cc:Work>
    </rdf:RDF>
  </metadata>
  <g
     inkscape:label="Capa 1"
     inkscape:groupmode="layer"
     id="layer1"
     transform="translate(-233.55235,-552.23866)">
    <g
       transform="matrix(0.9794863,0,0,0.9794863,687.90805,214.96873)"
       id="g21607">
      <path
         inkscape:transform-center-y="6.0573562e-06"
         transform="matrix(0,1.4766604,-1.4766604,0,-311.16051,604.9304)"
         d="m -151.59588,103.09044 c -0.71776,0.41441 -15.85833,0.41441 -16.5761,0 -0.71776,-0.4144 -8.28804,-13.526513 -8.28804,-14.355318 0,-0.828805 7.57028,-13.940919 8.28805,-14.355321 0.71776,-0.414403 15.85833,-0.414402 16.57609,10e-7 0.71777,0.414402 8.28805,13.526517 8.28805,14.355321 0,0.828805 -7.57028,13.940917 -8.28805,14.355317 z"
         inkscape:randomized="0"
         inkscape:rounded="0.05"
         inkscape:flatsided="true"
         sodipodi:arg2="1.5707963"
         sodipodi:arg1="1.0471976"
         sodipodi:r2="14.355322"
         sodipodi:r1="16.576097"
         sodipodi:cy="88.735123"
         sodipodi:cx="-159.88393"
         sodipodi:sides="6"
         id="path1641"
         style="opacity:1;fill:#648da1;fill-opacity:1;stroke:none;stroke-width:0.70799464;stroke-linecap:round;stroke-linejoin:bevel;stroke-miterlimit:4;stroke-dasharray:none;stroke-dashoffset:0;stroke-opacity:1;paint-order:stroke markers fill"
         sodipodi:type="star" />
      <path
         style="opacity:1;fill:#82d2d6;fill-opacity:1;stroke:none;stroke-width:1.77947485;stroke-linecap:round;stroke-linejoin:bevel;stroke-miterlimit:4;stroke-dasharray:none;stroke-dashoffset:0;stroke-opacity:1;paint-order:stroke markers fill"
         d="m -445.75354,346.02745 c -5.94355,3.15489 -17.1727,9.76632 -17.63665,10.56989 -0.61193,1.0599 -0.61193,23.41769 0,24.47758 0.46395,0.80357 11.6931,7.41498 17.63665,10.5699 z"
         id="path1643"
         inkscape:connector-curvature="0" />
      <path
         style="opacity:1;fill:#f6f7f1;fill-opacity:1;stroke:none;stroke-width:1.7928164;stroke-linecap:round;stroke-linejoin:bevel;stroke-miterlimit:4;stroke-dasharray:none;stroke-dashoffset:0;stroke-opacity:1;paint-order:stroke markers fill"
         d="m -438.07081,346.32717 9.39271,39.69472 c 4.01545,-2.37035 7.43273,-4.51215 7.68379,-4.94697 0.61193,-1.05989 0.61193,-23.41768 0,-24.47758 -0.44987,-0.77917 -11.01574,-7.01529 -17.0765,-10.27017 z"
         id="path1645"
         inkscape:connector-curvature="0" />
      <path
         inkscape:connector-curvature="0"
         id="path1647"
         transform="matrix(0.22275127,0,0,0.22275127,-1088.9254,447.24849)"
         d="m 2903.3887,-462.01758 c -5.5,0 -92.5137,50.23693 -95.2637,55 -2.75,4.76312 -2.75,105.23693 0,110 2.75,4.76312 89.7637,55 95.2637,55 5.5,0 92.5098,-50.23688 95.2597,-55 2.75,-4.76307 2.75,-105.23688 0,-110 -2.7499,-4.76311 -89.7597,-55 -95.2597,-55 z m 0,3.41211 c 5.3293,0 89.6419,48.6776 92.3066,53.29297 2.6646,4.61537 2.6646,101.97447 0,106.58984 -2.6647,4.61538 -86.9773,53.29297 -92.3066,53.29297 -3.1648,0 -34.1348,-17.14784 -59.3672,-32.05859 h 102.9902 c 6.239,0 11.2617,-5.0227 11.2617,-11.26172 v -92.28906 c 0,-6.23902 -5.0227,-11.26172 -11.2617,-11.26172 h -27.0488 v -9.8086 c 0,-16.96138 -13.6557,-30.61523 -30.6172,-30.61523 -16.9614,0 -30.6152,13.65385 -30.6152,30.61523 v 9.8086 h -26.9688 c -6.239,0 -11.2617,5.0227 -11.2617,11.26172 v 89.17968 c -5.3703,-3.46406 -8.9096,-5.97947 -9.4199,-6.86328 -2.6647,-4.61537 -2.6647,-101.97447 0,-106.58984 2.6647,-4.61537 86.9792,-53.29297 92.3086,-53.29297 z m -14.043,29.70703 c 14.8412,0 26.7891,11.94789 26.7891,26.78906 v 9.8086 h -53.5782 v -9.8086 c 0,-14.84117 11.9479,-26.78906 26.7891,-26.78906 z"
         style="opacity:0.5;fill:#1a1a1a;fill-opacity:1;stroke:none;stroke-width:4.6982584;stroke-linecap:round;stroke-linejoin:bevel;stroke-miterlimit:4;stroke-dasharray:none;stroke-dashoffset:0;stroke-opacity:1;paint-order:stroke markers fill" />
      <g
         id="g1659"
         transform="matrix(0.85247689,0,0,0.85247689,-790.48864,-82.037577)">
        <rect
           style="fill:#01a6ca;fill-opacity:1"
           id="rect1651"
           height="30"
           rx="0"
           y="513.79999"
           x="390.57001"
           width="36"
           ry="2.9426901" />
        <path
           style="fill:#e1c487;fill-opacity:1"
           id="path1653"
           d="m 401.07143,514.798 a 1.5,1.5 0 0 1 1.5,1.5 1.5,1.5 0 0 1 -1.5,1.5 1.5,1.5 0 0 1 -1.5,-1.5 1.5,1.5 0 0 1 1.5,-1.5 m 0,1 a 0.5,0.5 0 0 0 -0.5,0.5 0.5,0.5 0 0 0 0.5,0.5 0.5,0.5 0 0 0 0.5,-0.5 0.5,0.5 0 0 0 -0.5,-0.5"
           inkscape:connector-curvature="0" />
        <path
           style="fill:#e1c487;fill-opacity:1"
           id="path1655"
           transform="translate(384.57,499.8)"
           d="M 31.5,15 A 1.5,1.5 0 0 0 30,16.5 1.5,1.5 0 0 0 31.5,18 1.5,1.5 0 0 0 33,16.5 1.5,1.5 0 0 0 31.5,15 m 0,1 A 0.5,0.5 0 0 1 32,16.5 0.5,0.5 0 0 1 31.5,17 0.5,0.5 0 0 1 31,16.5 0.5,0.5 0 0 1 31.5,16"
           inkscape:connector-curvature="0" />
        <path
           style="fill:#fbf2db;fill-opacity:1"
           id="path1657"
           transform="translate(397.57,519.8)"
           d="M 7,3 C 6.446,3 6,3.446 6,4 6,4.554 6.446,5 7,5 7.554,5 8,4.554 8,4 8,3.446 7.554,3 7,3 m 7,0 -2,2 3,3 -3,3 2,2 5,-5 z M 4.5,9 C 3.669,9 3,9.669 3,10.5 3,11.331 3.669,12 4.5,12 5.331,12 6,11.331 6,10.5 6,9.669 5.331,9 4.5,9 M 9,15 c -1.108,0 -2,0.892 -2,2 0,1.108 0.892,2 2,2 1.108,0 2,-0.892 2,-2 0,-1.108 -0.892,-2 -2,-2"
           inkscape:connector-curvature="0" />
      </g>
      <path
         inkscape:connector-curvature="0"
         d="m -449.02117,358.04241 v -4.26238 c 0,-3.77818 3.04163,-6.81982 6.81981,-6.81982 3.77819,0 6.81982,3.04164 6.81982,6.81982 v 4.26238 h -0.85248 v -4.26238 c 0,-3.3059 -2.66144,-5.96734 -5.96734,-5.96734 -3.3059,0 -5.96733,2.66144 -5.96733,5.96734 v 4.26238 z"
         id="path1661"
         style="fill:#01a6ca;fill-opacity:1;stroke-width:0.85247684" />
    </g>
  </g>
</svg>
