<?xml version="1.0" encoding="UTF-8" standalone="no"?>
<!-- Created with Inkscape (http://www.inkscape.org/) -->

<svg
   xmlns:dc="http://purl.org/dc/elements/1.1/"
   xmlns:cc="http://creativecommons.org/ns#"
   xmlns:rdf="http://www.w3.org/1999/02/22-rdf-syntax-ns#"
   xmlns:svg="http://www.w3.org/2000/svg"
   xmlns="http://www.w3.org/2000/svg"
   xmlns:xlink="http://www.w3.org/1999/xlink"
   xmlns:sodipodi="http://sodipodi.sourceforge.net/DTD/sodipodi-0.dtd"
   xmlns:inkscape="http://www.inkscape.org/namespaces/inkscape"
   width="42.565495"
   height="48"
   id="svg5453"
   version="1.1"
   inkscape:version="0.92.2 (unknown)"
   sodipodi:docname="telegram.svg">
  <defs
     id="defs5455">
    <linearGradient
       inkscape:collect="always"
       id="linearGradient6082">
      <stop
         style="stop-color:#01bcf7;stop-opacity:1;"
         offset="0"
         id="stop6078" />
      <stop
         style="stop-color:#01ade3;stop-opacity:1"
         offset="1"
         id="stop6080" />
    </linearGradient>
    <linearGradient
       inkscape:collect="always"
       id="linearGradient6090">
      <stop
         style="stop-color:#b1e3e7;stop-opacity:1;"
         offset="0"
         id="stop6086" />
      <stop
         style="stop-color:#a2dee2;stop-opacity:1"
         offset="1"
         id="stop6088" />
    </linearGradient>
    <linearGradient
       y2="174.70815"
       x2="146.52715"
       y1="131.02763"
       x1="123.64119"
       id="w-3-6"
       gradientTransform="matrix(1.0919081,0,0,0.91582798,1246.9727,705.59156)"
       gradientUnits="userSpaceOnUse">
      <stop
         id="stop5889-7"
         offset="0"
         stop-color="#eff7fc" />
      <stop
         id="stop5891-5"
         offset="1"
         stop-color="#fff" />
    </linearGradient>
    <linearGradient
       inkscape:collect="always"
       xlink:href="#w-3-6"
       id="linearGradient6037"
       gradientUnits="userSpaceOnUse"
       gradientTransform="matrix(0.20997935,0,0,0.17611827,-1140.6452,-0.44220876)"
       x1="123.64119"
       y1="131.02763"
       x2="146.52715"
       y2="174.70815" />
    <linearGradient
       inkscape:collect="always"
       xlink:href="#linearGradient6090"
       id="linearGradient6235"
       gradientUnits="userSpaceOnUse"
       x1="-507.38922"
       y1="224.10896"
       x2="-506.92151"
       y2="237.35434"
       gradientTransform="matrix(0.98049746,0,0,0.98049746,405.24456,452.79398)" />
    <linearGradient
       inkscape:collect="always"
       xlink:href="#linearGradient6082"
       id="linearGradient6233"
       gradientUnits="userSpaceOnUse"
       x1="-506.89389"
       y1="187.98697"
       x2="-506.89389"
       y2="203.82269"
       gradientTransform="matrix(0.98049746,0,0,0.98049746,405.24456,452.79398)" />
  </defs>
  <sodipodi:namedview
     id="base"
     pagecolor="#ffffff"
     bordercolor="#666666"
     borderopacity="1.0"
     inkscape:pageopacity="0"
     inkscape:pageshadow="2"
     inkscape:zoom="2.8591284"
     inkscape:cx="42.34806"
     inkscape:cy="-4.8900646"
     inkscape:document-units="px"
     inkscape:current-layer="layer1"
     showgrid="false"
     fit-margin-top="0"
     fit-margin-left="0"
     fit-margin-right="0"
     fit-margin-bottom="0"
     inkscape:window-width="1280"
     inkscape:window-height="994"
     inkscape:window-x="1920"
     inkscape:window-y="0"
     inkscape:window-maximized="1"
     inkscape:showpageshadow="true"
     borderlayer="true"
     showguides="false"
     showborder="true"
     inkscape:pagecheckerboard="false">
    <inkscape:grid
       type="xygrid"
       id="grid4063"
       originx="223.79415"
       originy="53.960804" />
    <sodipodi:guide
       position="223.79416,101.9608"
       orientation="4,0"
       id="guide4146"
       inkscape:locked="false" />
    <sodipodi:guide
       position="223.79416,97.9608"
       orientation="0,48"
       id="guide4148"
       inkscape:locked="false" />
    <sodipodi:guide
       position="271.79416,97.9608"
       orientation="-4,0"
       id="guide4150"
       inkscape:locked="false" />
    <sodipodi:guide
       position="271.79416,101.9608"
       orientation="0,-48"
       id="guide4152"
       inkscape:locked="false" />
    <sodipodi:guide
       position="223.79416,57.96083"
       orientation="4,0"
       id="guide4154"
       inkscape:locked="false" />
    <sodipodi:guide
       position="223.79416,53.96083"
       orientation="0,48"
       id="guide4156"
       inkscape:locked="false" />
    <sodipodi:guide
       position="271.79416,53.96083"
       orientation="-4,0"
       id="guide4158"
       inkscape:locked="false" />
    <sodipodi:guide
       position="271.79416,57.96083"
       orientation="0,-48"
       id="guide4160"
       inkscape:locked="false" />
    <sodipodi:guide
       position="271.79416,101.96083"
       orientation="0,-4"
       id="guide4162"
       inkscape:locked="false" />
    <sodipodi:guide
       position="267.79416,101.96083"
       orientation="48,0"
       id="guide4164"
       inkscape:locked="false" />
    <sodipodi:guide
       position="267.79416,53.96083"
       orientation="0,4"
       id="guide4166"
       inkscape:locked="false" />
    <sodipodi:guide
       position="271.79416,53.96083"
       orientation="-48,0"
       id="guide4168"
       inkscape:locked="false" />
    <sodipodi:guide
       position="227.79419,101.96083"
       orientation="0,-4"
       id="guide4170"
       inkscape:locked="false" />
    <sodipodi:guide
       position="223.79419,101.96083"
       orientation="48,0"
       id="guide4172"
       inkscape:locked="false" />
    <sodipodi:guide
       position="223.79419,53.96083"
       orientation="0,4"
       id="guide4174"
       inkscape:locked="false" />
    <sodipodi:guide
       position="227.79419,53.96083"
       orientation="-48,0"
       id="guide4176"
       inkscape:locked="false" />
    <sodipodi:guide
       position="227.79416,101.9608"
       orientation="43.999969,0"
       id="guide4638"
       inkscape:locked="false" />
    <sodipodi:guide
       position="227.79416,57.96083"
       orientation="0,20"
       id="guide4640"
       inkscape:locked="false" />
    <sodipodi:guide
       position="247.79416,57.96083"
       orientation="-43.999969,0"
       id="guide4642"
       inkscape:locked="false" />
    <sodipodi:guide
       position="247.79416,101.9608"
       orientation="0,-20"
       id="guide4644"
       inkscape:locked="false" />
    <sodipodi:guide
       position="227.79419,77.96083"
       orientation="20,0"
       id="guide4666"
       inkscape:locked="false" />
    <sodipodi:guide
       position="227.79419,57.96083"
       orientation="0,39.999969"
       id="guide4668"
       inkscape:locked="false" />
    <sodipodi:guide
       position="267.79416,57.96083"
       orientation="-20,0"
       id="guide4670"
       inkscape:locked="false" />
    <sodipodi:guide
       position="267.79416,77.96083"
       orientation="0,-39.999969"
       id="guide4672"
       inkscape:locked="false" />
  </sodipodi:namedview>
  <metadata
     id="metadata5458">
    <rdf:RDF>
      <cc:Work
         rdf:about="">
        <dc:format>image/svg+xml</dc:format>
        <dc:type
           rdf:resource="http://purl.org/dc/dcmitype/StillImage" />
        <dc:title></dc:title>
      </cc:Work>
    </rdf:RDF>
  </metadata>
  <g
     inkscape:label="Capa 1"
     inkscape:groupmode="layer"
     id="layer1"
     transform="translate(-160.77728,-553.7588)">
    <g
       id="g938"
       transform="translate(273.81688,-83.62316)">
      <path
         inkscape:transform-center-y="3.8015569e-06"
         transform="matrix(0,1.4478618,-1.4478618,0,36.719767,892.87171)"
         d="m -151.59588,103.09044 c -0.71776,0.41441 -15.85833,0.41441 -16.5761,0 -0.71776,-0.4144 -8.28804,-13.526513 -8.28804,-14.355318 0,-0.828805 7.57028,-13.940919 8.28805,-14.355321 0.71776,-0.414403 15.85833,-0.414402 16.57609,10e-7 0.71777,0.414402 8.28805,13.526517 8.28805,14.355321 0,0.828805 -7.57028,13.940917 -8.28805,14.355317 z"
         inkscape:randomized="0"
         inkscape:rounded="0.05"
         inkscape:flatsided="true"
         sodipodi:arg2="1.5707963"
         sodipodi:arg1="1.0471976"
         sodipodi:r2="14.355322"
         sodipodi:r1="16.576097"
         sodipodi:cy="88.735123"
         sodipodi:cx="-159.88393"
         sodipodi:sides="6"
         id="path6019"
         style="opacity:1;fill:#019ecf;fill-opacity:1;stroke:none;stroke-width:0.70799464;stroke-linecap:round;stroke-linejoin:bevel;stroke-miterlimit:4;stroke-dasharray:none;stroke-dashoffset:0;stroke-opacity:1;paint-order:stroke markers fill"
         sodipodi:type="star" />
      <path
         id="path6021"
         d="m -91.756678,637.38196 c -1.199932,0 -20.184322,10.96089 -20.784392,12.00012 -0.33376,0.57823 -0.48103,7.61944 -0.44338,13.93316 l 37.000839,-17.27718 c -5.889555,-3.57149 -14.955529,-8.6561 -15.773067,-8.6561 z"
         style="opacity:1;fill:url(#linearGradient6233);fill-opacity:1;stroke:none;stroke-width:1.0250783;stroke-linecap:round;stroke-linejoin:bevel;stroke-miterlimit:4;stroke-dasharray:none;stroke-dashoffset:0;stroke-opacity:1;paint-order:stroke markers fill"
         inkscape:connector-curvature="0" />
      <path
         id="path6023"
         d="m -70.625389,669.01123 -40.066171,5.73804 c 4.90298,3.20074 17.946049,10.63269 18.934882,10.63269 1.20003,0 20.184912,-10.9609 20.78488,-12.00013 0.156977,-0.27182 0.271499,-1.98888 0.346409,-4.3706 z"
         style="opacity:1;fill:url(#linearGradient6235);fill-opacity:1;stroke:none;stroke-width:1.0250783;stroke-linecap:round;stroke-linejoin:bevel;stroke-miterlimit:4;stroke-dasharray:none;stroke-dashoffset:0;stroke-opacity:1;paint-order:stroke markers fill"
         inkscape:connector-curvature="0" />
      <path
         id="path13580"
         d="m -91.755352,637.39305 c -0.264288,0 -0.381414,0.0687 -0.600425,0.15468 -0.219013,0.086 -0.485858,0.2065 -0.802841,0.3571 -0.633967,0.30118 -1.4623,0.7272 -2.424288,1.24006 -1.923977,1.02569 -4.379846,2.39842 -6.816054,3.80497 -2.4362,1.40655 -4.85199,2.84551 -6.70227,3.99887 -0.92514,0.57668 -1.70841,1.08196 -2.28622,1.48039 -0.28892,0.19922 -0.52427,0.3711 -0.70824,0.51776 -0.18398,0.14667 -0.30252,0.21089 -0.43466,0.43977 -0.13215,0.22889 -0.13072,0.3652 -0.16576,0.59787 -0.035,0.23266 -0.0661,0.52463 -0.0942,0.87443 -0.0561,0.69963 -0.10166,1.62837 -0.1385,2.7179 -0.0737,2.17907 -0.11079,4.99075 -0.11079,7.80383 0,2.8131 0.0371,5.62775 0.11079,7.80682 0.0368,1.08953 0.0824,2.01785 0.1385,2.71747 0.0281,0.34981 0.0591,0.64176 0.0942,0.87443 0.035,0.23266 0.0336,0.369 0.16576,0.59787 0.13214,0.22889 0.25068,0.29352 0.43466,0.4402 0.18397,0.14668 0.41932,0.31811 0.70824,0.51733 0.57781,0.39845 1.36108,0.90372 2.28622,1.4804 1.85028,1.15336 4.26607,2.58976 6.70227,3.9963 2.436208,1.40654 4.892077,2.78225 6.816054,3.80796 0.961988,0.51285 1.790321,0.93844 2.424288,1.23963 0.316983,0.15059 0.583828,0.26855 0.802841,0.35454 0.219011,0.086 0.336137,0.15766 0.600425,0.15767 0.264288,0 0.378858,-0.0717 0.597871,-0.15767 0.219011,-0.086 0.485432,-0.20395 0.802413,-0.35454 0.633969,-0.30119 1.462301,-0.72678 2.42429,-1.23963 1.923977,-1.02571 4.379844,-2.40142 6.816051,-3.80796 2.436203,-1.40654 4.852418,-2.84294 6.702697,-3.9963 0.925139,-0.57668 1.707975,-1.08195 2.285795,-1.4804 0.28891,-0.19922 0.527245,-0.37065 0.711222,-0.51733 0.183975,-0.14668 0.302088,-0.21131 0.434232,-0.4402 0.132146,-0.22887 0.128601,-0.36521 0.163636,-0.59787 0.03504,-0.23267 0.06568,-0.52462 0.09375,-0.87443 0.05615,-0.69962 0.101644,-1.62794 0.138495,-2.71747 0.0737,-2.17907 0.110795,-4.99372 0.110795,-7.80682 0,-2.81308 -0.0371,-5.62476 -0.110795,-7.80383 -0.03685,-1.08953 -0.08235,-2.01827 -0.138495,-2.7179 -0.02807,-0.3498 -0.05872,-0.64177 -0.09375,-0.87443 -0.03504,-0.23267 -0.03149,-0.36898 -0.163636,-0.59787 -0.132144,-0.22888 -0.250257,-0.2931 -0.434232,-0.43977 -0.183977,-0.14666 -0.422312,-0.31854 -0.711222,-0.51776 -0.57782,-0.39843 -1.360656,-0.90371 -2.285795,-1.48039 -1.850279,-1.15336 -4.266494,-2.59232 -6.702697,-3.99887 -2.436204,-1.40655 -4.892074,-2.77928 -6.816051,-3.80497 -0.961987,-0.51286 -1.790321,-0.93888 -2.42429,-1.24006 -0.316981,-0.1506 -0.583402,-0.27111 -0.802413,-0.3571 -0.219013,-0.086 -0.333583,-0.15468 -0.597871,-0.15468 z m 0,1.01931 c 0.04864,0.0122 0.136883,0.0333 0.232246,0.0707 0.182437,0.0717 0.434359,0.18216 0.738921,0.32685 0.60912,0.28938 1.428883,0.71181 2.382953,1.22045 1.908143,1.01727 4.356732,2.38619 6.785368,3.78835 2.428636,1.40219 4.837393,2.83838 6.672442,3.98225 0.917526,0.57193 1.691842,1.0703 2.247017,1.45312 0.277588,0.19141 0.502571,0.35382 0.655824,0.476 0.07969,0.0635 0.142562,0.12992 0.177698,0.16662 0.0135,0.0477 0.03958,0.13514 0.05497,0.23736 0.02918,0.19382 0.0557,0.46929 0.08267,0.80539 0.05395,0.67221 0.101948,1.5926 0.138495,2.67315 0.07309,2.16114 0.107812,4.96371 0.107812,7.76804 0,2.80436 -0.03472,5.60989 -0.107812,7.77103 -0.03655,1.08055 -0.08455,2.00094 -0.138495,2.67315 -0.02697,0.3361 -0.05349,0.61158 -0.08267,0.8054 -0.01501,0.0997 -0.04032,0.18665 -0.05412,0.23522 -0.03488,0.0357 -0.09801,0.10156 -0.178551,0.16577 -0.153253,0.12218 -0.378236,0.28757 -0.655824,0.47898 -0.555175,0.38282 -1.329491,0.88076 -2.247017,1.45269 -1.835049,1.14387 -4.243806,2.57751 -6.672442,3.97969 -1.633272,0.94297 -3.26194,1.86262 -4.742897,2.67955 l 4.740768,-22.34148 c 0.421666,-1.69042 -0.36547,-2.63016 -1.404546,-2.59218 -0.239788,0.009 -0.493001,0.0697 -0.74787,0.18537 l -28.195308,10.87158 c -0.046,-1.90968 -0.069,-4.1297 -0.069,-6.36477 10e-6,-2.80433 0.0347,-5.6069 0.10781,-7.76804 0.0365,-1.08055 0.0846,-2.00094 0.1385,-2.67315 0.027,-0.3361 0.0565,-0.61157 0.0857,-0.80539 0.0154,-0.10222 0.0415,-0.18964 0.055,-0.23736 0.0351,-0.0367 0.098,-0.10308 0.1777,-0.16662 0.15325,-0.12218 0.37526,-0.28459 0.65284,-0.476 0.55517,-0.38282 1.32949,-0.88119 2.24702,-1.45312 1.83504,-1.14387 4.24636,-2.58006 6.675,-3.98225 2.428628,-1.40216 4.874662,-2.7711 6.782806,-3.78835 0.954071,-0.50864 1.773833,-0.93107 2.382953,-1.22045 0.304562,-0.14469 0.559038,-0.25522 0.741477,-0.32685 0.09536,-0.0375 0.184034,-0.0585 0.232669,-0.0707 z m -20.056528,33.04389 5.54489,1.73054 1.18124,3.88721 c -1.27206,-0.75505 -2.47018,-1.4788 -3.48451,-2.11108 -0.91753,-0.57193 -1.69185,-1.06987 -2.24702,-1.45269 -0.27758,-0.19141 -0.49959,-0.3568 -0.65284,-0.47898 -0.0805,-0.0642 -0.14367,-0.1301 -0.17855,-0.16577 -0.0138,-0.0486 -0.0391,-0.13549 -0.0541,-0.23522 -0.0292,-0.19382 -0.0587,-0.4693 -0.0857,-0.8054 -0.008,-0.10469 -0.0154,-0.25221 -0.0234,-0.36861 z m 14.60369,7.32443 6.767896,5.00028 c -0.109324,0.0535 -0.245277,0.12361 -0.343891,0.17046 -0.304562,0.14469 -0.556484,0.25778 -0.738921,0.3294 -0.09536,0.0374 -0.183609,0.0589 -0.232246,0.0712 -0.04864,-0.0122 -0.137306,-0.0337 -0.232669,-0.0712 -0.182439,-0.0716 -0.436915,-0.18471 -0.741477,-0.3294 -0.60912,-0.28938 -1.428882,-0.70885 -2.382953,-1.21747 -1.152452,-0.6144 -2.509837,-1.36526 -3.932387,-2.16691 z"
         style="opacity:0.5;fill:#1a1a1a;stroke-width:0.25748566"
         inkscape:connector-curvature="0" />
      <g
         id="g13352"
         transform="matrix(1.3389444,0,0,1.3389444,1405.2355,629.36417)">
        <g
           id="g13357">
          <path
             style="fill:#c8daea;stroke-width:0.19230497"
             inkscape:connector-curvature="0"
             d="m -1121.7994,33.211158 c -0.7476,0 -0.6206,-0.282282 -0.8784,-0.994121 l -2.1984,-7.235399 16.9228,-10.039455"
             id="path6027" />
          <path
             style="fill:#a9c9dd;stroke-width:0.19230497"
             inkscape:connector-curvature="0"
             d="m -1121.7994,33.211158 c 0.5769,0 0.8319,-0.263839 1.1538,-0.576914 l 3.077,-2.991881 -3.8381,-2.314389"
             id="path6029" />
          <path
             inkscape:connector-curvature="0"
             d="m -1121.4071,27.328546 9.2999,6.870863 c 1.0612,0.585555 1.8272,0.282384 2.0915,-0.985269 l 3.7855,-17.838791 c 0.3876,-1.553858 -0.5923,-2.258617 -1.6075,-1.797703 l -22.2286,8.571229 c -1.5173,0.608585 -1.5084,1.45509 -0.2765,1.832282 l 5.7043,1.780415 13.2062,-8.331612 c 0.6234,-0.37805 1.1956,-0.17481 0.726,0.241991"
             id="path6031"
             style="fill:url(#linearGradient6037);stroke-width:0.19230497" />
        </g>
      </g>
    </g>
  </g>
</svg>
