<?xml version="1.0" encoding="UTF-8" standalone="no"?>
<!-- Created with Inkscape (http://www.inkscape.org/) -->

<svg
   xmlns:dc="http://purl.org/dc/elements/1.1/"
   xmlns:cc="http://creativecommons.org/ns#"
   xmlns:rdf="http://www.w3.org/1999/02/22-rdf-syntax-ns#"
   xmlns:svg="http://www.w3.org/2000/svg"
   xmlns="http://www.w3.org/2000/svg"
   xmlns:xlink="http://www.w3.org/1999/xlink"
   xmlns:sodipodi="http://sodipodi.sourceforge.net/DTD/sodipodi-0.dtd"
   xmlns:inkscape="http://www.inkscape.org/namespaces/inkscape"
   width="32"
   height="32"
   id="svg5453"
   version="1.1"
   inkscape:version="0.92.2 (unknown)"
   sodipodi:docname="applications-education-language.svg">
  <defs
     id="defs5455">
    <linearGradient
       gradientUnits="userSpaceOnUse"
       y2="503.798"
       x2="384.57144"
       y1="543.79797"
       x1="434.57144"
       id="linearGradient4586"
       xlink:href="#linearGradient4273"
       inkscape:collect="always"
       gradientTransform="translate(-1.1547241e-5,-1.6784668e-7)" />
    <linearGradient
       inkscape:collect="always"
       id="linearGradient4273">
      <stop
         style="stop-color:#343b40;stop-opacity:1"
         offset="0"
         id="stop4275" />
      <stop
         style="stop-color:#555e63;stop-opacity:1"
         offset="1"
         id="stop4277" />
    </linearGradient>
  </defs>
  <sodipodi:namedview
     id="base"
     pagecolor="#ffffff"
     bordercolor="#666666"
     borderopacity="1.0"
     inkscape:pageopacity="0"
     inkscape:pageshadow="2"
     inkscape:zoom="9.8399997"
     inkscape:cx="36.513625"
     inkscape:cy="3.6058582"
     inkscape:document-units="px"
     inkscape:current-layer="layer1"
     showgrid="false"
     fit-margin-top="0"
     fit-margin-left="0"
     fit-margin-right="0"
     fit-margin-bottom="0"
     inkscape:window-width="1868"
     inkscape:window-height="1050"
     inkscape:window-x="52"
     inkscape:window-y="0"
     inkscape:window-maximized="1"
     inkscape:showpageshadow="false"
     borderlayer="true"
     showguides="false"
     inkscape:snap-bbox="true"
     inkscape:snap-global="true"
     inkscape:snap-grids="false">
    <inkscape:grid
       type="xygrid"
       id="grid4063" />
    <sodipodi:guide
       position="4.2167969e-05,32.000026"
       orientation="32,0"
       id="guide4625"
       inkscape:locked="false" />
    <sodipodi:guide
       position="4.2167969e-05,2.6367188e-05"
       orientation="0,31.999969"
       id="guide4627"
       inkscape:locked="false" />
    <sodipodi:guide
       position="32.000012,2.6367188e-05"
       orientation="-32,0"
       id="guide4629"
       inkscape:locked="false" />
    <sodipodi:guide
       position="32.000012,32.000026"
       orientation="0,-31.999969"
       id="guide4631"
       inkscape:locked="false" />
    <sodipodi:guide
       position="2.0000422,30.000026"
       orientation="28,0"
       id="guide4633"
       inkscape:locked="false" />
    <sodipodi:guide
       position="2.0000422,2.0000264"
       orientation="0,27.999969"
       id="guide4635"
       inkscape:locked="false" />
    <sodipodi:guide
       position="30,17"
       orientation="-28,0"
       id="guide4637"
       inkscape:locked="false" />
    <sodipodi:guide
       position="30.000012,30.000026"
       orientation="0,-27.999969"
       id="guide4639"
       inkscape:locked="false" />
    <sodipodi:guide
       position="9.0000117,24.000271"
       orientation="14,0"
       id="guide4429"
       inkscape:locked="false" />
    <sodipodi:guide
       position="9.0000117,10.000271"
       orientation="0,14.000031"
       id="guide4431"
       inkscape:locked="false" />
    <sodipodi:guide
       position="23.000042,10.000271"
       orientation="-14,0"
       id="guide4433"
       inkscape:locked="false" />
    <sodipodi:guide
       position="23.000042,24.000271"
       orientation="0,-14.000031"
       id="guide4435"
       inkscape:locked="false" />
  </sodipodi:namedview>
  <metadata
     id="metadata5458">
    <rdf:RDF>
      <cc:Work
         rdf:about="">
        <dc:format>image/svg+xml</dc:format>
        <dc:type
           rdf:resource="http://purl.org/dc/dcmitype/StillImage" />
        <dc:title />
      </cc:Work>
    </rdf:RDF>
  </metadata>
  <g
     inkscape:label="Capa 1"
     inkscape:groupmode="layer"
     id="layer1"
     transform="translate(-384.57143,-515.798)">
    <g
       id="g3045"
       transform="translate(2242.1336,818.97339)">
      <path
         inkscape:transform-center-x="-9.2692787e-05"
         sodipodi:type="star"
         style="opacity:1;fill:#7b7f84;fill-opacity:1;stroke:#4e4036;stroke-width:0.70799464;stroke-linecap:round;stroke-linejoin:bevel;stroke-miterlimit:4;stroke-dasharray:none;stroke-dashoffset:0;stroke-opacity:1;paint-order:stroke markers fill"
         id="path3017"
         sodipodi:sides="6"
         sodipodi:cx="-159.88393"
         sodipodi:cy="88.735123"
         sodipodi:r1="16.576097"
         sodipodi:r2="14.355322"
         sodipodi:arg1="1.0471976"
         sodipodi:arg2="1.5707963"
         inkscape:flatsided="true"
         inkscape:rounded="0.05"
         inkscape:randomized="0"
         d="m -151.59588,103.09044 c -0.71776,0.41441 -15.85833,0.41441 -16.5761,0 -0.71776,-0.4144 -8.28804,-13.526513 -8.28804,-14.355318 0,-0.828805 7.57028,-13.940919 8.28805,-14.355321 0.71776,-0.414403 15.85833,-0.414402 16.57609,10e-7 0.71777,0.414402 8.28805,13.526517 8.28805,14.355321 0,0.828805 -7.57028,13.940917 -8.28805,14.355317 z"
         transform="matrix(0,0.94506263,-0.94506263,0,-1757.7019,-136.07507)"
         inkscape:transform-center-y="8.6501096e-06" />
      <path
         style="opacity:1;fill:#98725d;fill-opacity:1;stroke:none;stroke-width:9.83399868;stroke-linecap:round;stroke-linejoin:miter;stroke-miterlimit:4;stroke-dasharray:none;stroke-dashoffset:0;stroke-opacity:1;paint-order:markers stroke fill"
         d="m -6960.2344,-1144.5957 c -2.9604,0 -49.7952,27.0397 -51.2754,29.6035 -1.4802,2.5638 -1.4802,56.6452 0,59.209 0.3915,0.678 4.0438,3.1129 9.1289,6.2617 l 47.3985,-92.7851 c -2.7807,-1.41 -4.7277,-2.2891 -5.252,-2.2891 z"
         transform="scale(0.26458333)"
         id="path3019"
         inkscape:connector-curvature="0" />
      <path
         style="opacity:1;fill:#f9e5c4;fill-opacity:1;stroke:none;stroke-width:9.83399868;stroke-linecap:round;stroke-linejoin:miter;stroke-miterlimit:4;stroke-dasharray:none;stroke-dashoffset:0;stroke-opacity:1;paint-order:markers stroke fill"
         d="m -6908.3535,-1109.9238 -90.6641,62.4453 c 14.5281,8.8126 36.7637,21.2988 38.7832,21.2988 2.9604,0 49.7952,-27.0397 51.2754,-29.6035 1.2372,-2.1429 1.4365,-40.1816 0.6055,-54.1406 z"
         transform="scale(0.26458333)"
         id="path3021"
         inkscape:connector-curvature="0" />
      <path
         style="opacity:0.3;fill:#1a1a1a;fill-opacity:1;stroke:none;stroke-width:14.01269436;stroke-linecap:round;stroke-linejoin:miter;stroke-miterlimit:4;stroke-dasharray:none;stroke-dashoffset:0;stroke-opacity:1;paint-order:markers stroke fill"
         d="m -6996.752,-1111.1738 c -7.0662,0 -12.7558,5.6896 -12.7558,12.7558 v 44.2754 c 4.8306,3.4293 17.6454,11.0664 29.0937,17.541 h 40.3594 c 5.4291,-3.0704 11.0481,-6.3293 16.1289,-9.373 0.294,-1.0777 0.4629,-2.2074 0.4629,-3.3809 v -49.0625 c 0,-7.0662 -5.6876,-12.7558 -12.7539,-12.7558 z"
         transform="scale(0.26458333)"
         id="path3023"
         inkscape:connector-curvature="0" />
      <rect
         ry="3.3747499"
         y="-297.04065"
         x="-1852.9452"
         height="19.730534"
         width="22.766001"
         id="rect3025"
         style="opacity:1;fill:#d8994f;fill-opacity:1;stroke:none;stroke-width:3.70752549;stroke-linecap:round;stroke-linejoin:miter;stroke-miterlimit:4;stroke-dasharray:none;stroke-dashoffset:0;stroke-opacity:1;paint-order:markers stroke fill" />
      <rect
         style="opacity:1;fill:#966b42;fill-opacity:1;stroke:none;stroke-width:3.21318889;stroke-linecap:round;stroke-linejoin:miter;stroke-miterlimit:4;stroke-dasharray:none;stroke-dashoffset:0;stroke-opacity:1;paint-order:markers stroke fill"
         id="rect3027"
         width="19.730534"
         height="17.099798"
         x="-1851.4274"
         y="-295.72528"
         ry="2.9247832" />
      <rect
         ry="2.6997998"
         y="-295.0676"
         x="-1850.6686"
         height="15.784429"
         width="18.212799"
         id="rect3029"
         style="opacity:1;fill:#48383b;fill-opacity:1;stroke:none;stroke-width:2.96602058;stroke-linecap:round;stroke-linejoin:miter;stroke-miterlimit:4;stroke-dasharray:none;stroke-dashoffset:0;stroke-opacity:1;paint-order:markers stroke fill" />
      <g
         transform="matrix(0.71290874,0,0,0.71290874,-2151.0764,-665.84706)"
         id="g3041">
        <path
           style="color:#000000;display:inline;overflow:visible;visibility:visible;fill:#ffffff;fill-opacity:1;fill-rule:nonzero;stroke:#f9f9f9;stroke-width:0.33401892;stroke-linecap:round;stroke-linejoin:round;stroke-miterlimit:4;stroke-dasharray:none;marker:none;enable-background:accumulate"
           d="m 425.60507,532.11452 v 0.95021 0.95022 0.95021 1.90043 h 0.95021 1.90042 v 0.95021 h -4.75106 v 0.95021 h 4.75106 v 1.90043 h 0.95022 v -1.90043 h 4.75106 v -0.95021 h -4.75106 v -0.95021 h 2.85063 v -0.95022 -2.85064 -0.95021 h -0.95021 -4.75106 z m 0.95021,0.95021 h 4.75106 v 0.95022 h -4.75106 z m 0,1.90043 h 4.75106 v 0.95021 h -4.75106 z"
           id="path3031"
           inkscape:connector-curvature="0" />
        <path
           inkscape:connector-curvature="0"
           id="path3033"
           style="font-style:normal;font-variant:normal;font-weight:normal;font-stretch:normal;font-size:12.46857548px;line-height:125%;font-family:Oxygen;-inkscape-font-specification:Oxygen;letter-spacing:0px;word-spacing:0px;fill:#ffffff;fill-opacity:1;stroke:#f9f9f9;stroke-width:0.33401892;stroke-linecap:round;stroke-linejoin:round;stroke-miterlimit:4;stroke-dasharray:none"
           d="m 430.32853,526.4814 c -0.81583,-2.35821 -1.31265,-3.57662 -1.39771,-3.86899 -10e-6,0 -0.42339,1.21841 -1.36293,3.86899 h 2.76064 m 1.32812,3.73267 -1.00334,-2.89596 h -3.42179 l -1.03814,2.89596 h -1.02074 l 3.29419,-8.55189 h 1.02654 l 3.19562,8.55189 h -1.03235"
           sodipodi:nodetypes="ccccccccccccc" />
        <g
           style="font-style:normal;font-weight:normal;font-size:12.34564877px;line-height:125%;font-family:Sans;letter-spacing:0px;word-spacing:0px;fill:#f2f2f2;fill-opacity:1;stroke:none"
           id="g3037"
           transform="translate(38.585546,-0.63365954)">
          <path
             d="m 399.37228,527.04894 v 2.84797 h 2.06273 c 0.62244,0 1.08259,-0.12793 1.38045,-0.38378 0.30168,-0.25967 0.45251,-0.6549 0.45251,-1.1857 0,-0.53462 -0.15083,-0.64267 -0.45251,-0.89472 -0.29786,-0.25584 -0.75801,-0.38377 -1.38045,-0.38378 h -2.06273 m 0,-3.80226 v 2.86287 h 2.10936 c 0.56515,0 1.01742,-0.10501 1.29237,-0.31504 0.27876,-0.21385 0.41814,-0.82368 0.41815,-1.25902 -10e-6,-0.43151 -0.13938,-0.75419 -0.41815,-0.96803 -0.27495,-0.21385 -0.72722,-0.32077 -1.29237,-0.32078 h -2.10936 m -0.95021,-0.95085 h 2.95565 c 0.88211,10e-6 1.56184,0.18331 2.03919,0.54989 0.47732,0.3666 0.71599,0.88785 0.71599,1.56375 0,0.52317 -0.12219,1.22466 -0.36659,1.53396 -0.2444,0.30933 -0.60336,0.50216 -1.07687,0.57853 1.18493,0.29411 1.77189,1.11304 1.79861,1.9315 -10e-6,0.76373 -0.25968,1.35372 -0.77902,1.76996 -0.51935,0.41623 -1.25826,0.62435 -2.21674,0.62435 h -3.07022 v -8.55194"
             style="fill:#ffffff;fill-opacity:1;stroke:#f9f9f9;stroke-width:0.33401892;stroke-linecap:round;stroke-linejoin:round;stroke-miterlimit:4;stroke-dasharray:none"
             id="path3035"
             inkscape:connector-curvature="0"
             sodipodi:nodetypes="ccscscccccsccccccccsscccscc" />
        </g>
        <path
           inkscape:connector-curvature="0"
           style="color:#000000;display:inline;overflow:visible;visibility:visible;fill:#ffffff;fill-opacity:1;fill-rule:nonzero;stroke:#f9f9f9;stroke-width:0.33401892;stroke-linecap:round;stroke-linejoin:round;stroke-miterlimit:4;stroke-dasharray:none;marker:none;enable-background:accumulate"
           d="m 439.85826,532.11452 v 7.6017 h -3.80085 v 0.95022 h 8.55191 v -0.95022 h -3.80085 v -4.75106 h 3.80085 v -0.95021 h -3.80085 v -1.90043 z"
           id="path3039" />
      </g>
      <path
         inkscape:connector-curvature="0"
         style="opacity:0.27099998;fill:#f2f2f2;fill-opacity:1;stroke:none;stroke-width:0.66978753;stroke-linecap:round;stroke-linejoin:bevel;stroke-miterlimit:4;stroke-dasharray:none;stroke-dashoffset:0;stroke-opacity:1;paint-order:stroke markers fill"
         d="m -1841.5622,-302.85708 c -0.784,0 -13.1885,7.16188 -13.5807,7.84092 -0.3919,0.67903 -0.3919,15.00249 0,15.68152 0.3922,0.67904 12.7967,7.84093 13.5807,7.84093 0.7841,0 13.1883,-7.16189 13.5805,-7.84093 0.392,-0.67903 0.392,-15.00249 0,-15.68152 -0.3922,-0.67905 -12.7964,-7.84092 -13.5805,-7.84092 z m 0,0.48649 c 0.7599,0 12.7795,6.93954 13.1594,7.59751 0.3799,0.65798 0.3799,14.53738 0,15.19535 -0.3799,0.65798 -12.3995,7.59751 -13.1594,7.59751 -0.7598,0 -12.7795,-6.93953 -13.1592,-7.59751 -0.38,-0.65797 -0.38,-14.53737 0,-15.19535 0.3797,-0.65797 12.3994,-7.59751 13.1592,-7.59751 z"
         id="path3043" />
    </g>
  </g>
</svg>
