<?xml version="1.0" encoding="UTF-8" standalone="no"?>
<!-- Created with Inkscape (http://www.inkscape.org/) -->

<svg
   xmlns:dc="http://purl.org/dc/elements/1.1/"
   xmlns:cc="http://creativecommons.org/ns#"
   xmlns:rdf="http://www.w3.org/1999/02/22-rdf-syntax-ns#"
   xmlns:svg="http://www.w3.org/2000/svg"
   xmlns="http://www.w3.org/2000/svg"
   xmlns:sodipodi="http://sodipodi.sourceforge.net/DTD/sodipodi-0.dtd"
   xmlns:inkscape="http://www.inkscape.org/namespaces/inkscape"
   width="32"
   version="1.1"
   height="32"
   viewBox="0 0 32 32"
   id="svg31"
   sodipodi:docname="applications-utilities.svg"
   inkscape:version="0.92.2 (unknown)">
  <sodipodi:namedview
     pagecolor="#ffffff"
     bordercolor="#666666"
     borderopacity="1"
     objecttolerance="10"
     gridtolerance="10"
     guidetolerance="10"
     inkscape:pageopacity="0"
     inkscape:pageshadow="2"
     inkscape:window-width="1868"
     inkscape:window-height="1050"
     id="namedview33"
     showgrid="false"
     inkscape:zoom="7.375"
     inkscape:cx="12.901939"
     inkscape:cy="13.511106"
     inkscape:window-x="52"
     inkscape:window-y="0"
     inkscape:window-maximized="1"
     inkscape:current-layer="layer1" />
  <defs
     id="defs5455" />
  <metadata
     id="metadata5458">
    <rdf:RDF>
      <cc:Work
         rdf:about="">
        <dc:format>image/svg+xml</dc:format>
        <dc:type
           rdf:resource="http://purl.org/dc/dcmitype/StillImage" />
      </cc:Work>
    </rdf:RDF>
  </metadata>
  <g
     inkscape:label="Capa 1"
     inkscape:groupmode="layer"
     id="layer1"
     transform="matrix(1 0 0 1 -384.57143 -515.798)">
    <g
       transform="matrix(1.910236,0,0,1.910236,4187.9965,1301.0754)"
       id="g3761">
      <path
         inkscape:transform-center-x="-9.2692787e-05"
         sodipodi:type="star"
         style="opacity:1;fill:#fbf2db;fill-opacity:1;stroke:#4e4036;stroke-width:0.70799464;stroke-linecap:round;stroke-linejoin:bevel;stroke-miterlimit:4;stroke-dasharray:none;stroke-dashoffset:0;stroke-opacity:1;paint-order:stroke markers fill"
         id="path3653"
         sodipodi:sides="6"
         sodipodi:cx="-159.88393"
         sodipodi:cy="88.735123"
         sodipodi:r1="16.576097"
         sodipodi:r2="14.355322"
         sodipodi:arg1="1.0471976"
         sodipodi:arg2="1.5707963"
         inkscape:flatsided="true"
         inkscape:rounded="0.05"
         inkscape:randomized="0"
         d="m -151.59588,103.09044 c -0.71776,0.41441 -15.85833,0.41441 -16.5761,0 -0.71776,-0.4144 -8.28804,-13.526513 -8.28804,-14.355318 0,-0.828805 7.57028,-13.940919 8.28805,-14.355321 0.71776,-0.414403 15.85833,-0.414402 16.57609,10e-7 0.71777,0.414402 8.28805,13.526517 8.28805,14.355321 0,0.828805 -7.57028,13.940917 -8.28805,14.355317 z"
         transform="matrix(0,0.49473606,-0.49473606,0,-1938.7996,-323.61292)"
         inkscape:transform-center-y="8.6501096e-06" />
      <path
         inkscape:connector-curvature="0"
         style="opacity:1;fill:#648da1;fill-opacity:1;stroke:none;stroke-width:1.36208928;stroke-linecap:round;stroke-linejoin:miter;stroke-miterlimit:4;stroke-dasharray:none;stroke-dashoffset:0;stroke-opacity:1;paint-order:markers stroke fill"
         d="m -1982.7001,-410.91407 c -0.41,0 -6.897,3.74522 -7.102,4.10032 -0.084,0.14564 -0.1318,1.50146 -0.1469,3.06314 l 9.8473,-5.83168 c -1.3068,-0.7352 -2.4354,-1.33178 -2.5984,-1.33178 z"
         id="path3655" />
      <path
         inkscape:connector-curvature="0"
         style="opacity:1;fill:#5d656b;fill-opacity:1;stroke:none;stroke-width:1.36208928;stroke-linecap:round;stroke-linejoin:miter;stroke-miterlimit:4;stroke-dasharray:none;stroke-dashoffset:0;stroke-opacity:1;paint-order:markers stroke fill"
         d="m -1975.5141,-406.11175 -14.387,6.51612 c 0.025,0.53805 0.057,0.91094 0.099,0.98281 0.205,0.3551 6.692,4.10033 7.102,4.10033 0.4101,0 6.8971,-3.74523 7.1021,-4.10033 0.01,-0.0102 0.012,-0.028 0.017,-0.05 0,-0.006 0,-0.015 0,-0.0222 0,-0.0168 0.01,-0.036 0.01,-0.0576 0,-0.0202 0.01,-0.0507 0.01,-0.0749 0.01,-0.0567 0.014,-0.12056 0.021,-0.19775 0,-0.0353 0.01,-0.0749 0.01,-0.11416 0.01,-0.0869 0.012,-0.181 0.018,-0.28567 0,-0.0362 0,-0.0719 0.01,-0.1101 0,-0.0732 0.01,-0.15688 0.01,-0.23671 0.01,-0.14854 0.011,-0.3204 0.016,-0.48884 0.01,-0.23898 0.013,-0.49326 0.017,-0.76207 0,-0.16323 0.01,-0.32546 0.01,-0.49614 0,-0.26717 0,-0.54155 0.01,-0.81861 0,-0.17484 0,-0.34775 0,-0.52319 0,-0.28451 0,-0.56054 -0.01,-0.83781 0,-0.31398 -0.01,-0.60904 -0.013,-0.89868 0,-0.24391 -0.01,-0.49029 -0.016,-0.70661 -0.01,-0.30666 -0.021,-0.58663 -0.035,-0.81454 0,-10e-4 10e-5,-0.002 0,-0.003 z"
         id="path3657" />
      <path
         inkscape:connector-curvature="0"
         style="opacity:0.3;fill:#1a1a1a;stroke-width:0.03956009;stroke-linecap:square"
         d="m -1985.2322,-407.35588 c -0.6575,0 -1.1867,0.52929 -1.1867,1.18679 v 1.17758 h -2.118 c -0.045,0 -0.089,0.004 -0.1325,0.009 -0.1392,0.0175 -0.2691,0.0626 -0.3855,0.12877 0,0 0,0.001 0,0.002 -0.01,0.002 -0.01,0.005 -0.011,0.007 0,10e-4 0,10e-4 0,0.002 -0.04,0.0241 -0.08,0.0501 -0.1166,0.0793 -0.01,0.003 -0.01,0.007 -0.012,0.0105 -0.071,0.0582 -0.1345,0.12531 -0.1881,0.20019 -0.01,0.0145 -0.021,0.0291 -0.03,0.0441 -0.051,0.0796 -0.091,0.1666 -0.1196,0.25917 v 0.005 c -0.01,0.0172 -0.01,0.0347 -0.014,0.0522 -0.01,0.0107 -0.01,0.0214 -0.01,0.0322 0,0.004 10e-5,0.009 -0.01,0.0133 -0.01,0.0256 -0.01,0.0519 -0.012,0.0782 0,0.007 -0.01,0.0136 -0.01,0.0206 -0.01,0.0341 -0.01,0.0686 -0.01,0.10361 v 0.94034 4.57348 c 0.5407,0.39668 2.0434,1.3028 3.5228,2.15147 h 6.7274 c 0.8637,-0.49547 1.7201,-1.00179 2.409,-1.42701 v -5.29794 -0.94034 c 0,-0.10434 -0.015,-0.20484 -0.043,-0.29973 0,-0.007 -0.01,-0.0144 -0.01,-0.0217 -0.01,-0.009 -0.01,-0.0175 -0.01,-0.0262 -0.082,-0.23331 -0.2434,-0.42786 -0.4528,-0.55187 0,-0.003 -0.01,-0.006 -0.014,-0.008 0,0 0,-10e-4 0,-0.002 -0.1163,-0.0659 -0.2459,-0.11081 -0.3847,-0.12823 -0.043,-0.005 -0.088,-0.009 -0.1326,-0.009 h -2.1177 v -1.17758 c 0,-0.6575 -0.5292,-1.1868 -1.1867,-1.1868 z m 0,0.79102 h 3.9562 c 0.2192,0 0.3955,0.1766 0.3955,0.39577 v 1.17758 h -4.7472 v -1.17758 c 0,-0.21917 0.1764,-0.39577 0.3955,-0.39577 z"
         id="path3659" />
      <path
         inkscape:connector-curvature="0"
         style="fill:#4d4d4d;stroke-width:0.03956009;stroke-linecap:square"
         id="path3661"
         d="m -1984.6781,-409.26045 c -0.6575,0 -1.1868,0.52931 -1.1868,1.1868 v 1.18681 c 0,0.51788 0.3305,0.95213 0.7912,1.11494 v -2.30175 c 0,-0.21916 0.1764,-0.3956 0.3956,-0.3956 h 3.956 c 0.2192,0 0.3956,0.17644 0.3956,0.3956 v 2.30175 c 0.4608,-0.16281 0.7912,-0.59706 0.7912,-1.11494 v -1.18681 c 0,-0.65749 -0.5293,-1.1868 -1.1868,-1.1868 z" />
      <path
         id="path3663"
         d="m -1988.1153,-406.88679 c -0.5168,0.0649 -0.9143,0.5027 -0.9143,1.03773 v 2.97494 h 12.6591 v -2.97494 c 0,-0.53503 -0.3975,-0.97285 -0.9144,-1.03773 z"
         style="fill:#9e3727;fill-opacity:1;fill-rule:evenodd;stroke-width:0.47104412"
         inkscape:connector-curvature="0"
         sodipodi:nodetypes="csccscc" />
      <g
         inkscape:transform-center-y="-2.5621587"
         inkscape:transform-center-x="-1.5576587"
         transform="matrix(0.13223036,-0.99121902,-0.99121902,-0.13223036,-2110.2321,-2349.9015)"
         id="g3683"
         style="fill:#d4e3e0;fill-opacity:1">
        <path
           style="opacity:1;fill:#d4e3e0;fill-opacity:1;stroke:none;stroke-width:0.04094553;stroke-linecap:round;stroke-linejoin:miter;stroke-miterlimit:4;stroke-dasharray:none;stroke-dashoffset:0;stroke-opacity:1;paint-order:markers stroke fill"
           d="m -1910.226,-386.78515 a 1.1279551,1.1279551 0 0 0 -1.128,1.12799 1.1279551,1.1279551 0 0 0 1.128,1.12799 1.1279551,1.1279551 0 0 0 1.1279,-1.12799 1.1279551,1.1279551 0 0 0 -1.1279,-1.12799 z m -0.073,0.4851 c 0.088,-0.009 0.034,0.11946 0.1214,0.12895 0.088,0.009 0.062,-0.12768 0.1458,-0.10011 0.084,0.0276 -0.018,0.12261 0.058,0.16706 0.076,0.0444 0.1085,-0.0913 0.1741,-0.0319 0.066,0.0594 -0.066,0.10461 -0.015,0.17633 0.052,0.0717 0.1362,-0.0395 0.172,0.0414 0.036,0.0809 -0.1032,0.0687 -0.085,0.15531 0.018,0.0866 0.1406,0.0193 0.1403,0.10774 -2e-4,0.0885 -0.1222,0.0206 -0.1409,0.10712 -0.019,0.0865 0.1205,0.075 0.084,0.15572 -0.036,0.0807 -0.12,-0.0309 -0.1722,0.0406 -0.052,0.0714 0.08,0.1173 0.014,0.17633 -0.066,0.059 -0.097,-0.077 -0.1739,-0.033 -0.077,0.044 0.025,0.13952 -0.059,0.16664 -0.084,0.0271 -0.057,-0.10974 -0.1454,-0.10072 -0.088,0.009 -0.034,0.1376 -0.122,0.12812 -0.088,-0.009 -0.01,-0.12363 -0.092,-0.1512 -0.084,-0.0276 -0.087,0.11202 -0.1636,0.0676 -0.077,-0.0445 0.043,-0.11612 -0.022,-0.1755 -0.066,-0.0594 -0.1251,0.0668 -0.177,-0.005 -0.052,-0.0717 0.087,-0.0884 0.051,-0.16933 -0.036,-0.0809 -0.1415,0.0102 -0.1596,-0.0764 -0.018,-0.0866 0.1151,-0.0456 0.1154,-0.1341 2e-4,-0.0885 -0.1334,-0.0482 -0.1148,-0.13471 0.019,-0.0865 0.1239,0.005 0.1601,-0.0754 0.036,-0.0807 -0.1023,-0.0983 -0.05,-0.16972 0.052,-0.0714 0.111,0.0551 0.177,-0.004 0.066,-0.059 -0.053,-0.13147 0.023,-0.1755 0.077,-0.044 0.079,0.0955 0.1631,0.0684 0.084,-0.0271 0,-0.14177 0.093,-0.15077 z"
           id="path3675"
           inkscape:connector-curvature="0" />
        <path
           style="fill:#d4e3e0;fill-opacity:1;fill-rule:evenodd;stroke-width:0.49088711"
           d="m -1910.9398,-386.53138 c -0.2756,0.17421 -0.5049,0.17701 -0.8266,0.18643 h -3.213 c 0,0.38967 0,0.47766 0,0.67872 v 0.67874 h 3.213 c 0.3217,0.009 0.551,0.0122 0.8266,0.18641 v -0.86515 z"
           id="path3677"
           inkscape:connector-curvature="0" />
        <path
           style="opacity:1;fill:#d4e3e0;fill-opacity:1;stroke:none;stroke-width:0.02757028;stroke-linecap:round;stroke-linejoin:miter;stroke-miterlimit:4;stroke-dasharray:none;stroke-dashoffset:0;stroke-opacity:1;paint-order:markers stroke fill"
           d="m -1915.8902,-386.90293 a 1.259061,1.3809055 83.284444 0 0 -0.1375,0.01 1.259061,1.3809055 83.284444 0 0 -1.1593,0.87611 l 1.1715,-0.24645 c 0.1814,-0.0382 0.3862,0.21128 0.4594,0.55913 0.073,0.34785 -0.014,0.65867 -0.1953,0.6968 l -1.1406,0.23979 a 1.259061,1.3809055 83.284444 0 0 1.1587,0.37552 1.259061,1.3809055 83.284444 0 0 1.2242,-1.41191 1.259061,1.3809055 83.284444 0 0 -1.3811,-1.09886 z"
           id="path3679"
           inkscape:connector-curvature="0" />
        <path
           id="path3681"
           d="m -1914.9782,-386.53137 c 0.2756,0.17421 0.505,0.177 0.8267,0.18642 h 3.2129 c 0,0.38967 0,0.47766 0,0.67872 v 0.67874 h -3.213 c -0.3217,0.009 -0.551,0.0122 -0.8266,0.18641 v -0.86515 z"
           style="fill:#d4e3e0;fill-opacity:1;fill-rule:evenodd;stroke-width:0.49088711"
           inkscape:connector-curvature="0" />
      </g>
      <g
         style="fill:#d4e3e0;fill-opacity:1"
         inkscape:transform-center-y="0.89406167"
         inkscape:transform-center-x="-0.51652781"
         transform="rotate(60.429059,-1916.6841,-467.73687)"
         id="g3705">
        <g
           style="fill:#d4e3e0;fill-opacity:1"
           id="g3703"
           transform="translate(19.537967,7.1503184)">
          <path
             inkscape:connector-curvature="0"
             id="path3695"
             d="m -1911.402,-385.93301 a 0.73193856,0.73193856 29.929655 0 0 -0.732,0.73196 0.73193856,0.73193856 29.929655 0 0 0.732,0.73196 0.73193856,0.73193856 29.929655 0 0 0.7319,-0.73196 0.73193856,0.73193856 29.929655 0 0 -0.7319,-0.73196 z m -0.048,0.31479 c 0.057,-0.006 0.022,0.0775 0.079,0.0837 0.057,0.006 0.04,-0.0828 0.094,-0.065 0.055,0.0179 -0.012,0.0795 0.037,0.10841 0.049,0.0288 0.07,-0.0593 0.113,-0.0207 0.043,0.0386 -0.043,0.0679 -0.01,0.11443 0.034,0.0465 0.088,-0.0256 0.1117,0.0269 0.023,0.0525 -0.067,0.0446 -0.056,0.10079 0.012,0.0562 0.091,0.0126 0.091,0.0699 -2e-4,0.0574 -0.08,0.0134 -0.091,0.0695 -0.012,0.0561 0.078,0.0487 0.055,0.10104 -0.023,0.0524 -0.078,-0.02 -0.1118,0.0263 -0.034,0.0463 0.052,0.0761 0.01,0.11442 -0.043,0.0383 -0.063,-0.05 -0.1129,-0.0214 -0.05,0.0286 0.016,0.0905 -0.038,0.10813 -0.055,0.0176 -0.037,-0.0712 -0.094,-0.0654 -0.057,0.006 -0.022,0.0893 -0.079,0.0832 -0.057,-0.006 -0.01,-0.0802 -0.06,-0.0981 -0.055,-0.0179 -0.056,0.0727 -0.1062,0.0438 -0.05,-0.0288 0.028,-0.0754 -0.014,-0.11389 -0.043,-0.0385 -0.082,0.0433 -0.1148,-0.003 -0.034,-0.0465 0.056,-0.0573 0.033,-0.10988 -0.023,-0.0525 -0.092,0.007 -0.1036,-0.0496 -0.012,-0.0562 0.075,-0.0296 0.075,-0.087 0,-0.0574 -0.087,-0.0313 -0.074,-0.0874 0.012,-0.0561 0.081,0.003 0.1038,-0.0489 0.023,-0.0524 -0.067,-0.0638 -0.032,-0.11013 0.034,-0.0464 0.072,0.0358 0.1148,-0.003 0.043,-0.0383 -0.035,-0.0853 0.015,-0.11388 0.05,-0.0286 0.051,0.0619 0.1058,0.0444 0.055,-0.0176 0,-0.092 0.061,-0.0978 z"
             style="opacity:1;fill:#d4e3e0;fill-opacity:1;stroke:none;stroke-width:0.02656986;stroke-linecap:round;stroke-linejoin:miter;stroke-miterlimit:4;stroke-dasharray:none;stroke-dashoffset:0;stroke-opacity:1;paint-order:markers stroke fill" />
          <path
             inkscape:connector-curvature="0"
             id="path3697"
             d="m -1911.8652,-385.76834 c -0.1788,0.11305 -0.3277,0.11487 -0.5364,0.12098 h -2.0849 c 0,0.25285 0,0.30996 0,0.44043 v 0.44043 h 2.0849 c 0.2087,0.006 0.3576,0.008 0.5364,0.12097 v -0.5614 z"
             style="fill:#d4e3e0;fill-opacity:1;fill-rule:evenodd;stroke-width:0.31854033" />
          <path
             inkscape:connector-curvature="0"
             id="path3699"
             d="m -1915.4113,-386.26323 a 1.0906959,1.1962471 83.284444 0 0 -0.1192,0.009 1.0906959,1.1962471 83.284444 0 0 -1.0042,0.75895 l 1.0148,-0.21349 c 0.1572,-0.0331 0.3346,0.18302 0.398,0.48436 0.063,0.30133 -0.012,0.57059 -0.1692,0.60362 l -0.9881,0.20773 a 1.0906959,1.1962471 83.284444 0 0 1.0038,0.3253 1.0906959,1.1962471 83.284444 0 0 1.0605,-1.22311 1.0906959,1.1962471 83.284444 0 0 -1.1964,-0.95191 z"
             style="opacity:1;fill:#d4e3e0;fill-opacity:1;stroke:none;stroke-width:0.02388351;stroke-linecap:round;stroke-linejoin:miter;stroke-miterlimit:4;stroke-dasharray:none;stroke-dashoffset:0;stroke-opacity:1;paint-order:markers stroke fill" />
          <path
             inkscape:connector-curvature="0"
             style="fill:#d4e3e0;fill-opacity:1;fill-rule:evenodd;stroke-width:0.31854033"
             d="m -1914.3929,-385.74192 c 0.1788,0.11305 0.3276,0.11486 0.5364,0.12097 h 2.0848 c 0,0.25286 0,0.30996 0,0.44043 v 0.44044 h -2.0849 c -0.2087,0.006 -0.3575,0.008 -0.5363,0.12096 v -0.5614 z"
             id="path3701" />
        </g>
      </g>
      <path
         id="path3685"
         d="m -1989.029,-403.71795 v 1.62949 c 0,0.16648 0.4669,0.3005 1.047,0.3005 h 10.5652 c 0.58,0 1.047,-0.13402 1.047,-0.3005 v -1.62949 z"
         style="fill:#d03c39;fill-opacity:1;stroke-width:0.02119419;stroke-linecap:square"
         inkscape:connector-curvature="0" />
      <path
         style="fill:#e0585c;fill-opacity:1;stroke-width:0.03956009;stroke-linecap:square"
         d="m -1989.0289,-403.29498 v 4.06355 c 0,0.58002 0.4668,1.04696 1.0469,1.04696 h 10.5653 c 0.58,0 1.0469,-0.46694 1.0469,-1.04696 v -4.06355 z"
         id="path3687"
         inkscape:connector-curvature="0"
         sodipodi:nodetypes="csssscc" />
      <path
         inkscape:connector-curvature="0"
         id="path3689"
         d="m -1986.3405,-403.72078 c -0.1535,0 -0.277,0.12355 -0.277,0.27702 v 1.43838 c 0,0.15346 0.1235,0.27701 0.277,0.27701 h 1.4381 c 0.1535,0 0.277,-0.12355 0.277,-0.27701 v -1.43838 c 0,-0.15347 -0.1235,-0.27702 -0.277,-0.27702 z m 0.3357,0.4653 h 0.7667 c 0.082,0 0.1477,0.0659 0.1477,0.14771 v 0.76639 c 0,0.0818 -0.066,0.14771 -0.1477,0.14771 h -0.7667 c -0.082,0 -0.1474,-0.0659 -0.1474,-0.14771 v -0.76639 c 0,-0.0818 0.066,-0.14771 0.1474,-0.14771 z"
         style="opacity:1;fill:#f9f9f9;fill-opacity:1;stroke:none;stroke-width:0.04427302;stroke-linecap:round;stroke-linejoin:miter;stroke-miterlimit:4;stroke-dasharray:none;stroke-dashoffset:0;stroke-opacity:1;paint-order:markers stroke fill" />
      <path
         style="opacity:1;fill:#f9f9f9;fill-opacity:1;stroke:none;stroke-width:0.04427302;stroke-linecap:round;stroke-linejoin:miter;stroke-miterlimit:4;stroke-dasharray:none;stroke-dashoffset:0;stroke-opacity:1;paint-order:markers stroke fill"
         d="m -1980.5339,-403.72078 c -0.1534,0 -0.277,0.12355 -0.277,0.27702 v 1.43838 c 0,0.15346 0.1236,0.27701 0.277,0.27701 h 1.4381 c 0.1535,0 0.2771,-0.12355 0.2771,-0.27701 v -1.43838 c 0,-0.15347 -0.1236,-0.27702 -0.2771,-0.27702 z m 0.3357,0.4653 h 0.7667 c 0.082,0 0.1477,0.0659 0.1477,0.14771 v 0.76639 c 0,0.0818 -0.066,0.14771 -0.1477,0.14771 h -0.7667 c -0.082,0 -0.1474,-0.0659 -0.1474,-0.14771 v -0.76639 c 0,-0.0818 0.066,-0.14771 0.1474,-0.14771 z"
         id="path3691"
         inkscape:connector-curvature="0" />
      <path
         inkscape:connector-curvature="0"
         style="opacity:0.27099998;fill:#f2f2f2;fill-opacity:1;stroke:none;stroke-width:0.35063079;stroke-linecap:round;stroke-linejoin:bevel;stroke-miterlimit:4;stroke-dasharray:none;stroke-dashoffset:0;stroke-opacity:1;paint-order:stroke markers fill"
         d="m -1982.7001,-410.92256 c -0.4104,0 -6.9041,3.74921 -7.1094,4.10469 -0.2052,0.35547 -0.2052,7.85373 0,8.2092 0.2053,0.35548 6.699,4.10469 7.1094,4.10469 0.4105,0 6.904,-3.74921 7.1093,-4.10469 0.2052,-0.35547 0.2052,-7.85373 0,-8.2092 -0.2053,-0.35548 -6.6988,-4.10469 -7.1093,-4.10469 z m 0,0.25468 c 0.3978,0 6.69,3.63281 6.8889,3.97726 0.1989,0.34445 0.1989,7.61025 0,7.9547 -0.1989,0.34445 -6.4911,3.97726 -6.8889,3.97726 -0.3978,0 -6.69,-3.63281 -6.8888,-3.97726 -0.1989,-0.34445 -0.1989,-7.61025 0,-7.9547 0.1988,-0.34445 6.491,-3.97726 6.8888,-3.97726 z"
         id="path3693" />
    </g>
  </g>
</svg>
