<?xml version="1.0" encoding="UTF-8" standalone="no"?>
<!-- Created with Inkscape (http://www.inkscape.org/) -->

<svg
   xmlns:dc="http://purl.org/dc/elements/1.1/"
   xmlns:cc="http://creativecommons.org/ns#"
   xmlns:rdf="http://www.w3.org/1999/02/22-rdf-syntax-ns#"
   xmlns:svg="http://www.w3.org/2000/svg"
   xmlns="http://www.w3.org/2000/svg"
   xmlns:xlink="http://www.w3.org/1999/xlink"
   xmlns:sodipodi="http://sodipodi.sourceforge.net/DTD/sodipodi-0.dtd"
   xmlns:inkscape="http://www.inkscape.org/namespaces/inkscape"
   width="32"
   height="32"
   id="svg5453"
   version="1.1"
   inkscape:version="0.92.2 (unknown)"
   sodipodi:docname="applications-education-mathematics.svg">
  <defs
     id="defs5455">
    <linearGradient
       gradientUnits="userSpaceOnUse"
       y2="503.798"
       x2="384.57144"
       y1="543.79797"
       x1="434.57144"
       id="linearGradient4586"
       xlink:href="#linearGradient4273"
       inkscape:collect="always"
       gradientTransform="translate(-1.1547241e-5,-1.6784668e-7)" />
    <linearGradient
       inkscape:collect="always"
       id="linearGradient4273">
      <stop
         style="stop-color:#343b40;stop-opacity:1"
         offset="0"
         id="stop4275" />
      <stop
         style="stop-color:#555e63;stop-opacity:1"
         offset="1"
         id="stop4277" />
    </linearGradient>
  </defs>
  <sodipodi:namedview
     id="base"
     pagecolor="#ffffff"
     bordercolor="#666666"
     borderopacity="1.0"
     inkscape:pageopacity="0"
     inkscape:pageshadow="2"
     inkscape:zoom="15.999999"
     inkscape:cx="26.15774"
     inkscape:cy="15.360706"
     inkscape:document-units="px"
     inkscape:current-layer="g3068"
     showgrid="false"
     fit-margin-top="0"
     fit-margin-left="0"
     fit-margin-right="0"
     fit-margin-bottom="0"
     inkscape:window-width="1868"
     inkscape:window-height="1050"
     inkscape:window-x="52"
     inkscape:window-y="0"
     inkscape:window-maximized="1"
     inkscape:showpageshadow="false"
     borderlayer="true"
     showguides="false"
     inkscape:snap-bbox="true">
    <inkscape:grid
       type="xygrid"
       id="grid4063" />
    <sodipodi:guide
       position="4.2167969e-05,32.000026"
       orientation="32,0"
       id="guide4625"
       inkscape:locked="false" />
    <sodipodi:guide
       position="4.2167969e-05,2.6367188e-05"
       orientation="0,31.999969"
       id="guide4627"
       inkscape:locked="false" />
    <sodipodi:guide
       position="32.000012,2.6367188e-05"
       orientation="-32,0"
       id="guide4629"
       inkscape:locked="false" />
    <sodipodi:guide
       position="32.000012,32.000026"
       orientation="0,-31.999969"
       id="guide4631"
       inkscape:locked="false" />
    <sodipodi:guide
       position="2.0000422,30.000026"
       orientation="28,0"
       id="guide4633"
       inkscape:locked="false" />
    <sodipodi:guide
       position="2.0000422,2.0000264"
       orientation="0,27.999969"
       id="guide4635"
       inkscape:locked="false" />
    <sodipodi:guide
       position="30,17"
       orientation="-28,0"
       id="guide4637"
       inkscape:locked="false" />
    <sodipodi:guide
       position="30.000012,30.000026"
       orientation="0,-27.999969"
       id="guide4639"
       inkscape:locked="false" />
    <sodipodi:guide
       position="9.0000117,24.000271"
       orientation="14,0"
       id="guide4429"
       inkscape:locked="false" />
    <sodipodi:guide
       position="9.0000117,10.000271"
       orientation="0,14.000031"
       id="guide4431"
       inkscape:locked="false" />
    <sodipodi:guide
       position="23.000042,10.000271"
       orientation="-14,0"
       id="guide4433"
       inkscape:locked="false" />
    <sodipodi:guide
       position="23.000042,24.000271"
       orientation="0,-14.000031"
       id="guide4435"
       inkscape:locked="false" />
  </sodipodi:namedview>
  <metadata
     id="metadata5458">
    <rdf:RDF>
      <cc:Work
         rdf:about="">
        <dc:format>image/svg+xml</dc:format>
        <dc:type
           rdf:resource="http://purl.org/dc/dcmitype/StillImage" />
        <dc:title />
      </cc:Work>
    </rdf:RDF>
  </metadata>
  <g
     inkscape:label="Capa 1"
     inkscape:groupmode="layer"
     id="layer1"
     transform="translate(-384.57143,-515.798)">
    <g
       id="g3068"
       transform="matrix(0.66666621,0,0,0.66666621,152.19064,181.9329)">
      <g
         transform="matrix(1.500001,0,0,1.500001,2636.5119,969.03179)"
         id="g3216">
        <path
           inkscape:transform-center-x="-9.2692787e-05"
           sodipodi:type="star"
           style="opacity:1;fill:#dbe5e4;fill-opacity:1;stroke:#4e4036;stroke-width:0.70799464;stroke-linecap:round;stroke-linejoin:bevel;stroke-miterlimit:4;stroke-dasharray:none;stroke-dashoffset:0;stroke-opacity:1;paint-order:stroke markers fill"
           id="path3168"
           sodipodi:sides="6"
           sodipodi:cx="-159.88393"
           sodipodi:cy="88.735123"
           sodipodi:r1="16.576097"
           sodipodi:r2="14.355322"
           sodipodi:arg1="1.0471976"
           sodipodi:arg2="1.5707963"
           inkscape:flatsided="true"
           inkscape:rounded="0.05"
           inkscape:randomized="0"
           d="m -151.59588,103.09044 c -0.71776,0.41441 -15.85833,0.41441 -16.5761,0 -0.71776,-0.4144 -8.28804,-13.526513 -8.28804,-14.355318 0,-0.828805 7.57028,-13.940919 8.28805,-14.355321 0.71776,-0.414403 15.85833,-0.414402 16.57609,10e-7 0.71777,0.414402 8.28805,13.526517 8.28805,14.355321 0,0.828805 -7.57028,13.940917 -8.28805,14.355317 z"
           transform="matrix(0,0.94506263,-0.94506263,0,-1425.4324,-145.05533)"
           inkscape:transform-center-y="8.6501096e-06" />
        <path
           inkscape:connector-curvature="0"
           style="opacity:1;fill:#0174b0;fill-opacity:1;stroke:none;stroke-width:2.60191202;stroke-linecap:round;stroke-linejoin:miter;stroke-miterlimit:4;stroke-dasharray:none;stroke-dashoffset:0;stroke-opacity:1;paint-order:markers stroke fill"
           d="m -1509.2925,-311.8212 c -0.7833,0 -13.175,7.15425 -13.5666,7.83259 -0.3916,0.67834 -0.3916,14.98738 0,15.66572 0.1036,0.17938 1.0699,0.82362 2.4153,1.65674 l 12.5409,-24.54939 c -0.7357,-0.37307 -1.2509,-0.60566 -1.3896,-0.60566 z"
           id="path3170" />
        <path
           inkscape:connector-curvature="0"
           style="opacity:1;fill:#ffeac5;fill-opacity:1;stroke:none;stroke-width:2.60191202;stroke-linecap:round;stroke-linejoin:miter;stroke-miterlimit:4;stroke-dasharray:none;stroke-dashoffset:0;stroke-opacity:1;paint-order:markers stroke fill"
           d="m -1495.5657,-302.6476 -23.9882,16.52199 c 3.8439,2.33167 9.7271,5.63531 10.2614,5.63531 0.7833,0 13.175,-7.15426 13.5666,-7.83259 0.3274,-0.56698 0.3801,-10.63139 0.1602,-14.32471 z"
           id="path3172" />
        <path
           inkscape:connector-curvature="0"
           style="opacity:0.3;fill:#1a1a1a;fill-opacity:1;stroke:none;stroke-width:3.70752525;stroke-linecap:round;stroke-linejoin:miter;stroke-miterlimit:4;stroke-dasharray:none;stroke-dashoffset:0;stroke-opacity:1;paint-order:markers stroke fill"
           d="m -1518.9544,-302.97832 c -1.8696,0 -3.375,1.50537 -3.375,3.37497 v 11.71453 c 1.2781,0.90734 4.6687,2.92799 7.6977,4.64106 h 10.6784 c 1.4365,-0.81238 2.9232,-1.67463 4.2675,-2.47994 0.078,-0.28514 0.1224,-0.58404 0.1224,-0.89453 v -12.98112 c 0,-1.8696 -1.5048,-3.37497 -3.3744,-3.37497 z"
           id="path3174" />
        <rect
           ry="3.3747499"
           y="-306.0209"
           x="-1520.6757"
           height="19.730534"
           width="22.766001"
           id="rect3176"
           style="opacity:1;fill:#d8994f;fill-opacity:1;stroke:none;stroke-width:3.70752549;stroke-linecap:round;stroke-linejoin:miter;stroke-miterlimit:4;stroke-dasharray:none;stroke-dashoffset:0;stroke-opacity:1;paint-order:markers stroke fill" />
        <rect
           style="opacity:1;fill:#966b42;fill-opacity:1;stroke:none;stroke-width:3.21318889;stroke-linecap:round;stroke-linejoin:miter;stroke-miterlimit:4;stroke-dasharray:none;stroke-dashoffset:0;stroke-opacity:1;paint-order:markers stroke fill"
           id="rect3178"
           width="19.730534"
           height="17.099798"
           x="-1519.1578"
           y="-304.70554"
           ry="2.9247832" />
        <rect
           ry="2.6997998"
           y="-304.04785"
           x="-1518.399"
           height="15.784429"
           width="18.212799"
           id="rect3180"
           style="opacity:1;fill:#48383b;fill-opacity:1;stroke:none;stroke-width:2.96602058;stroke-linecap:round;stroke-linejoin:miter;stroke-miterlimit:4;stroke-dasharray:none;stroke-dashoffset:0;stroke-opacity:1;paint-order:markers stroke fill" />
        <rect
           style="color:#000000;text-decoration:none;text-decoration-line:none;display:inline;overflow:visible;visibility:visible;fill:#0174b0;fill-opacity:1;fill-rule:nonzero;stroke:none;stroke-width:0.69453061;enable-background:accumulate"
           id="rect3182"
           width="4.1671453"
           height="1.0417863"
           x="-1512.0627"
           y="-289.30521"
           ry="0.5" />
        <rect
           style="color:#000000;text-decoration:none;text-decoration-line:none;display:inline;overflow:visible;visibility:visible;fill:#ebf1ed;fill-opacity:1;fill-rule:nonzero;stroke:none;stroke-width:0.69453061;enable-background:accumulate"
           id="rect3184"
           width="4.1671734"
           height="1.0418049"
           x="-1506.8539"
           y="-289.30524"
           ry="0.5" />
        <g
           id="g3196"
           style="font-style:normal;font-variant:normal;font-weight:normal;font-stretch:normal;font-size:12.79379368px;line-height:125%;font-family:Oxygen;-inkscape-font-specification:Oxygen;letter-spacing:0px;word-spacing:0px;fill:#f2f2f2;fill-opacity:1;stroke:none"
           transform="matrix(0.38610205,-0.17413503,0.17413503,0.38610205,-1667.6692,-519.3797)">
          <path
             inkscape:connector-curvature="0"
             id="path3186"
             style="fill:#f9f9f9;fill-opacity:1;stroke:#f9f9f9;stroke-width:1.00105357;stroke-linecap:round;stroke-linejoin:round;stroke-miterlimit:4;stroke-dasharray:none;paint-order:fill markers stroke"
             d="m 106.24035,636.71759 -0.14368,-1.0245 3.22969,-3.58576 c 0.21655,-0.24155 0.42479,-0.5539 0.62469,-0.93705 0.20407,-0.38314 0.35191,-0.70798 0.44354,-0.97453 l 0.14368,-0.39355 c -1e-5,-0.51641 -0.14369,-0.91622 -0.43104,-1.19942 -0.28737,-0.28736 -0.6955,-0.43104 -1.22441,-0.43104 -0.88291,0 -1.5784,0.25613 -2.08649,0.76837 l -0.36232,-0.93704 c 0.57472,-0.5414 1.41598,-0.8121 2.52378,-0.81211 0.84958,10e-6 1.52633,0.23115 2.03026,0.69342 0.50392,0.45811 0.75588,1.0724 0.75588,1.84285 -0.0167,0.0583 -0.0417,0.13744 -0.075,0.23739 -0.0333,0.0958 -0.1062,0.28528 -0.21864,0.56847 -0.10829,0.2832 -0.22282,0.55182 -0.34359,0.80586 -0.12078,0.25405 -0.27487,0.53308 -0.46227,0.83709 -0.18325,0.30403 -0.37066,0.55807 -0.56223,0.76213 l -2.63622,2.81739 h 4.32915 l -0.0687,0.96203 h -5.4661" />
          <path
             inkscape:connector-curvature="0"
             id="path3188"
             style="fill:#f9f9f9;fill-opacity:1;stroke:#f9f9f9;stroke-width:1.00105357;stroke-linecap:round;stroke-linejoin:round;stroke-miterlimit:4;stroke-dasharray:none;paint-order:fill markers stroke"
             d="m 116.48538,632.23227 h 2.43632 v 0.84958 h -2.44256 v 2.67995 h -0.85584 v -2.67995 h -2.48004 v -0.84958 h 2.48629 v -2.64872 h 0.85583 v 2.64872" />
          <path
             inkscape:connector-curvature="0"
             id="path3190"
             style="fill:#f9f9f9;fill-opacity:1;stroke:#f9f9f9;stroke-width:1.00105357;stroke-linecap:round;stroke-linejoin:round;stroke-miterlimit:4;stroke-dasharray:none;paint-order:fill markers stroke"
             d="m 120.25855,636.71759 -0.14368,-1.0245 3.22969,-3.58576 c 0.21655,-0.24155 0.42479,-0.5539 0.62469,-0.93705 0.20407,-0.38314 0.35191,-0.70798 0.44354,-0.97453 l 0.14368,-0.39355 c -1e-5,-0.51641 -0.14369,-0.91622 -0.43104,-1.19942 -0.28737,-0.28736 -0.6955,-0.43104 -1.22441,-0.43104 -0.88291,0 -1.5784,0.25613 -2.08649,0.76837 l -0.36232,-0.93704 c 0.57472,-0.5414 1.41598,-0.8121 2.52378,-0.81211 0.84958,10e-6 1.52633,0.23115 2.03026,0.69342 0.50392,0.45811 0.75588,1.0724 0.75588,1.84285 -0.0167,0.0583 -0.0417,0.13744 -0.075,0.23739 -0.0333,0.0958 -0.1062,0.28528 -0.21864,0.56847 -0.10829,0.2832 -0.22282,0.55182 -0.34359,0.80586 -0.12078,0.25405 -0.27487,0.53308 -0.46227,0.83709 -0.18325,0.30403 -0.37066,0.55807 -0.56223,0.76213 l -2.63622,2.81739 h 4.32915 l -0.0687,0.96203 h -5.4661" />
          <path
             inkscape:connector-curvature="0"
             id="path3192"
             style="fill:#f9f9f9;fill-opacity:1;stroke:#f9f9f9;stroke-width:1.00105357;stroke-linecap:round;stroke-linejoin:round;stroke-miterlimit:4;stroke-dasharray:none;paint-order:fill markers stroke"
             d="m 127.34887,634.36248 v -0.88707 h 6.02832 v 0.88707 h -6.02832 m -0.006,-2.63622 v -0.89956 h 6.03457 v 0.89956 h -6.03457" />
          <path
             inkscape:connector-curvature="0"
             id="path3194"
             style="fill:#f9f9f9;fill-opacity:1;stroke:#f9f9f9;stroke-width:1.00105357;stroke-linecap:round;stroke-linejoin:round;stroke-miterlimit:4;stroke-dasharray:none;paint-order:fill markers stroke"
             d="m 141.20464,634.39996 h -1.06198 v 2.31763 h -1.04949 v -2.31763 h -4.22295 v -0.95578 l 4.10426,-6.07206 h 1.16818 v 6.12203 h 1.14944 l -0.0875,0.90581 m -2.11147,-5.60977 -3.12349,4.70396 h 3.12349 v -4.70396" />
        </g>
        <path
           inkscape:connector-curvature="0"
           style="opacity:0.27099998;fill:#f2f2f2;fill-opacity:1;stroke:none;stroke-width:0.66978753;stroke-linecap:round;stroke-linejoin:bevel;stroke-miterlimit:4;stroke-dasharray:none;stroke-dashoffset:0;stroke-opacity:1;paint-order:stroke markers fill"
           d="m -1509.2927,-311.83734 c -0.784,0 -13.1885,7.16188 -13.5807,7.84092 -0.3919,0.67903 -0.3919,15.00249 0,15.68152 0.3922,0.67904 12.7967,7.84093 13.5807,7.84093 0.7841,0 13.1883,-7.16189 13.5805,-7.84093 0.392,-0.67903 0.392,-15.00249 0,-15.68152 -0.3922,-0.67905 -12.7964,-7.84092 -13.5805,-7.84092 z m 0,0.48649 c 0.7599,0 12.7795,6.93954 13.1594,7.59751 0.3799,0.65798 0.3799,14.53738 0,15.19535 -0.3799,0.65798 -12.3995,7.59751 -13.1594,7.59751 -0.7598,0 -12.7795,-6.93953 -13.1592,-7.59751 -0.38,-0.65797 -0.38,-14.53737 0,-15.19535 0.3797,-0.65797 12.3994,-7.59751 13.1592,-7.59751 z"
           id="path3198" />
      </g>
    </g>
  </g>
</svg>
