<?xml version="1.0" encoding="UTF-8" standalone="no"?>
<!-- Created with Inkscape (http://www.inkscape.org/) -->

<svg
   xmlns:dc="http://purl.org/dc/elements/1.1/"
   xmlns:cc="http://creativecommons.org/ns#"
   xmlns:rdf="http://www.w3.org/1999/02/22-rdf-syntax-ns#"
   xmlns:svg="http://www.w3.org/2000/svg"
   xmlns="http://www.w3.org/2000/svg"
   xmlns:sodipodi="http://sodipodi.sourceforge.net/DTD/sodipodi-0.dtd"
   xmlns:inkscape="http://www.inkscape.org/namespaces/inkscape"
   width="32"
   version="1.1"
   height="32"
   viewBox="0 0 32 32"
   id="svg18"
   sodipodi:docname="applications-education.svg"
   inkscape:version="0.92.2 (unknown)">
  <sodipodi:namedview
     pagecolor="#ffffff"
     bordercolor="#666666"
     borderopacity="1"
     objecttolerance="10"
     gridtolerance="10"
     guidetolerance="10"
     inkscape:pageopacity="0"
     inkscape:pageshadow="2"
     inkscape:window-width="1868"
     inkscape:window-height="1050"
     id="namedview20"
     showgrid="false"
     inkscape:zoom="5.2149125"
     inkscape:cx="29.998352"
     inkscape:cy="5.9467804"
     inkscape:window-x="52"
     inkscape:window-y="0"
     inkscape:window-maximized="1"
     inkscape:current-layer="layer1" />
  <defs
     id="defs5455" />
  <metadata
     id="metadata5458">
    <rdf:RDF>
      <cc:Work
         rdf:about="">
        <dc:format>image/svg+xml</dc:format>
        <dc:type
           rdf:resource="http://purl.org/dc/dcmitype/StillImage" />
      </cc:Work>
    </rdf:RDF>
  </metadata>
  <g
     inkscape:label="Capa 1"
     inkscape:groupmode="layer"
     id="layer1"
     transform="matrix(1 0 0 1 -384.57143 -515.798)">
    <g
       transform="translate(1909.8641,827.95365)"
       id="g3493">
      <path
         inkscape:transform-center-y="8.6501096e-06"
         transform="matrix(0,0.94506263,-0.94506263,0,-1425.4324,-145.05533)"
         d="m -151.59588,103.09044 c -0.71776,0.41441 -15.85833,0.41441 -16.5761,0 -0.71776,-0.4144 -8.28804,-13.526513 -8.28804,-14.355318 0,-0.828805 7.57028,-13.940919 8.28805,-14.355321 0.71776,-0.414403 15.85833,-0.414402 16.57609,10e-7 0.71777,0.414402 8.28805,13.526517 8.28805,14.355321 0,0.828805 -7.57028,13.940917 -8.28805,14.355317 z"
         inkscape:randomized="0"
         inkscape:rounded="0.05"
         inkscape:flatsided="true"
         sodipodi:arg2="1.5707963"
         sodipodi:arg1="1.0471976"
         sodipodi:r2="14.355322"
         sodipodi:r1="16.576097"
         sodipodi:cy="88.735123"
         sodipodi:cx="-159.88393"
         sodipodi:sides="6"
         id="path3461"
         style="opacity:1;fill:#e2dfd0;fill-opacity:1;stroke:#4e4036;stroke-width:0.70799464;stroke-linecap:round;stroke-linejoin:bevel;stroke-miterlimit:4;stroke-dasharray:none;stroke-dashoffset:0;stroke-opacity:1;paint-order:stroke markers fill"
         sodipodi:type="star"
         inkscape:transform-center-x="-9.2692787e-05" />
      <path
         id="path3463"
         d="m -1509.2925,-311.8212 c -0.7833,0 -13.175,7.15425 -13.5666,7.83259 -0.3916,0.67834 -0.3916,14.98738 0,15.66572 0.1036,0.17938 1.0699,0.82362 2.4153,1.65674 l 12.5409,-24.54939 c -0.7357,-0.37307 -1.2509,-0.60566 -1.3896,-0.60566 z"
         style="opacity:1;fill:#363b3f;fill-opacity:1;stroke:none;stroke-width:2.60191202;stroke-linecap:round;stroke-linejoin:miter;stroke-miterlimit:4;stroke-dasharray:none;stroke-dashoffset:0;stroke-opacity:1;paint-order:markers stroke fill"
         inkscape:connector-curvature="0" />
      <path
         id="path3465"
         d="m -1495.5657,-302.6476 -23.9882,16.52199 c 3.8439,2.33167 9.7271,5.63531 10.2614,5.63531 0.7833,0 13.175,-7.15426 13.5666,-7.83259 0.3274,-0.56698 0.3801,-10.63139 0.1602,-14.32471 z"
         style="opacity:1;fill:#42c5ae;fill-opacity:1;stroke:none;stroke-width:2.60191202;stroke-linecap:round;stroke-linejoin:miter;stroke-miterlimit:4;stroke-dasharray:none;stroke-dashoffset:0;stroke-opacity:1;paint-order:markers stroke fill"
         inkscape:connector-curvature="0" />
      <path
         id="path3467"
         d="m -1518.9544,-302.97832 c -1.8696,0 -3.375,1.50537 -3.375,3.37497 v 11.71453 c 1.2781,0.90734 4.6687,2.92799 7.6977,4.64106 h 10.6784 c 1.4365,-0.81238 2.9232,-1.67463 4.2675,-2.47994 0.078,-0.28514 0.1224,-0.58404 0.1224,-0.89453 v -12.98112 c 0,-1.8696 -1.5048,-3.37497 -3.3744,-3.37497 z"
         style="opacity:0.3;fill:#1a1a1a;fill-opacity:1;stroke:none;stroke-width:3.70752525;stroke-linecap:round;stroke-linejoin:miter;stroke-miterlimit:4;stroke-dasharray:none;stroke-dashoffset:0;stroke-opacity:1;paint-order:markers stroke fill"
         inkscape:connector-curvature="0" />
      <rect
         style="opacity:1;fill:#d8994f;fill-opacity:1;stroke:none;stroke-width:3.70752549;stroke-linecap:round;stroke-linejoin:miter;stroke-miterlimit:4;stroke-dasharray:none;stroke-dashoffset:0;stroke-opacity:1;paint-order:markers stroke fill"
         id="rect3469"
         width="22.766001"
         height="19.730534"
         x="-1520.6757"
         y="-306.0209"
         ry="3.3747499" />
      <rect
         ry="2.9247832"
         y="-304.70554"
         x="-1519.1578"
         height="17.099798"
         width="19.730534"
         id="rect3471"
         style="opacity:1;fill:#966b42;fill-opacity:1;stroke:none;stroke-width:3.21318889;stroke-linecap:round;stroke-linejoin:miter;stroke-miterlimit:4;stroke-dasharray:none;stroke-dashoffset:0;stroke-opacity:1;paint-order:markers stroke fill" />
      <rect
         style="opacity:1;fill:#48383b;fill-opacity:1;stroke:none;stroke-width:2.96602058;stroke-linecap:round;stroke-linejoin:miter;stroke-miterlimit:4;stroke-dasharray:none;stroke-dashoffset:0;stroke-opacity:1;paint-order:markers stroke fill"
         id="rect3473"
         width="18.212799"
         height="15.784429"
         x="-1518.399"
         y="-304.04785"
         ry="2.6997998" />
      <rect
         ry="0.5"
         y="-289.30521"
         x="-1512.0627"
         height="1.0417863"
         width="4.1671453"
         id="rect3475"
         style="color:#000000;text-decoration:none;text-decoration-line:none;display:inline;overflow:visible;visibility:visible;fill:#0174b0;fill-opacity:1;fill-rule:nonzero;stroke:none;stroke-width:0.69453061;enable-background:accumulate" />
      <rect
         ry="0.5"
         y="-289.30524"
         x="-1506.8539"
         height="1.0418049"
         width="4.1671734"
         id="rect3477"
         style="color:#000000;text-decoration:none;text-decoration-line:none;display:inline;overflow:visible;visibility:visible;fill:#ebf1ed;fill-opacity:1;fill-rule:nonzero;stroke:none;stroke-width:0.69453061;enable-background:accumulate" />
      <g
         transform="matrix(0.38610205,-0.17413503,0.17413503,0.38610205,-1667.6692,-519.3797)"
         style="font-style:normal;font-variant:normal;font-weight:normal;font-stretch:normal;font-size:12.79379368px;line-height:125%;font-family:Oxygen;-inkscape-font-specification:Oxygen;letter-spacing:0px;word-spacing:0px;fill:#f2f2f2;fill-opacity:1;stroke:none"
         id="g3489" />
      <path
         id="path3491"
         d="m -1509.2927,-311.83734 c -0.784,0 -13.1885,7.16188 -13.5807,7.84092 -0.3919,0.67903 -0.3919,15.00249 0,15.68152 0.3922,0.67904 12.7967,7.84093 13.5807,7.84093 0.7841,0 13.1883,-7.16189 13.5805,-7.84093 0.392,-0.67903 0.392,-15.00249 0,-15.68152 -0.3922,-0.67905 -12.7964,-7.84092 -13.5805,-7.84092 z m 0,0.48649 c 0.7599,0 12.7795,6.93954 13.1594,7.59751 0.3799,0.65798 0.3799,14.53738 0,15.19535 -0.3799,0.65798 -12.3995,7.59751 -13.1594,7.59751 -0.7598,0 -12.7795,-6.93953 -13.1592,-7.59751 -0.38,-0.65797 -0.38,-14.53737 0,-15.19535 0.3797,-0.65797 12.3994,-7.59751 13.1592,-7.59751 z"
         style="opacity:0.27099998;fill:#f2f2f2;fill-opacity:1;stroke:none;stroke-width:0.66978753;stroke-linecap:round;stroke-linejoin:bevel;stroke-miterlimit:4;stroke-dasharray:none;stroke-dashoffset:0;stroke-opacity:1;paint-order:stroke markers fill"
         inkscape:connector-curvature="0" />
    </g>
  </g>
</svg>
