<?xml version="1.0" encoding="UTF-8" standalone="no"?>
<!-- Created with Inkscape (http://www.inkscape.org/) -->

<svg
   xmlns:dc="http://purl.org/dc/elements/1.1/"
   xmlns:cc="http://creativecommons.org/ns#"
   xmlns:rdf="http://www.w3.org/1999/02/22-rdf-syntax-ns#"
   xmlns:svg="http://www.w3.org/2000/svg"
   xmlns="http://www.w3.org/2000/svg"
   xmlns:xlink="http://www.w3.org/1999/xlink"
   xmlns:sodipodi="http://sodipodi.sourceforge.net/DTD/sodipodi-0.dtd"
   xmlns:inkscape="http://www.inkscape.org/namespaces/inkscape"
   width="32"
   version="1.1"
   height="32"
   viewBox="0 0 32 32"
   id="svg60"
   sodipodi:docname="applications-graphics.svg"
   inkscape:version="0.92.2 (unknown)">
  <sodipodi:namedview
     pagecolor="#ffffff"
     bordercolor="#666666"
     borderopacity="1"
     objecttolerance="10"
     gridtolerance="10"
     guidetolerance="10"
     inkscape:pageopacity="0"
     inkscape:pageshadow="2"
     inkscape:window-width="1868"
     inkscape:window-height="1050"
     id="namedview62"
     showgrid="false"
     inkscape:zoom="7.375"
     inkscape:cx="10.385516"
     inkscape:cy="18.202759"
     inkscape:window-x="52"
     inkscape:window-y="0"
     inkscape:window-maximized="1"
     inkscape:current-layer="layer1" />
  <defs
     id="defs5455">
    <linearGradient
       inkscape:collect="always"
       id="linearGradient4508">
      <stop
         style="stop-color:#ffffff"
         id="stop4510" />
      <stop
         offset="1"
         style="stop-color:#ffffff;stop-opacity:0"
         id="stop4512" />
    </linearGradient>
    <linearGradient
       inkscape:collect="always"
       id="linearGradient4496">
      <stop
         style="stop-color:#b83564"
         id="stop4498" />
      <stop
         offset="0.5"
         style="stop-color:#ff6a5a"
         id="stop4504" />
      <stop
         offset="1"
         style="stop-color:#ffb350"
         id="stop4500" />
    </linearGradient>
    <linearGradient
       inkscape:collect="always"
       id="linearGradient4303">
      <stop
         style="stop-color:#c6cdd1"
         id="stop4305" />
      <stop
         offset="1"
         style="stop-color:#e0e5e7"
         id="stop4307" />
    </linearGradient>
    <linearGradient
       inkscape:collect="always"
       xlink:href="#linearGradient4496"
       id="linearGradient4456"
       gradientUnits="userSpaceOnUse"
       gradientTransform="matrix(0.95673123,0,0,0.95673123,-2276.4116,-816.06387)"
       x1="413.57144"
       y1="544.79797"
       x2="387.57144"
       y2="518.79797" />
    <linearGradient
       inkscape:collect="always"
       xlink:href="#linearGradient4303"
       id="linearGradient4458"
       gradientUnits="userSpaceOnUse"
       gradientTransform="matrix(0.95673123,0,0,0.95673123,-1908.4801,-322.58382)"
       y1="31"
       x2="0"
       y2="2" />
    <linearGradient
       inkscape:collect="always"
       xlink:href="#linearGradient4303"
       id="linearGradient4460"
       gradientUnits="userSpaceOnUse"
       gradientTransform="matrix(0.95673123,0,0,0.95673123,-1908.4801,-322.58382)"
       y1="31"
       x2="0"
       y2="2" />
    <linearGradient
       inkscape:collect="always"
       xlink:href="#linearGradient4508"
       id="linearGradient4462"
       gradientUnits="userSpaceOnUse"
       gradientTransform="rotate(-90,398.07148,532.29798)"
       y1="529.79797"
       x2="0"
       y2="535.79797" />
    <linearGradient
       inkscape:collect="always"
       xlink:href="#linearGradient4508"
       id="linearGradient4464"
       gradientUnits="userSpaceOnUse"
       gradientTransform="rotate(-90,396.07148,534.29798)"
       y1="529.79797"
       x2="0"
       y2="535.79797" />
    <linearGradient
       inkscape:collect="always"
       xlink:href="#linearGradient4508"
       id="linearGradient4466"
       gradientUnits="userSpaceOnUse"
       gradientTransform="matrix(0,1,1,0,-126.2265,129.22656)"
       y1="529.79797"
       x2="0"
       y2="535.79797" />
    <linearGradient
       inkscape:collect="always"
       xlink:href="#linearGradient4508"
       id="linearGradient4468"
       gradientUnits="userSpaceOnUse"
       gradientTransform="rotate(-90,400.07148,530.29798)"
       y1="529.79797"
       x2="0"
       y2="535.79797" />
    <linearGradient
       inkscape:collect="always"
       xlink:href="#linearGradient4508"
       id="linearGradient4470"
       gradientUnits="userSpaceOnUse"
       gradientTransform="matrix(0,1,1,0,-122.2265,129.22656)"
       y1="529.79797"
       x2="0"
       y2="535.79797" />
    <linearGradient
       inkscape:collect="always"
       xlink:href="#linearGradient4508"
       id="linearGradient4473"
       gradientUnits="userSpaceOnUse"
       gradientTransform="rotate(-90,394.07148,536.29798)"
       y1="529.79797"
       x2="0"
       y2="535.79797" />
    <linearGradient
       inkscape:collect="always"
       xlink:href="#linearGradient4508"
       id="linearGradient4475"
       gradientUnits="userSpaceOnUse"
       gradientTransform="translate(1.99998,-2.99993)"
       y1="529.79797"
       x2="0"
       y2="535.79797" />
    <linearGradient
       inkscape:collect="always"
       xlink:href="#linearGradient4508"
       id="linearGradient4478"
       gradientUnits="userSpaceOnUse"
       gradientTransform="translate(1.99998,-6.99993)"
       y1="529.79797"
       x2="0"
       y2="535.79797" />
    <linearGradient
       inkscape:collect="always"
       xlink:href="#linearGradient4508"
       id="linearGradient4480"
       gradientUnits="userSpaceOnUse"
       gradientTransform="matrix(-1,0,0,1,803.14287,5.00007)"
       y1="529.79797"
       x2="0"
       y2="535.79797" />
    <linearGradient
       inkscape:collect="always"
       xlink:href="#linearGradient4508"
       id="linearGradient4482"
       gradientUnits="userSpaceOnUse"
       gradientTransform="translate(1.99998,1.00007)"
       y1="529.79797"
       x2="0"
       y2="535.79797" />
    <linearGradient
       inkscape:collect="always"
       xlink:href="#linearGradient4508"
       id="linearGradient4484"
       gradientUnits="userSpaceOnUse"
       gradientTransform="matrix(-1,0,0,1,803.14287,9.00007)"
       y1="529.79797"
       x2="0"
       y2="535.79797" />
    <linearGradient
       inkscape:collect="always"
       xlink:href="#linearGradient4508"
       id="linearGradient4486"
       gradientUnits="userSpaceOnUse"
       gradientTransform="translate(1.99998,-10.99993)"
       y1="529.79797"
       x2="0"
       y2="535.79797" />
  </defs>
  <metadata
     id="metadata5458">
    <rdf:RDF>
      <cc:Work
         rdf:about="">
        <dc:format>image/svg+xml</dc:format>
        <dc:type
           rdf:resource="http://purl.org/dc/dcmitype/StillImage" />
      </cc:Work>
    </rdf:RDF>
  </metadata>
  <g
     inkscape:label="Capa 1"
     inkscape:groupmode="layer"
     id="layer1"
     transform="matrix(1 0 0 1 -384.57143 -515.798)">
    <g
       transform="translate(1870.2014,887.07366)"
       id="g4597">
      <path
         inkscape:transform-center-x="-9.2692787e-05"
         sodipodi:type="star"
         style="opacity:1;fill:#97d07f;fill-opacity:1;stroke:#4e4036;stroke-width:0.70799464;stroke-linecap:round;stroke-linejoin:bevel;stroke-miterlimit:4;stroke-dasharray:none;stroke-dashoffset:0;stroke-opacity:1;paint-order:stroke markers fill"
         id="path4402"
         sodipodi:sides="6"
         sodipodi:cx="-159.88393"
         sodipodi:cy="88.735123"
         sodipodi:r1="16.576097"
         sodipodi:r2="14.355322"
         sodipodi:arg1="1.0471976"
         sodipodi:arg2="1.5707963"
         inkscape:flatsided="true"
         inkscape:rounded="0.05"
         inkscape:randomized="0"
         d="m -151.59588,103.09044 c -0.71776,0.41441 -15.85833,0.41441 -16.5761,0 -0.71776,-0.4144 -8.28804,-13.526513 -8.28804,-14.355318 0,-0.828805 7.57028,-13.940919 8.28805,-14.355321 0.71776,-0.414403 15.85833,-0.414402 16.57609,10e-7 0.71777,0.414402 8.28805,13.526517 8.28805,14.355321 0,0.828805 -7.57028,13.940917 -8.28805,14.355317 z"
         transform="matrix(0,0.94506263,-0.94506263,0,-1385.7697,-204.17534)"
         inkscape:transform-center-y="8.6501096e-06" />
      <path
         style="opacity:1;fill:#6f95a3;fill-opacity:1;stroke:none;stroke-width:0.238125;stroke-linecap:round;stroke-linejoin:round;stroke-miterlimit:4;stroke-dasharray:none;stroke-dashoffset:0;stroke-opacity:1;paint-order:fill markers stroke"
         d="m -1477.498,-366.72908 c 0,0.001 0,0.002 -0.01,0.004 -0.7,0.40902 -1.3813,0.81314 -2.0195,1.19682 -0.071,0.0428 -0.1338,0.0813 -0.2036,0.1235 -0.9041,0.5456 -1.7158,1.0473 -2.3187,1.44127 -0.04,0.0264 -0.075,0.05 -0.1132,0.0754 -0.1612,0.10636 -0.3105,0.20656 -0.4377,0.29509 -0.084,0.0589 -0.1468,0.10599 -0.2145,0.15605 -0.067,0.0498 -0.1475,0.10636 -0.1974,0.14677 -0.021,0.0169 -0.036,0.0308 -0.054,0.046 -0.024,0.0208 -0.051,0.043 -0.069,0.0605 -0.03,0.0298 -0.054,0.056 -0.065,0.0754 -0.012,0.0212 -0.024,0.0559 -0.036,0.10284 -0.034,0.14097 -0.065,0.39428 -0.093,0.73742 -0.073,0.91501 -0.1223,2.46899 -0.1468,4.23593 -0.024,1.76691 -0.024,3.74642 0,5.51333 0,1.9e-4 0,3.7e-4 0,5.3e-4 0.024,1.7667 0.073,3.32049 0.1468,4.2354 0.028,0.34314 0.059,0.59645 0.093,0.73742 0.011,0.047 0.023,0.0816 0.036,0.10284 0.2983,0.5166 7.545,4.78166 11.3353,6.78977 z"
         id="path4404"
         inkscape:connector-curvature="0" />
      <path
         style="opacity:1;fill:#e8f0eb;fill-opacity:1;stroke:none;stroke-width:0.238125;stroke-linecap:round;stroke-linejoin:round;stroke-miterlimit:4;stroke-dasharray:none;stroke-dashoffset:0;stroke-opacity:1;paint-order:fill markers stroke"
         d="m -1461.6556,-366.66655 -5.8688,26.07955 c 3.7511,-1.97726 11.1595,-6.33328 11.4613,-6.85591 0.1468,-0.25437 0.2387,-2.42551 0.2754,-5.07566 0,-1.6e-4 0,-3.4e-4 0,-5.3e-4 0.055,-3.97518 -0.014,-9.02822 -0.2067,-10.30891 0,-2.1e-4 0,-3.1e-4 0,-5.3e-4 -0.021,-0.14224 -0.044,-0.2377 -0.069,-0.28008 -0.011,-0.0198 -0.036,-0.046 -0.067,-0.0765 -0.015,-0.0147 -0.037,-0.0336 -0.057,-0.0507 -0.019,-0.0168 -0.037,-0.0331 -0.061,-0.0522 -0.046,-0.0377 -0.1215,-0.0905 -0.1835,-0.13642 -0.072,-0.0535 -0.1411,-0.10565 -0.2325,-0.16952 -0.129,-0.0897 -0.2765,-0.18912 -0.4403,-0.29713 -0.026,-0.0173 -0.05,-0.0329 -0.077,-0.0506 -0.5987,-0.39203 -1.407,-0.89297 -2.3125,-1.4397 -0.055,-0.0334 -0.1053,-0.0644 -0.1613,-0.0982 -0.6309,-0.37978 -1.3063,-0.78057 -2.0009,-1.18702 z"
         id="path4406"
         inkscape:connector-curvature="0" />
      <path
         inkscape:connector-curvature="0"
         style="opacity:0.27099998;fill:#f2f2f2;fill-opacity:1;stroke:none;stroke-width:0.66978753;stroke-linecap:round;stroke-linejoin:bevel;stroke-miterlimit:4;stroke-dasharray:none;stroke-dashoffset:0;stroke-opacity:1;paint-order:stroke markers fill"
         d="m -1469.63,-370.95735 c -0.784,0 -13.1885,7.16188 -13.5807,7.84092 -0.3919,0.67903 -0.3919,15.00249 0,15.68152 0.3922,0.67904 12.7967,7.84093 13.5807,7.84093 0.7841,0 13.1883,-7.16189 13.5805,-7.84093 0.392,-0.67903 0.392,-15.00249 0,-15.68152 -0.3922,-0.67905 -12.7964,-7.84092 -13.5805,-7.84092 z m 0,0.48649 c 0.7599,0 12.7795,6.93954 13.1594,7.59751 0.3799,0.65798 0.3799,14.53738 0,15.19535 -0.3799,0.65798 -12.3995,7.59751 -13.1594,7.59751 -0.7598,0 -12.7795,-6.93953 -13.1592,-7.59751 -0.38,-0.65797 -0.38,-14.53737 0,-15.19535 0.3797,-0.65797 12.3994,-7.59751 13.1592,-7.59751 z"
         id="path4408" />
      <path
         inkscape:connector-curvature="0"
         style="opacity:0.3;fill:#1a1a1a;stroke-width:0.07094479;stroke-linecap:square"
         d="m -1481.8086,-360.47201 v 1.46296 a 1.4724638,1.4724638 0 0 0 -5e-4,0.0103 1.4724638,1.4724638 0 0 0 5e-4,0.0129 v 8.82168 a 10.307257,10.307257 0 0 0 0.9731,4.34446 c 3.1021,1.92368 8.3859,4.93844 10.418,5.90299 a 10.307257,10.307257 0 0 0 9.2232,-10.24745 10.307257,10.307257 0 0 0 -10.3074,-10.30737 z"
         id="path4410" />
      <g
         transform="matrix(0.73621895,0,0,0.73621895,-1761.57,-800.46511)"
         id="g4454"
         inkscape:label="Capa 1">
        <g
           id="g4452"
           transform="translate(11.615275,26.410924)">
          <circle
             id="circle4412"
             r="12.437506"
             style="fill:url(#linearGradient4456);stroke-width:0.09219254;stroke-linecap:square"
             cy="-307.27615"
             cx="-1893.1724"
             transform="matrix(1.0452441,0,0,1.0452441,2363.7517,901.62102)" />
          <circle
             r="1.9134624"
             id="circle4414"
             style="fill:#26b4b9;fill-opacity:1;stroke-width:0.19134624;stroke-linecap:square"
             cy="-318.75693"
             cx="-1904.6532"
             transform="matrix(1.0452441,0,0,1.0452441,2363.7517,901.62102)" />
          <path
             d="m -1906.5666,-320.67036 v 13.39424 a 13.39425,13.39425 0 0 0 13.3942,13.39424 13.39425,13.39425 0 0 0 13.3942,-13.39424 13.39425,13.39425 0 0 0 -13.3942,-13.39424 z m 1.9134,0.95673 a 0.95673123,0.95673123 0 0 1 0.9568,0.95673 0.95673123,0.95673123 0 0 1 -0.9568,0.95674 0.95673123,0.95673123 0 0 1 -0.9567,-0.95674 0.95673123,0.95673123 0 0 1 0.9567,-0.95673 z m 11.4808,0.95673 a 11.480787,11.480787 0 0 1 11.4808,11.48078 11.480787,11.480787 0 0 1 -11.4808,11.48077 11.480787,11.480787 0 0 1 -11.4808,-11.48077 11.480787,11.480787 0 0 1 11.4808,-11.48078 z"
             id="path4416"
             style="fill:url(#linearGradient4458);fill-rule:evenodd;stroke-width:0.9567312"
             inkscape:connector-curvature="0"
             transform="matrix(1.0452441,0,0,1.0452441,2363.7517,901.62102)" />
          <circle
             r="12.437506"
             id="circle4418"
             style="fill:#99a1a7;stroke-width:0.09567312;stroke-linecap:square"
             cy="-307.27615"
             cx="-1893.1724"
             transform="matrix(1.0452441,0,0,1.0452441,2363.7517,901.62102)" />
          <circle
             r="11.480775"
             id="circle4420"
             style="fill:#26b4b9;fill-opacity:1;stroke-width:0.08510125;stroke-linecap:square"
             cy="-307.27615"
             cx="-1893.1724"
             transform="matrix(1.0452441,0,0,1.0452441,2363.7517,901.62102)" />
          <path
             d="m -1906.5666,-320.67036 v 13.39424 a 13.39425,13.39425 0 0 0 13.3942,13.39424 13.39425,13.39425 0 0 0 13.3942,-13.39424 13.39425,13.39425 0 0 0 -13.3942,-13.39424 z m 1.9134,0.95673 a 0.95673123,0.95673123 0 0 1 0.9568,0.95673 0.95673123,0.95673123 0 0 1 -0.9568,0.95674 0.95673123,0.95673123 0 0 1 -0.9567,-0.95674 0.95673123,0.95673123 0 0 1 0.9567,-0.95673 z m 11.4808,0.95673 a 11.480787,11.480787 0 0 1 11.4808,11.48078 11.480787,11.480787 0 0 1 -11.4808,11.48077 11.480787,11.480787 0 0 1 -11.4808,-11.48077 11.480787,11.480787 0 0 1 11.4808,-11.48078 z"
             id="path4422"
             style="fill:url(#linearGradient4460);fill-rule:evenodd;stroke-width:0.9567312"
             inkscape:connector-curvature="0"
             transform="matrix(1.0452441,0,0,1.0452441,2363.7517,901.62102)" />
          <g
             transform="translate(-15.647069,48.644419)"
             id="g4450">
            <path
               inkscape:connector-curvature="0"
               style="opacity:0.1;fill:url(#linearGradient4462);stroke-width:0.1;stroke-linecap:square"
               id="path4424"
               d="m 400.57143,519.798 a 12,11.999999 0 0 0 -4,0.70117 v 3.29883 4 4 4 4 3.29883 a 12,11.999999 0 0 0 4,0.70117 v -4 -4 -4 -4 -4 z" />
            <path
               inkscape:connector-curvature="0"
               style="opacity:0.1;fill:url(#linearGradient4464);stroke-width:0.1;stroke-linecap:square"
               id="path4426"
               d="m 396.57143,520.49917 a 12,11.999999 0 0 0 -4,2.37305 v 0.92578 4 4 4 4 0.92773 a 12,11.999999 0 0 0 4,2.3711 v -3.29883 -4 -4 -4 -4 z" />
            <path
               inkscape:connector-curvature="0"
               style="opacity:0.1;fill:url(#linearGradient4466);stroke-width:0.1;stroke-linecap:square"
               id="path4428"
               d="m 404.57143,520.49917 v 3.29883 4 4 4 4 3.29883 a 12,11.999999 0 0 0 4,-2.37305 v -0.92578 -4 -4 -4 -4 -0.92773 a 12,11.999999 0 0 0 -4,-2.3711 z" />
            <path
               inkscape:connector-curvature="0"
               style="opacity:0.1;fill:url(#linearGradient4468);stroke-width:0.1;stroke-linecap:square"
               id="path4430"
               d="m 400.57143,519.798 v 4 4 4 4 4 4 a 12,11.999999 0 0 0 4,-0.70117 v -3.29883 -4 -4 -4 -4 -3.29883 a 12,11.999999 0 0 0 -4,-0.70117 z" />
            <path
               inkscape:connector-curvature="0"
               style="opacity:0.1;fill:url(#linearGradient4470);stroke-width:0.1;stroke-linecap:square"
               id="path4432"
               d="m 408.57143,522.87027 v 0.92773 4 4 4 4 0.92578 a 12,11.999999 0 0 0 4,-8.92578 12,11.999999 0 0 0 -4,-8.92773 z" />
            <path
               inkscape:connector-curvature="0"
               style="opacity:0.1;fill:url(#linearGradient4473);stroke-width:0.1;stroke-linecap:square"
               id="path4434"
               d="m 392.57143,522.87222 a 12,11.999999 0 0 0 -4,8.92578 12,11.999999 0 0 0 4,8.92773 v -0.92773 -4 -4 -4 -4 z" />
            <g
               id="g4448">
              <path
                 inkscape:connector-curvature="0"
                 style="opacity:0.1;fill:url(#linearGradient4475);stroke-width:0.1;stroke-linecap:square"
                 id="path4436"
                 d="m 389.2726,527.798 a 12,11.999999 0 0 0 -0.70117,4 h 4 4 4 4 4 4 a 12,11.999999 0 0 0 -0.70117,-4 h -3.29883 -4 -4 -4 -4 z" />
              <path
                 inkscape:connector-curvature="0"
                 style="opacity:0.1;fill:url(#linearGradient4478);stroke-width:0.1;stroke-linecap:square"
                 id="path4438"
                 d="m 391.6437,523.798 a 12,11.999999 0 0 0 -2.3711,4 h 3.29883 4 4 4 4 3.29883 a 12,11.999999 0 0 0 -2.37305,-4 h -0.92578 -4 -4 -4 -4 z" />
              <path
                 inkscape:connector-curvature="0"
                 style="opacity:0.1;fill:url(#linearGradient4480);stroke-width:0.1;stroke-linecap:square"
                 id="path4440"
                 d="m 389.2726,535.798 a 12,11.999999 0 0 0 2.37305,4 h 0.92578 4 4 4 4 0.92773 a 12,11.999999 0 0 0 2.3711,-4 h -3.29883 -4 -4 -4 -4 z" />
              <path
                 inkscape:connector-curvature="0"
                 style="opacity:0.1;fill:url(#linearGradient4482);stroke-width:0.1;stroke-linecap:square"
                 id="path4442"
                 d="m 388.57143,531.798 a 12,11.999999 0 0 0 0.70117,4 h 3.29883 4 4 4 4 3.29883 a 12,11.999999 0 0 0 0.70117,-4 h -4 -4 -4 -4 -4 z" />
              <path
                 inkscape:connector-curvature="0"
                 style="opacity:0.1;fill:url(#linearGradient4484);stroke-width:0.1;stroke-linecap:square"
                 id="path4444"
                 d="m 391.64565,539.798 a 12,11.999999 0 0 0 8.92578,4 12,11.999999 0 0 0 8.92773,-4 h -0.92773 -4 -4 -4 -4 z" />
              <path
                 inkscape:connector-curvature="0"
                 style="opacity:0.1;fill:url(#linearGradient4486);stroke-width:0.1;stroke-linecap:square"
                 id="path4446"
                 d="m 400.57143,519.798 a 12,11.999999 0 0 0 -8.92773,4 h 0.92773 4 4 4 4 0.92578 a 12,11.999999 0 0 0 -8.92578,-4 z" />
            </g>
          </g>
        </g>
      </g>
    </g>
  </g>
</svg>
