<?xml version="1.0" encoding="UTF-8" standalone="no"?>
<svg
   xmlns:dc="http://purl.org/dc/elements/1.1/"
   xmlns:cc="http://creativecommons.org/ns#"
   xmlns:rdf="http://www.w3.org/1999/02/22-rdf-syntax-ns#"
   xmlns:svg="http://www.w3.org/2000/svg"
   xmlns="http://www.w3.org/2000/svg"
   xmlns:sodipodi="http://sodipodi.sourceforge.net/DTD/sodipodi-0.dtd"
   xmlns:inkscape="http://www.inkscape.org/namespaces/inkscape"
   viewBox="0 0 22 22"
   id="svg2"
   version="1.1"
   inkscape:version="0.91 r13725"
   sodipodi:docname="im-user.svg">
  <metadata
     id="metadata10">
    <rdf:RDF>
      <cc:Work
         rdf:about="">
        <dc:format>image/svg+xml</dc:format>
        <dc:type
           rdf:resource="http://purl.org/dc/dcmitype/StillImage" />
      </cc:Work>
    </rdf:RDF>
  </metadata>
  <sodipodi:namedview
     pagecolor="#ffffff"
     bordercolor="#666666"
     borderopacity="1"
     objecttolerance="10"
     gridtolerance="10"
     guidetolerance="10"
     inkscape:pageopacity="0"
     inkscape:pageshadow="2"
     inkscape:window-width="1280"
     inkscape:window-height="995"
     id="namedview8"
     showgrid="false"
     inkscape:zoom="10.727273"
     inkscape:cx="11"
     inkscape:cy="11"
     inkscape:window-x="1920"
     inkscape:window-y="0"
     inkscape:window-maximized="1"
     inkscape:current-layer="svg2" />
  <defs
     id="defs3051">
    <style
       type="text/css"
       id="current-color-scheme">
      .ColorScheme-Text {
        color:#4d4d4d;
      }
      </style>
  </defs>
  <g
     transform="matrix(3.6270318,0,0,3.6270318,7425.5825,2254.9893)"
     id="g28181">
    <g
       transform="matrix(0.7226762,0,0,0.59532108,45.529487,-612.37188)"
       id="g28173"
       style="fill:#29744e;fill-opacity:1;stroke:#aed581;stroke-opacity:1">
      <path
         sodipodi:nodetypes="cccsccsccscccccc"
         inkscape:connector-curvature="0"
         id="path28171"
         d="m -2893.6829,-11.131131 c 0,0.647277 0.3758,1.2034305 0.922,1.4634765 l 0,0.203752 0,0.08915 c 0,0.03143 0,0.06245 0.01,0.09298 -0.612,0.114962 -1.5701,0.04799 -1.5778,2.255849 2.5946,0.0431 2.4689,0.0411 2.6017,0.0411 0.1329,0 0.8127,-0.03729 2.592,-0.03128 0.012,-2.188216 -0.956,-2.150708 -1.5681,-2.26567 0,-0.03053 0.01,-0.06156 0.01,-0.09298 l 0,-0.08915 3e-4,0 0,-0.203751 c 0.546,-0.260046 0.9218,-0.8162005 0.9218,-1.4634775 0.013,-1.193306 -0.338,-3.092168 -1.9559,-3.092166 -1.7457,-0.02624 -1.9351,1.928964 -1.956,3.092167 z"
         style="opacity:1;fill:#29744e;fill-opacity:1;stroke:#1f2d0f;stroke-width:0.17124328;stroke-linecap:round;stroke-linejoin:bevel;stroke-miterlimit:4;stroke-dasharray:none;stroke-dashoffset:0;stroke-opacity:1;paint-order:stroke markers fill" />
    </g>
    <path
       style="fill:#0b1f15;fill-opacity:1;fill-rule:evenodd;stroke:#0b1f15;stroke-width:0.266;stroke-linecap:butt;stroke-linejoin:miter;stroke-miterlimit:4;stroke-dasharray:none;stroke-opacity:1;paint-order:stroke markers fill"
       d="m -2044.8556,-620.05985 1.1225,0"
       id="path28175"
       inkscape:connector-curvature="0" />
    <path
       style="font-style:normal;font-variant:normal;font-weight:normal;font-stretch:normal;font-size:medium;line-height:5.1820631px;font-family:GOGOIA;-inkscape-font-specification:GOGOIA;letter-spacing:0.20728253px;word-spacing:0.20728253px;opacity:1;fill:#ffffff;fill-opacity:1;stroke:#0b1f15;stroke-width:0.266;stroke-linecap:round;stroke-linejoin:round;stroke-miterlimit:4;stroke-dasharray:none;stroke-dashoffset:0;stroke-opacity:1;paint-order:stroke markers fill"
       id="path28177"
       sodipodi:type="arc"
       sodipodi:cx="-2015.3864"
       sodipodi:cy="-707.80225"
       sodipodi:rx="0.88285077"
       sodipodi:ry="0.88285077"
       sodipodi:start="5.4296617"
       sodipodi:end="4.0733385"
       d="m -2014.806,-708.46756 a 0.88285077,0.88285077 0 0 1 0.2401,0.9913 0.88285077,0.88285077 0 0 1 -0.855,0.55619 0.88285077,0.88285077 0 0 1 -0.8089,-0.6213 0.88285077,0.88285077 0 0 1 0.3169,-0.96951"
       sodipodi:open="true"
       transform="matrix(0.99905154,-0.04354328,0.04354328,0.99905154,0,0)" />
    <circle
       style="font-style:normal;font-variant:normal;font-weight:normal;font-stretch:normal;font-size:medium;line-height:5.1820631px;font-family:GOGOIA;-inkscape-font-specification:GOGOIA;letter-spacing:0.20728253px;word-spacing:0.20728253px;opacity:1;fill:#43be80;fill-opacity:1;stroke:#0b1f15;stroke-width:0.12838234;stroke-linecap:round;stroke-linejoin:round;stroke-miterlimit:4;stroke-dasharray:none;stroke-dashoffset:0;stroke-opacity:1;paint-order:stroke markers fill"
       id="circle28179"
       cx="-2044.2961"
       cy="-619.39044"
       r="0.4256219" />
  </g>
</svg>
