<?xml version="1.0" encoding="UTF-8" standalone="no"?>
<!-- Created with Inkscape (http://www.inkscape.org/) -->

<svg
   xmlns:dc="http://purl.org/dc/elements/1.1/"
   xmlns:cc="http://creativecommons.org/ns#"
   xmlns:rdf="http://www.w3.org/1999/02/22-rdf-syntax-ns#"
   xmlns:svg="http://www.w3.org/2000/svg"
   xmlns="http://www.w3.org/2000/svg"
   xmlns:sodipodi="http://sodipodi.sourceforge.net/DTD/sodipodi-0.dtd"
   xmlns:inkscape="http://www.inkscape.org/namespaces/inkscape"
   width="32"
   version="1.1"
   height="32"
   viewBox="0 0 32 32"
   id="svg17"
   sodipodi:docname="folder-tar.svg"
   inkscape:version="0.92.2 (unknown)">
  <sodipodi:namedview
     pagecolor="#ffffff"
     bordercolor="#666666"
     borderopacity="1"
     objecttolerance="10"
     gridtolerance="10"
     guidetolerance="10"
     inkscape:pageopacity="0"
     inkscape:pageshadow="2"
     inkscape:window-width="1868"
     inkscape:window-height="1050"
     id="namedview19"
     showgrid="false"
     inkscape:zoom="7.375"
     inkscape:cx="16"
     inkscape:cy="16"
     inkscape:window-x="52"
     inkscape:window-y="0"
     inkscape:window-maximized="1"
     inkscape:current-layer="layer1" />
  <defs
     id="defs5455" />
  <metadata
     id="metadata5458">
    <rdf:RDF>
      <cc:Work
         rdf:about="">
        <dc:format>image/svg+xml</dc:format>
        <dc:type
           rdf:resource="http://purl.org/dc/dcmitype/StillImage" />
      </cc:Work>
    </rdf:RDF>
  </metadata>
  <g
     inkscape:label="Capa 1"
     inkscape:groupmode="layer"
     id="layer1"
     transform="matrix(1 0 0 1 -384.57143 -515.798)">
    <g
       transform="matrix(3.7795276,0,0,3.7795276,7538.0622,3546.8298)"
       id="g6615">
      <path
         style="opacity:1;fill:#01a6ca;fill-opacity:1;stroke:none;stroke-width:1.29226601;stroke-linecap:round;stroke-linejoin:miter;stroke-miterlimit:4;stroke-dasharray:none;stroke-dashoffset:0;stroke-opacity:1;paint-order:markers stroke fill"
         d="m -1892.4278,-797.0831 v 1.41453 c 0,0.65166 0.5247,1.17606 1.1764,1.17606 h 5.5826 c 0.6516,0 1.1763,-0.5244 1.1763,-1.17606 v -1.41453 z"
         id="path6565"
         inkscape:connector-curvature="0" />
      <rect
         ry="1.106557"
         y="-800.96191"
         x="-1891.9574"
         height="6.4695044"
         width="7.4648123"
         id="rect6567"
         style="opacity:1;fill:#01a6ca;fill-opacity:1;stroke:none;stroke-width:1.21567178;stroke-linecap:round;stroke-linejoin:miter;stroke-miterlimit:4;stroke-dasharray:none;stroke-dashoffset:0;stroke-opacity:1;paint-order:markers stroke fill" />
      <rect
         style="opacity:1;fill:#c9e9f1;fill-opacity:1;stroke:none;stroke-width:0.9902783;stroke-linecap:round;stroke-linejoin:miter;stroke-miterlimit:4;stroke-dasharray:none;stroke-dashoffset:0;stroke-opacity:1;paint-order:markers stroke fill"
         id="rect6569"
         width="6.837575"
         height="4.686728"
         x="-1891.6439"
         y="-800.53058"
         ry="0.80162728" />
      <rect
         ry="0.73996353"
         y="-800.35034"
         x="-1891.381"
         height="4.3262105"
         width="6.3116064"
         id="rect6571"
         style="opacity:1;fill:#01597c;fill-opacity:1;stroke:none;stroke-width:0.91410315;stroke-linecap:round;stroke-linejoin:miter;stroke-miterlimit:4;stroke-dasharray:none;stroke-dashoffset:0;stroke-opacity:1;paint-order:markers stroke fill" />
      <path
         inkscape:connector-curvature="0"
         id="path6573"
         d="m -1891.426,-799.70451 c -0.311,0 -0.026,0.25132 -0.026,0.56344 v 0.92263 h 6.5673 v -0.24077 c 0,-0.3434 0.2101,-0.61998 -0.1322,-0.61998 h -2.5369 c -0.038,0 -0.074,0.005 -0.1097,0.0112 v -0.0731 c 0,-0.31212 -0.2506,-0.56344 -0.5617,-0.56344 z"
         style="opacity:1;fill:#c9e9f1;fill-opacity:1;stroke:none;stroke-width:0.61793548;stroke-linecap:round;stroke-linejoin:miter;stroke-miterlimit:4;stroke-dasharray:none;stroke-dashoffset:0;stroke-opacity:1;paint-order:markers stroke fill"
         sodipodi:nodetypes="csccssscscc" />
      <path
         sodipodi:nodetypes="csccssscscc"
         style="opacity:1;fill:#01a6ca;fill-opacity:1;stroke:none;stroke-width:0.65686893;stroke-linecap:round;stroke-linejoin:miter;stroke-miterlimit:4;stroke-dasharray:none;stroke-dashoffset:0;stroke-opacity:1;paint-order:markers stroke fill"
         d="m -1892.1688,-799.50235 c -0.3307,0 -0.2531,0.26716 -0.2531,0.59894 v 3.1138 h 7.9178 v -0.25594 c 0,-0.36504 0.097,-2.79208 -0.2666,-2.79208 h -3.5074 c -0.04,0 -0.079,0.005 -0.1167,0.0119 v -0.0777 c 0,-0.33179 -0.2664,-0.59894 -0.5971,-0.59894 z"
         id="path6575"
         inkscape:connector-curvature="0" />
      <g
         transform="translate(5.7764,-6.24408)"
         id="g6601">
        <path
           sodipodi:nodetypes="ssssssssssssssssss"
           inkscape:connector-curvature="0"
           style="opacity:1;fill:#01597c;fill-opacity:1;stroke:none;stroke-width:0.14065573;stroke-linecap:round;stroke-linejoin:miter;stroke-miterlimit:4;stroke-dasharray:none;stroke-dashoffset:0;stroke-opacity:1;paint-order:markers stroke fill"
           d="m -1897.3485,-792.28583 c -0.1486,0 -0.2683,0.11963 -0.2683,0.26823 v 2.30159 c 0,0.14861 0.1194,0.2689 0.2683,0.2689 h 2.3021 c 0.1488,0 0.2683,-0.1203 0.2683,-0.2689 v -2.30159 c 0,-0.14861 -0.1194,-0.26823 -0.2683,-0.26823 z m 0.1884,0.23353 h 1.9246 c 0.1248,0 0.2245,0.0996 0.2245,0.22386 v 1.92394 c 0,0.12419 -0.1005,0.22454 -0.2245,0.22454 h -1.9246 c -0.1247,0 -0.2238,-0.10045 -0.2238,-0.22454 v -1.92394 c 0,-0.12419 0.1005,-0.22386 0.2238,-0.22386 z"
           id="path6579" />
        <path
           id="path6581"
           d="m -1896.4394,-792.07689 c -0.014,0 -0.025,0.0114 -0.025,0.0254 v 0.21772 c 0,0.014 0.012,0.0254 0.025,0.0254 h 0.2178 c 0.014,0 0.025,-0.0114 0.025,-0.0254 v -0.21772 c 0,-0.014 -0.012,-0.0254 -0.025,-0.0254 z"
           style="opacity:1;fill:#01597c;fill-opacity:1;stroke:none;stroke-width:0.01330491;stroke-linecap:round;stroke-linejoin:miter;stroke-miterlimit:4;stroke-dasharray:none;stroke-dashoffset:0;stroke-opacity:1;paint-order:markers stroke fill"
           inkscape:connector-curvature="0"
           sodipodi:nodetypes="sssssssss" />
        <path
           sodipodi:nodetypes="sssssssss"
           inkscape:connector-curvature="0"
           style="opacity:1;fill:#01597c;fill-opacity:1;stroke:none;stroke-width:0.01330491;stroke-linecap:round;stroke-linejoin:miter;stroke-miterlimit:4;stroke-dasharray:none;stroke-dashoffset:0;stroke-opacity:1;paint-order:markers stroke fill"
           d="m -1896.1708,-791.80834 c -0.014,0 -0.025,0.0114 -0.025,0.0254 v 0.21771 c 0,0.014 0.012,0.0254 0.025,0.0254 h 0.2178 c 0.014,0 0.025,-0.0114 0.025,-0.0254 v -0.21771 c 0,-0.014 -0.012,-0.0254 -0.025,-0.0254 z"
           id="path6585" />
        <path
           id="path6587"
           d="m -1896.4394,-791.53979 c -0.014,0 -0.025,0.0114 -0.025,0.0254 v 0.21771 c 0,0.014 0.012,0.0254 0.025,0.0254 h 0.2178 c 0.014,0 0.025,-0.0114 0.025,-0.0254 v -0.21771 c 0,-0.014 -0.012,-0.0254 -0.025,-0.0254 z"
           style="opacity:1;fill:#01597c;fill-opacity:1;stroke:none;stroke-width:0.01330491;stroke-linecap:round;stroke-linejoin:miter;stroke-miterlimit:4;stroke-dasharray:none;stroke-dashoffset:0;stroke-opacity:1;paint-order:markers stroke fill"
           inkscape:connector-curvature="0"
           sodipodi:nodetypes="sssssssss" />
        <path
           style="opacity:1;fill:#01597c;fill-opacity:1;stroke:none;stroke-width:0.01330491;stroke-linecap:round;stroke-linejoin:miter;stroke-miterlimit:4;stroke-dasharray:none;stroke-dashoffset:0;stroke-opacity:1;paint-order:markers stroke fill"
           d="m -1896.1709,-791.27129 c -0.014,0 -0.025,0.0114 -0.025,0.0254 v 0.21764 c 2e-4,0.0252 -0.021,0.0218 -0.025,0.0255 h -0.218 c -0.014,0 -0.026,0.0114 -0.026,0.0254 v 0.21763 c 0,0.014 0.012,0.0255 0.026,0.0255 h 0.218 c 0.051,0 0,0 0.051,0 h 0.2181 c 0.014,0 0.025,-0.0114 0.025,-0.0255 v -0.4863 c 0,-0.014 -0.011,-0.0254 -0.025,-0.0254 z"
           id="path6589"
           inkscape:connector-curvature="0"
           sodipodi:nodetypes="ssccssssccsccss" />
      </g>
    </g>
  </g>
</svg>
