<?xml version="1.0" encoding="UTF-8" standalone="no"?>
<!-- Created with Inkscape (http://www.inkscape.org/) -->

<svg
   xmlns:dc="http://purl.org/dc/elements/1.1/"
   xmlns:cc="http://creativecommons.org/ns#"
   xmlns:rdf="http://www.w3.org/1999/02/22-rdf-syntax-ns#"
   xmlns:svg="http://www.w3.org/2000/svg"
   xmlns="http://www.w3.org/2000/svg"
   xmlns:sodipodi="http://sodipodi.sourceforge.net/DTD/sodipodi-0.dtd"
   xmlns:inkscape="http://www.inkscape.org/namespaces/inkscape"
   width="32"
   version="1.1"
   height="32"
   viewBox="0 0 32 32"
   id="svg17"
   sodipodi:docname="folder-image.svg"
   inkscape:version="0.92.2 (unknown)">
  <sodipodi:namedview
     pagecolor="#ffffff"
     bordercolor="#666666"
     borderopacity="1"
     objecttolerance="10"
     gridtolerance="10"
     guidetolerance="10"
     inkscape:pageopacity="0"
     inkscape:pageshadow="2"
     inkscape:window-width="1868"
     inkscape:window-height="1050"
     id="namedview19"
     showgrid="false"
     inkscape:zoom="7.375"
     inkscape:cx="16"
     inkscape:cy="16"
     inkscape:window-x="52"
     inkscape:window-y="0"
     inkscape:window-maximized="1"
     inkscape:current-layer="layer1" />
  <defs
     id="defs5455" />
  <metadata
     id="metadata5458">
    <rdf:RDF>
      <cc:Work
         rdf:about="">
        <dc:format>image/svg+xml</dc:format>
        <dc:type
           rdf:resource="http://purl.org/dc/dcmitype/StillImage" />
      </cc:Work>
    </rdf:RDF>
  </metadata>
  <g
     inkscape:label="Capa 1"
     inkscape:groupmode="layer"
     id="layer1"
     transform="matrix(1 0 0 1 -384.57143 -515.798)">
    <g
       id="g5441"
       transform="matrix(3.7795276,0,0,3.7795276,7498.8893,3500.1237)">
      <path
         style="opacity:1;fill:#01a6ca;fill-opacity:1;stroke:none;stroke-width:1.29226601;stroke-linecap:round;stroke-linejoin:miter;stroke-miterlimit:4;stroke-dasharray:none;stroke-dashoffset:0;stroke-opacity:1;paint-order:markers stroke fill"
         d="m -1882.0633,-784.72541 v 1.41453 c 0,0.65166 0.5247,1.17606 1.1764,1.17606 h 5.5826 c 0.6516,0 1.1763,-0.5244 1.1763,-1.17606 v -1.41453 z"
         id="path5354"
         inkscape:connector-curvature="0" />
      <rect
         ry="1.106557"
         y="-788.60425"
         x="-1881.5929"
         height="6.4695044"
         width="7.4648123"
         id="rect5356"
         style="opacity:1;fill:#01a6ca;fill-opacity:1;stroke:none;stroke-width:1.21567178;stroke-linecap:round;stroke-linejoin:miter;stroke-miterlimit:4;stroke-dasharray:none;stroke-dashoffset:0;stroke-opacity:1;paint-order:markers stroke fill" />
      <rect
         style="opacity:1;fill:#c9e9f1;fill-opacity:1;stroke:none;stroke-width:0.9902783;stroke-linecap:round;stroke-linejoin:miter;stroke-miterlimit:4;stroke-dasharray:none;stroke-dashoffset:0;stroke-opacity:1;paint-order:markers stroke fill"
         id="rect5358"
         width="6.837575"
         height="4.686728"
         x="-1881.2794"
         y="-788.17291"
         ry="0.80162728" />
      <rect
         ry="0.73996353"
         y="-787.99268"
         x="-1881.0165"
         height="4.3262105"
         width="6.3116064"
         id="rect5360"
         style="opacity:1;fill:#01597c;fill-opacity:1;stroke:none;stroke-width:0.91410315;stroke-linecap:round;stroke-linejoin:miter;stroke-miterlimit:4;stroke-dasharray:none;stroke-dashoffset:0;stroke-opacity:1;paint-order:markers stroke fill" />
      <path
         inkscape:connector-curvature="0"
         id="path5362"
         d="m -1881.0615,-787.34682 c -0.311,0 -0.026,0.25132 -0.026,0.56344 v 0.92263 h 6.5673 v -0.24077 c 0,-0.3434 0.2101,-0.61998 -0.1322,-0.61998 h -2.5369 c -0.038,0 -0.074,0.005 -0.1097,0.0112 v -0.0731 c 0,-0.31212 -0.2506,-0.56344 -0.5617,-0.56344 z"
         style="opacity:1;fill:#c9e9f1;fill-opacity:1;stroke:none;stroke-width:0.61793548;stroke-linecap:round;stroke-linejoin:miter;stroke-miterlimit:4;stroke-dasharray:none;stroke-dashoffset:0;stroke-opacity:1;paint-order:markers stroke fill"
         sodipodi:nodetypes="csccssscscc" />
      <path
         sodipodi:nodetypes="csccssscscc"
         style="opacity:1;fill:#01a6ca;fill-opacity:1;stroke:none;stroke-width:0.65686893;stroke-linecap:round;stroke-linejoin:miter;stroke-miterlimit:4;stroke-dasharray:none;stroke-dashoffset:0;stroke-opacity:1;paint-order:markers stroke fill"
         d="m -1881.8043,-787.14466 c -0.3307,0 -0.2531,0.26716 -0.2531,0.59894 v 3.1138 h 7.9178 v -0.25594 c 0,-0.36504 0.097,-2.79208 -0.2666,-2.79208 h -3.5074 c -0.04,0 -0.079,0.005 -0.1167,0.0119 v -0.0777 c 0,-0.33179 -0.2664,-0.59894 -0.5971,-0.59894 z"
         id="path5364"
         inkscape:connector-curvature="0" />
      <path
         sodipodi:nodetypes="ssssssssssssssssss"
         inkscape:connector-curvature="0"
         style="opacity:1;fill:#01597c;fill-opacity:1;stroke:none;stroke-width:0.14065573;stroke-linecap:round;stroke-linejoin:miter;stroke-miterlimit:4;stroke-dasharray:none;stroke-dashoffset:0;stroke-opacity:1;paint-order:markers stroke fill"
         d="m -1881.2076,-786.17222 c -0.1486,0 -0.2683,0.11963 -0.2683,0.26823 v 2.30159 c 0,0.14861 0.1194,0.2689 0.2683,0.2689 h 2.3021 c 0.1488,0 0.2683,-0.1203 0.2683,-0.2689 v -2.30159 c 0,-0.14861 -0.1194,-0.26823 -0.2683,-0.26823 z m 0.1884,0.23353 h 1.9246 c 0.1248,0 0.2245,0.0996 0.2245,0.22386 v 1.92394 c 0,0.12419 -0.1005,0.22454 -0.2245,0.22454 h -1.9246 c -0.1247,0 -0.2238,-0.10045 -0.2238,-0.22454 v -1.92394 c 0,-0.12419 0.1005,-0.22386 0.2238,-0.22386 z"
         id="path5372" />
      <circle
         r="0.35553384"
         cy="-785.38116"
         cx="-1880.6528"
         id="path5413"
         style="opacity:1;fill:#01597c;fill-opacity:1;stroke:none;stroke-width:0.04205457;stroke-linecap:round;stroke-linejoin:round;stroke-miterlimit:4;stroke-dasharray:none;stroke-dashoffset:0;stroke-opacity:1;paint-order:fill markers stroke" />
      <g
         transform="translate(5.3379373,3.0131464)"
         id="g5428">
        <path
           sodipodi:type="star"
           style="opacity:1;fill:#01597c;fill-opacity:1;stroke:none;stroke-width:0.05476875;stroke-linecap:round;stroke-linejoin:round;stroke-miterlimit:4;stroke-dasharray:none;stroke-dashoffset:0;stroke-opacity:1;paint-order:fill markers stroke"
           id="path5415"
           sodipodi:sides="3"
           sodipodi:cx="-1884.8131"
           sodipodi:cy="-787.14374"
           sodipodi:r1="0.60136801"
           sodipodi:r2="0.30068401"
           sodipodi:arg1="0.46364761"
           sodipodi:arg2="1.5108452"
           inkscape:flatsided="true"
           inkscape:rounded="0.1"
           inkscape:randomized="0"
           d="m -1884.2752,-786.8748 c -0.047,0.0932 -0.9824,0.14933 -1.0398,0.0624 -0.057,-0.0869 0.3619,-0.92539 0.4659,-0.93164 0.1039,-0.006 0.6205,0.77607 0.5739,0.86923 z"
           inkscape:transform-center-x="0.040236059"
           inkscape:transform-center-y="0.01645937"
           transform="matrix(1.6087178,0.06401034,-0.10318619,0.99794924,1066.0738,119.03204)" />
        <path
           style="opacity:1;fill:#01597c;fill-opacity:1;stroke:none;stroke-width:0.0604057;stroke-linecap:round;stroke-linejoin:round;stroke-miterlimit:4;stroke-dasharray:none;stroke-dashoffset:0;stroke-opacity:1;paint-order:fill markers stroke"
           d="m -1885.4676,-787.68338 c -0.1458,-3.7e-4 -0.8071,0.70292 -0.7347,0.78146 0.022,0.0239 0.1715,0.0387 0.3538,0.0485 -0.026,-0.0893 0.2809,-0.44935 0.5655,-0.71877 -0.08,-0.0672 -0.1482,-0.11104 -0.1846,-0.11116 z"
           id="path5417"
           inkscape:connector-curvature="0" />
      </g>
    </g>
  </g>
</svg>
