<?xml version="1.0" encoding="UTF-8" standalone="no"?>
<!-- Created with Inkscape (http://www.inkscape.org/) -->

<svg
   xmlns:dc="http://purl.org/dc/elements/1.1/"
   xmlns:cc="http://creativecommons.org/ns#"
   xmlns:rdf="http://www.w3.org/1999/02/22-rdf-syntax-ns#"
   xmlns:svg="http://www.w3.org/2000/svg"
   xmlns="http://www.w3.org/2000/svg"
   xmlns:sodipodi="http://sodipodi.sourceforge.net/DTD/sodipodi-0.dtd"
   xmlns:inkscape="http://www.inkscape.org/namespaces/inkscape"
   width="32"
   version="1.1"
   height="32"
   viewBox="0 0 32 32"
   id="svg17"
   sodipodi:docname="folder-print.svg"
   inkscape:version="0.92.2 (unknown)">
  <sodipodi:namedview
     pagecolor="#ffffff"
     bordercolor="#666666"
     borderopacity="1"
     objecttolerance="10"
     gridtolerance="10"
     guidetolerance="10"
     inkscape:pageopacity="0"
     inkscape:pageshadow="2"
     inkscape:window-width="1868"
     inkscape:window-height="1050"
     id="namedview19"
     showgrid="false"
     inkscape:zoom="7.375"
     inkscape:cx="16"
     inkscape:cy="16"
     inkscape:window-x="52"
     inkscape:window-y="0"
     inkscape:window-maximized="1"
     inkscape:current-layer="layer1" />
  <defs
     id="defs5455" />
  <metadata
     id="metadata5458">
    <rdf:RDF>
      <cc:Work
         rdf:about="">
        <dc:format>image/svg+xml</dc:format>
        <dc:type
           rdf:resource="http://purl.org/dc/dcmitype/StillImage" />
      </cc:Work>
    </rdf:RDF>
  </metadata>
  <g
     inkscape:label="Capa 1"
     inkscape:groupmode="layer"
     id="layer1"
     transform="matrix(1 0 0 1 -384.57143 -515.798)">
    <g
       id="g6263"
       transform="matrix(3.7795276,0,0,3.7795276,7491.8182,3524.1653)">
      <path
         style="opacity:1;fill:#01a6ca;fill-opacity:1;stroke:none;stroke-width:1.29226601;stroke-linecap:round;stroke-linejoin:miter;stroke-miterlimit:4;stroke-dasharray:none;stroke-dashoffset:0;stroke-opacity:1;paint-order:markers stroke fill"
         d="m -1880.1924,-791.08643 v 1.41453 c 0,0.65166 0.5247,1.17606 1.1764,1.17606 h 5.5826 c 0.6516,0 1.1763,-0.5244 1.1763,-1.17606 v -1.41453 z"
         id="path6224"
         inkscape:connector-curvature="0" />
      <rect
         ry="1.106557"
         y="-794.96527"
         x="-1879.722"
         height="6.4695044"
         width="7.4648123"
         id="rect6226"
         style="opacity:1;fill:#01a6ca;fill-opacity:1;stroke:none;stroke-width:1.21567178;stroke-linecap:round;stroke-linejoin:miter;stroke-miterlimit:4;stroke-dasharray:none;stroke-dashoffset:0;stroke-opacity:1;paint-order:markers stroke fill" />
      <rect
         style="opacity:1;fill:#c9e9f1;fill-opacity:1;stroke:none;stroke-width:0.9902783;stroke-linecap:round;stroke-linejoin:miter;stroke-miterlimit:4;stroke-dasharray:none;stroke-dashoffset:0;stroke-opacity:1;paint-order:markers stroke fill"
         id="rect6228"
         width="6.837575"
         height="4.686728"
         x="-1879.4086"
         y="-794.53394"
         ry="0.80162728" />
      <rect
         ry="0.73996353"
         y="-794.3537"
         x="-1879.1456"
         height="4.3262105"
         width="6.3116064"
         id="rect6230"
         style="opacity:1;fill:#01597c;fill-opacity:1;stroke:none;stroke-width:0.91410315;stroke-linecap:round;stroke-linejoin:miter;stroke-miterlimit:4;stroke-dasharray:none;stroke-dashoffset:0;stroke-opacity:1;paint-order:markers stroke fill" />
      <path
         inkscape:connector-curvature="0"
         id="path6232"
         d="m -1879.1906,-793.70784 c -0.311,0 -0.026,0.25132 -0.026,0.56344 v 0.92263 h 6.5673 v -0.24077 c 0,-0.3434 0.2101,-0.61998 -0.1322,-0.61998 h -2.5369 c -0.038,0 -0.074,0.005 -0.1097,0.0112 v -0.0731 c 0,-0.31212 -0.2506,-0.56344 -0.5617,-0.56344 z"
         style="opacity:1;fill:#c9e9f1;fill-opacity:1;stroke:none;stroke-width:0.61793548;stroke-linecap:round;stroke-linejoin:miter;stroke-miterlimit:4;stroke-dasharray:none;stroke-dashoffset:0;stroke-opacity:1;paint-order:markers stroke fill"
         sodipodi:nodetypes="csccssscscc" />
      <path
         sodipodi:nodetypes="csccssscscc"
         style="opacity:1;fill:#01a6ca;fill-opacity:1;stroke:none;stroke-width:0.65686893;stroke-linecap:round;stroke-linejoin:miter;stroke-miterlimit:4;stroke-dasharray:none;stroke-dashoffset:0;stroke-opacity:1;paint-order:markers stroke fill"
         d="m -1879.9334,-793.50568 c -0.3307,0 -0.2531,0.26716 -0.2531,0.59894 v 3.1138 h 7.9178 v -0.25594 c 0,-0.36504 0.097,-2.79208 -0.2666,-2.79208 h -3.5074 c -0.04,0 -0.079,0.005 -0.1167,0.0119 v -0.0777 c 0,-0.33179 -0.2664,-0.59894 -0.5971,-0.59894 z"
         id="path6234"
         inkscape:connector-curvature="0" />
      <g
         transform="matrix(1.0719533,0,0,1.0719533,140.99811,56.424105)"
         id="g6250">
        <path
           sodipodi:nodetypes="ssssssssssssssssss"
           inkscape:connector-curvature="0"
           style="opacity:1;fill:#01597c;fill-opacity:1;stroke:none;stroke-width:0.14065573;stroke-linecap:round;stroke-linejoin:miter;stroke-miterlimit:4;stroke-dasharray:none;stroke-dashoffset:0;stroke-opacity:1;paint-order:markers stroke fill"
           d="m -1884.4455,-791.97232 c -0.1486,0 -0.2683,0.11963 -0.2683,0.26823 v 0.50015 c 0,0.14861 0.1194,0.21628 0.2683,0.21628 h 1.5713 c 0.1488,0 0.2683,-0.0677 0.2683,-0.21628 v -0.50015 c 0,-0.14861 -0.1194,-0.26823 -0.2683,-0.26823 z m 0.1884,0.23353 h 1.1938 c 0.1248,0 0.2245,0.0996 0.2245,0.22386 v 0.1225 c 0,0.12419 -0.1005,0.22454 -0.2245,0.22454 h -1.1938 c -0.1247,0 -0.2238,-0.10045 -0.2238,-0.22454 v -0.1225 c 0,-0.12419 0.1005,-0.22386 0.2238,-0.22386 z"
           id="path6238" />
        <path
           id="path6240"
           d="m -1884.7013,-791.15813 c -0.1486,0 -0.2683,0.11963 -0.2683,0.26823 v 0.773 c 0,0.14861 0.1194,0.2689 0.2683,0.2689 h 2.1046 c 0.1488,0 0.2683,-0.1203 0.2683,-0.2689 v -0.773 c 0,-0.14861 -0.1194,-0.26823 -0.2683,-0.26823 z m 0.1884,0.23353 h 1.7271 c 0.1248,0 0.2245,0.0996 0.2245,0.22386 v 0.39535 c 0,0.12419 -0.1005,0.22454 -0.2245,0.22454 h -1.7271 c -0.1247,0 -0.2238,-0.10045 -0.2238,-0.22454 v -0.39535 c 0,-0.12419 0.1005,-0.22386 0.2238,-0.22386 z"
           style="opacity:1;fill:#01597c;fill-opacity:1;stroke:none;stroke-width:0.14065573;stroke-linecap:round;stroke-linejoin:miter;stroke-miterlimit:4;stroke-dasharray:none;stroke-dashoffset:0;stroke-opacity:1;paint-order:markers stroke fill"
           inkscape:connector-curvature="0"
           sodipodi:nodetypes="ssssssssssssssssss" />
        <path
           id="path6242"
           d="m -1884.1824,-790.36143 c -0.1486,0 -0.2683,0.11963 -0.2683,0.26823 v 0.50015 c 0,0.14861 0.1194,0.2689 0.2683,0.2689 h 1.0568 c 0.1488,0 0.2683,-0.1203 0.2683,-0.2689 v -0.50015 c 0,-0.14861 -0.1194,-0.26823 -0.2683,-0.26823 z m 0.1884,0.34169 h 0.6793 c 0.1248,0 0.2245,-0.009 0.2245,0.1157 v 0.1225 c 0,0.12419 -0.1005,0.22454 -0.2245,0.22454 h -0.6793 c -0.1247,0 -0.2238,-0.10045 -0.2238,-0.22454 v -0.1225 c 0,-0.12419 0.1005,-0.1157 0.2238,-0.1157 z"
           style="opacity:1;fill:#01597c;fill-opacity:1;stroke:none;stroke-width:0.14065573;stroke-linecap:round;stroke-linejoin:miter;stroke-miterlimit:4;stroke-dasharray:none;stroke-dashoffset:0;stroke-opacity:1;paint-order:markers stroke fill"
           inkscape:connector-curvature="0"
           sodipodi:nodetypes="ssssssssssssssssss" />
        <path
           sodipodi:nodetypes="sssssssss"
           inkscape:connector-curvature="0"
           style="opacity:1;fill:#01597c;fill-opacity:1;stroke:none;stroke-width:0.03526515;stroke-linecap:round;stroke-linejoin:miter;stroke-miterlimit:4;stroke-dasharray:none;stroke-dashoffset:0;stroke-opacity:1;paint-order:markers stroke fill"
           d="m -1883.1263,-790.8899 c -0.037,0 -0.067,0.03 -0.067,0.0673 v 0.1254 c 0,0.0373 0.03,0.0674 0.067,0.0674 h 0.2649 c 0.037,0 0.067,-0.0302 0.067,-0.0674 v -0.1254 c 0,-0.0373 -0.03,-0.0673 -0.067,-0.0673 z"
           id="path6244" />
      </g>
    </g>
  </g>
</svg>
