<?xml version="1.0" encoding="UTF-8" standalone="no"?>
<!-- Created with Inkscape (http://www.inkscape.org/) -->

<svg
   xmlns:dc="http://purl.org/dc/elements/1.1/"
   xmlns:cc="http://creativecommons.org/ns#"
   xmlns:rdf="http://www.w3.org/1999/02/22-rdf-syntax-ns#"
   xmlns:svg="http://www.w3.org/2000/svg"
   xmlns="http://www.w3.org/2000/svg"
   xmlns:sodipodi="http://sodipodi.sourceforge.net/DTD/sodipodi-0.dtd"
   xmlns:inkscape="http://www.inkscape.org/namespaces/inkscape"
   width="32"
   version="1.1"
   height="32"
   viewBox="0 0 32 32"
   id="svg44"
   sodipodi:docname="folder-cloud.svg"
   inkscape:version="0.92.2 (unknown)">
  <sodipodi:namedview
     pagecolor="#ffffff"
     bordercolor="#666666"
     borderopacity="1"
     objecttolerance="10"
     gridtolerance="10"
     guidetolerance="10"
     inkscape:pageopacity="0"
     inkscape:pageshadow="2"
     inkscape:window-width="1280"
     inkscape:window-height="994"
     id="namedview46"
     showgrid="false"
     inkscape:zoom="7.375"
     inkscape:cx="16"
     inkscape:cy="16"
     inkscape:window-x="1920"
     inkscape:window-y="0"
     inkscape:window-maximized="1"
     inkscape:current-layer="layer1" />
  <defs
     id="defs5455" />
  <metadata
     id="metadata5458">
    <rdf:RDF>
      <cc:Work
         rdf:about="">
        <dc:format>image/svg+xml</dc:format>
        <dc:type
           rdf:resource="http://purl.org/dc/dcmitype/StillImage" />
      </cc:Work>
    </rdf:RDF>
  </metadata>
  <g
     inkscape:label="Capa 1"
     inkscape:groupmode="layer"
     id="layer1"
     transform="matrix(1 0 0 1 -384.57143 -515.798)">
    <rect
       width="0"
       x="351.19043"
       y="514.59546"
       height="10.477185"
       style="fill:#4d4d4d"
       id="rect4035" />
    <rect
       width="0"
       x="356.60422"
       y="530.71735"
       height="10.477185"
       style="fill:#4d4d4d"
       id="rect4035-8" />
    <rect
       width="0"
       x="358.01453"
       y="529.95966"
       height="10.477185"
       style="fill:#4d4d4d"
       id="rect4035-0" />
    <rect
       width="0"
       x="337.84668"
       y="511.89462"
       height="10.477185"
       style="fill:#4d4d4d"
       id="rect4035-06" />
    <rect
       width="0"
       x="343.26047"
       y="528.01648"
       height="10.477185"
       style="fill:#4d4d4d"
       id="rect4035-8-7" />
    <rect
       width="0"
       x="344.67078"
       y="527.25879"
       height="10.477185"
       style="fill:#4d4d4d"
       id="rect4035-0-42" />
    <rect
       width="0"
       x="337.84668"
       y="511.89462"
       height="10.477185"
       style="fill:#4d4d4d"
       id="rect4035-3" />
    <rect
       width="0"
       x="343.26047"
       y="528.01648"
       height="10.477185"
       style="fill:#4d4d4d"
       id="rect4035-8-9" />
    <rect
       width="0"
       x="344.67078"
       y="527.25879"
       height="10.477185"
       style="fill:#4d4d4d"
       id="rect4035-0-4" />
    <rect
       width="0"
       x="337.84668"
       y="511.89462"
       height="10.477185"
       style="fill:#4d4d4d"
       id="rect4035-2" />
    <rect
       width="0"
       x="343.26047"
       y="528.01648"
       height="10.477185"
       style="fill:#4d4d4d"
       id="rect4035-8-99" />
    <rect
       width="0"
       x="344.67078"
       y="527.25879"
       height="10.477185"
       style="fill:#4d4d4d"
       id="rect4035-0-43" />
    <rect
       width="0"
       x="337.84668"
       y="511.89462"
       height="10.477185"
       style="fill:#4d4d4d"
       id="rect4035-3-9" />
    <rect
       width="0"
       x="343.26047"
       y="528.01648"
       height="10.477185"
       style="fill:#4d4d4d"
       id="rect4035-8-9-9" />
    <rect
       width="0"
       x="344.67078"
       y="527.25879"
       height="10.477185"
       style="fill:#4d4d4d"
       id="rect4035-0-4-4" />
    <rect
       width="0"
       x="392.50122"
       y="527.10132"
       height="7.857131"
       style="fill:#4d4d4d"
       id="rect4035-5" />
    <rect
       width="0"
       x="388.96075"
       y="528.9007"
       height="7.857131"
       style="fill:#4d4d4d"
       id="rect4035-7" />
    <rect
       width="0"
       x="385.45471"
       y="520.03027"
       height="7.857131"
       style="fill:#4d4d4d"
       id="rect4035-9" />
    <rect
       width="0"
       x="386.11118"
       y="528.7713"
       height="7.857131"
       style="fill:#4d4d4d"
       id="rect4035-96" />
    <rect
       width="0"
       x="382.57071"
       y="530.57062"
       height="7.857131"
       style="fill:#4d4d4d"
       id="rect4035-7-0" />
    <rect
       width="0"
       x="379.06467"
       y="521.70026"
       height="7.857131"
       style="fill:#4d4d4d"
       id="rect4035-9-6" />
    <rect
       width="0"
       x="392.50122"
       y="527.10132"
       height="7.857131"
       style="fill:#4d4d4d"
       id="rect4035-1" />
    <rect
       width="0"
       x="388.96075"
       y="528.9007"
       height="7.857131"
       style="fill:#4d4d4d"
       id="rect4035-7-2" />
    <rect
       width="0"
       x="385.45471"
       y="520.03027"
       height="7.857131"
       style="fill:#4d4d4d"
       id="rect4035-9-0" />
    <rect
       width="0"
       x="386.11118"
       y="528.7713"
       height="7.857131"
       style="fill:#4d4d4d"
       id="rect4035-96-9" />
    <rect
       width="0"
       x="382.57071"
       y="530.57062"
       height="7.857131"
       style="fill:#4d4d4d"
       id="rect4035-7-0-9" />
    <rect
       width="0"
       x="379.06467"
       y="521.70026"
       height="7.857131"
       style="fill:#4d4d4d"
       id="rect4035-9-6-9" />
    <g
       transform="matrix(3.7795276,0,0,3.7795276,7647.6398,3412.1236)"
       id="g3942">
      <g
         id="g3907"
         transform="matrix(0.49037476,0,0,0.49037476,-1029.6461,-426.09107)">
        <path
           style="opacity:1;fill:#01a6ca;fill-opacity:1;stroke:none;stroke-width:2.63526201;stroke-linecap:round;stroke-linejoin:miter;stroke-miterlimit:4;stroke-dasharray:none;stroke-dashoffset:0;stroke-opacity:1;paint-order:markers stroke fill"
           d="m -1818.5563,-683.86677 v 2.88459 c 0,1.3289 1.07,2.39829 2.3989,2.39829 h 11.3843 c 1.3289,0 2.3988,-1.06939 2.3988,-2.39829 v -2.88459 z"
           id="path3889"
           inkscape:connector-curvature="0" />
        <rect
           ry="2.2565536"
           y="-691.77667"
           x="-1817.597"
           height="13.19298"
           width="15.222669"
           id="rect3891"
           style="opacity:1;fill:#01a6ca;fill-opacity:1;stroke:none;stroke-width:2.47906685;stroke-linecap:round;stroke-linejoin:miter;stroke-miterlimit:4;stroke-dasharray:none;stroke-dashoffset:0;stroke-opacity:1;paint-order:markers stroke fill" />
        <rect
           style="opacity:1;fill:#c9e9f1;fill-opacity:1;stroke:none;stroke-width:2.01943159;stroke-linecap:round;stroke-linejoin:miter;stroke-miterlimit:4;stroke-dasharray:none;stroke-dashoffset:0;stroke-opacity:1;paint-order:markers stroke fill"
           id="rect3893"
           width="13.94357"
           height="9.5574417"
           x="-1816.9579"
           y="-690.89709"
           ry="1.6347238" />
        <rect
           ry="1.5089756"
           y="-690.52954"
           x="-1816.4218"
           height="8.8222532"
           width="12.870985"
           id="rect3895"
           style="opacity:1;fill:#01597c;fill-opacity:1;stroke:none;stroke-width:1.86409092;stroke-linecap:round;stroke-linejoin:miter;stroke-miterlimit:4;stroke-dasharray:none;stroke-dashoffset:0;stroke-opacity:1;paint-order:markers stroke fill" />
        <path
           inkscape:connector-curvature="0"
           id="path3897"
           d="m -1816.5134,-689.21249 c -0.6343,0 -0.054,0.51251 -0.054,1.149 v 1.88148 h 13.3924 v -0.49099 c 0,-0.70028 0.4283,-1.2643 -0.2697,-1.2643 h -5.1733 c -0.077,0 -0.152,0.01 -0.2238,0.0229 v -0.14906 c 0,-0.63649 -0.5111,-1.14899 -1.1455,-1.14899 z"
           style="opacity:1;fill:#c9e9f1;fill-opacity:1;stroke:none;stroke-width:1.26012909;stroke-linecap:round;stroke-linejoin:miter;stroke-miterlimit:4;stroke-dasharray:none;stroke-dashoffset:0;stroke-opacity:1;paint-order:markers stroke fill"
           sodipodi:nodetypes="csccssscscc" />
        <path
           sodipodi:nodetypes="csccssscscc"
           style="opacity:1;fill:#01a6ca;fill-opacity:1;stroke:none;stroke-width:1.33952439;stroke-linecap:round;stroke-linejoin:miter;stroke-miterlimit:4;stroke-dasharray:none;stroke-dashoffset:0;stroke-opacity:1;paint-order:markers stroke fill"
           d="m -1818.0282,-688.80023 c -0.6743,0 -0.5161,0.5448 -0.5161,1.22139 v 6.34983 h 16.1464 v -0.52192 c 0,-0.74441 0.1983,-5.69377 -0.5436,-5.69377 h -7.1526 c -0.082,0 -0.1615,0.0102 -0.238,0.0243 v -0.15845 c 0,-0.67659 -0.5432,-1.22139 -1.2175,-1.22139 z"
           id="path3899"
           inkscape:connector-curvature="0" />
        <g
           transform="matrix(2.7348984,0,0,2.7348984,3320.4587,954.07425)"
           id="g3905" />
      </g>
      <path
         inkscape:connector-curvature="0"
         style="fill:#01597c;fill-opacity:1;stroke-width:0.23655954;stroke-linejoin:round"
         id="path3751"
         d="m -1919.4121,-762.65236 a 0.94623821,0.94623821 0 0 0 -0.9463,0.94624 0.94623821,0.94623821 0 0 0 0,0.0407 0.70967556,0.70967556 0 0 0 -0.4745,0.66902 0.70967556,0.70967556 0 0 0 0.7097,0.70968 h 1.3011 a 0.82795844,0.82795844 0 0 0 0.8279,-0.82797 0.82795844,0.82795844 0 0 0 -0.4875,-0.75402 0.94623821,0.94623821 0 0 0 -0.9318,-0.78361 z m 0,0.23655 a 0.70967867,0.70967867 0 0 1 0.7096,0.70969 0.70967867,0.70967867 0 0 1 -5e-4,0.012 0.59139889,0.59139889 0 0 1 0.4737,0.57938 0.59139889,0.59139889 0 0 1 -0.5915,0.5914 h -1.301 a 0.4731177,0.4731191 0 0 1 -0.4732,-0.47313 0.4731177,0.4731191 0 0 1 0.4732,-0.4731 0.4731177,0.4731191 0 0 1 0.043,0.002 0.70967867,0.70967867 0 0 1 -0.043,-0.2384 0.70967867,0.70967867 0 0 1 0.7097,-0.70968 z" />
    </g>
  </g>
</svg>
