<?xml version="1.0" encoding="UTF-8" standalone="no"?>
<!-- Created with Inkscape (http://www.inkscape.org/) -->

<svg
   xmlns:dc="http://purl.org/dc/elements/1.1/"
   xmlns:cc="http://creativecommons.org/ns#"
   xmlns:rdf="http://www.w3.org/1999/02/22-rdf-syntax-ns#"
   xmlns:svg="http://www.w3.org/2000/svg"
   xmlns="http://www.w3.org/2000/svg"
   xmlns:sodipodi="http://sodipodi.sourceforge.net/DTD/sodipodi-0.dtd"
   xmlns:inkscape="http://www.inkscape.org/namespaces/inkscape"
   width="32"
   version="1.1"
   height="32"
   viewBox="0 0 32 32"
   id="svg17"
   sodipodi:docname="folder-development.svg"
   inkscape:version="0.92.2 (unknown)">
  <sodipodi:namedview
     pagecolor="#ffffff"
     bordercolor="#666666"
     borderopacity="1"
     objecttolerance="10"
     gridtolerance="10"
     guidetolerance="10"
     inkscape:pageopacity="0"
     inkscape:pageshadow="2"
     inkscape:window-width="1280"
     inkscape:window-height="994"
     id="namedview19"
     showgrid="false"
     inkscape:zoom="5.2149125"
     inkscape:cx="10.119255"
     inkscape:cy="5.2725708"
     inkscape:window-x="1920"
     inkscape:window-y="0"
     inkscape:window-maximized="1"
     inkscape:current-layer="layer1" />
  <defs
     id="defs5455" />
  <metadata
     id="metadata5458">
    <rdf:RDF>
      <cc:Work
         rdf:about="">
        <dc:format>image/svg+xml</dc:format>
        <dc:type
           rdf:resource="http://purl.org/dc/dcmitype/StillImage" />
      </cc:Work>
    </rdf:RDF>
  </metadata>
  <g
     inkscape:label="Capa 1"
     inkscape:groupmode="layer"
     id="layer1"
     transform="matrix(1 0 0 1 -384.57143 -515.798)">
    <g
       transform="matrix(1.8533849,0,0,1.8533849,3756.0639,1801.7006)"
       id="g3721">
      <path
         style="opacity:1;fill:#01a6ca;fill-opacity:1;stroke:none;stroke-width:2.63526201;stroke-linecap:round;stroke-linejoin:miter;stroke-miterlimit:4;stroke-dasharray:none;stroke-dashoffset:0;stroke-opacity:1;paint-order:markers stroke fill"
         d="m -1818.5563,-683.86677 v 2.88459 c 0,1.3289 1.07,2.39829 2.3989,2.39829 h 11.3843 c 1.3289,0 2.3988,-1.06939 2.3988,-2.39829 v -2.88459 z"
         id="rect5237"
         inkscape:connector-curvature="0" />
      <rect
         ry="2.2565536"
         y="-691.77667"
         x="-1817.597"
         height="13.19298"
         width="15.222669"
         id="rect5227"
         style="opacity:1;fill:#01a6ca;fill-opacity:1;stroke:none;stroke-width:2.47906685;stroke-linecap:round;stroke-linejoin:miter;stroke-miterlimit:4;stroke-dasharray:none;stroke-dashoffset:0;stroke-opacity:1;paint-order:markers stroke fill" />
      <rect
         style="opacity:1;fill:#c9e9f1;fill-opacity:1;stroke:none;stroke-width:2.01943159;stroke-linecap:round;stroke-linejoin:miter;stroke-miterlimit:4;stroke-dasharray:none;stroke-dashoffset:0;stroke-opacity:1;paint-order:markers stroke fill"
         id="rect5229"
         width="13.94357"
         height="9.5574417"
         x="-1816.9579"
         y="-690.89709"
         ry="1.6347238" />
      <rect
         ry="1.5089756"
         y="-690.52954"
         x="-1816.4218"
         height="8.8222532"
         width="12.870985"
         id="rect5231"
         style="opacity:1;fill:#01597c;fill-opacity:1;stroke:none;stroke-width:1.86409092;stroke-linecap:round;stroke-linejoin:miter;stroke-miterlimit:4;stroke-dasharray:none;stroke-dashoffset:0;stroke-opacity:1;paint-order:markers stroke fill" />
      <path
         inkscape:connector-curvature="0"
         id="path5233"
         d="m -1816.5134,-689.21249 c -0.6343,0 -0.054,0.51251 -0.054,1.149 v 1.88148 h 13.3924 v -0.49099 c 0,-0.70028 0.4283,-1.2643 -0.2697,-1.2643 h -5.1733 c -0.077,0 -0.152,0.01 -0.2238,0.0229 v -0.14906 c 0,-0.63649 -0.5111,-1.14899 -1.1455,-1.14899 z"
         style="opacity:1;fill:#c9e9f1;fill-opacity:1;stroke:none;stroke-width:1.26012909;stroke-linecap:round;stroke-linejoin:miter;stroke-miterlimit:4;stroke-dasharray:none;stroke-dashoffset:0;stroke-opacity:1;paint-order:markers stroke fill"
         sodipodi:nodetypes="csccssscscc" />
      <path
         sodipodi:nodetypes="csccssscscc"
         style="opacity:1;fill:#01a6ca;fill-opacity:1;stroke:none;stroke-width:1.33952439;stroke-linecap:round;stroke-linejoin:miter;stroke-miterlimit:4;stroke-dasharray:none;stroke-dashoffset:0;stroke-opacity:1;paint-order:markers stroke fill"
         d="m -1818.0282,-688.80023 c -0.6743,0 -0.5161,0.5448 -0.5161,1.22139 v 6.34983 h 16.1464 v -0.52192 c 0,-0.74441 0.1983,-5.69377 -0.5436,-5.69377 h -7.1526 c -0.082,0 -0.1615,0.0102 -0.238,0.0243 v -0.15845 c 0,-0.67659 -0.5432,-1.22139 -1.2175,-1.22139 z"
         id="path5235"
         inkscape:connector-curvature="0" />
      <g
         transform="matrix(2.7348984,0,0,2.7348984,3320.4587,954.07425)"
         id="g5388">
        <path
           inkscape:connector-curvature="0"
           style="opacity:1;fill:#01597c;fill-opacity:1;stroke:none;stroke-width:0.1048789;stroke-linecap:round;stroke-linejoin:miter;stroke-miterlimit:4;stroke-dasharray:none;stroke-dashoffset:0;stroke-opacity:1;paint-order:markers stroke fill"
           d="m -1878.4136,-599.98261 c -0.1108,0 -0.2,0.0892 -0.2,0.2 v 1.71617 c 0,0.11081 0.089,0.2005 0.2,0.2005 h 1.7166 c 0.1109,0 0.2,-0.0897 0.2,-0.2005 v -1.71617 c 0,-0.11081 -0.089,-0.2 -0.2,-0.2 z m 0.1405,0.45993 h 1.4351 c 0.093,0 0.1674,0.0743 0.1674,0.16692 v 1.14877 c 0,0.0926 -0.075,0.16743 -0.1674,0.16743 h -1.4351 c -0.093,0 -0.1669,-0.0749 -0.1669,-0.16743 v -1.14877 c 0,-0.0926 0.075,-0.16692 0.1669,-0.16692 z"
           id="path5367" />
        <path
           sodipodi:type="star"
           style="opacity:1;fill:#01597c;fill-opacity:1;stroke:none;stroke-width:0.079375;stroke-linecap:round;stroke-linejoin:miter;stroke-miterlimit:4;stroke-dasharray:none;stroke-dashoffset:0;stroke-opacity:1;paint-order:markers stroke fill"
           id="path5369"
           sodipodi:sides="3"
           sodipodi:cx="-1877.5985"
           sodipodi:cy="-598.77557"
           sodipodi:r1="0.4151026"
           sodipodi:r2="0.27784815"
           sodipodi:arg1="2.0925885"
           sodipodi:arg2="3.139786"
           inkscape:flatsided="true"
           inkscape:rounded="0.1"
           inkscape:randomized="0"
           d="m -1877.8054,-598.41571 c -0.062,-0.0358 -0.063,-0.68292 -0,-0.71898 0.062,-0.0361 0.6232,0.28647 0.6233,0.35837 10e-5,0.0719 -0.5597,0.39645 -0.622,0.36061 z"
           inkscape:transform-center-x="0.011824534"
           inkscape:transform-center-y="0.011855636" />
      </g>
    </g>
  </g>
</svg>
