<?xml version="1.0" encoding="UTF-8" standalone="no"?>
<svg
   xmlns:dc="http://purl.org/dc/elements/1.1/"
   xmlns:cc="http://creativecommons.org/ns#"
   xmlns:rdf="http://www.w3.org/1999/02/22-rdf-syntax-ns#"
   xmlns:svg="http://www.w3.org/2000/svg"
   xmlns="http://www.w3.org/2000/svg"
   xmlns:xlink="http://www.w3.org/1999/xlink"
   xmlns:sodipodi="http://sodipodi.sourceforge.net/DTD/sodipodi-0.dtd"
   xmlns:inkscape="http://www.inkscape.org/namespaces/inkscape"
   id="svg2"
   viewBox="0 0 32 32"
   height="32"
   version="1.1"
   width="32"
   sodipodi:docname="folder-unlocked.svg"
   inkscape:version="0.92.2 (unknown)">
  <sodipodi:namedview
     pagecolor="#ffffff"
     bordercolor="#666666"
     borderopacity="1"
     objecttolerance="10"
     gridtolerance="10"
     guidetolerance="10"
     inkscape:pageopacity="0"
     inkscape:pageshadow="2"
     inkscape:window-width="1868"
     inkscape:window-height="1050"
     id="namedview18"
     showgrid="false"
     inkscape:zoom="7.375"
     inkscape:cx="16"
     inkscape:cy="16"
     inkscape:window-x="52"
     inkscape:window-y="0"
     inkscape:window-maximized="1"
     inkscape:current-layer="svg2" />
  <defs
     id="defs5455">
    <linearGradient
       id="linearGradient4172-5">
      <stop
         id="stop4174-6"
         style="stop-color:#3daee9" />
      <stop
         id="stop4176-6"
         style="stop-color:#6cc1ef"
         offset="1" />
    </linearGradient>
    <linearGradient
       x2="0"
       gradientUnits="userSpaceOnUse"
       y2="8"
       y1="29"
       xlink:href="#linearGradient4172-5"
       id="linearGradient4342" />
  </defs>
  <metadata
     id="metadata5458">
    <rdf:RDF>
      <cc:Work
         rdf:about="">
        <dc:format>image/svg+xml</dc:format>
        <dc:type
           rdf:resource="http://purl.org/dc/dcmitype/StillImage" />
        <dc:title />
      </cc:Work>
    </rdf:RDF>
  </metadata>
  <g
     transform="matrix(3.7795276,0,0,3.7795276,7220.568,2899.5756)"
     id="g6984">
    <g
       id="g6980"
       transform="matrix(0.49037476,0,0,0.49037476,-1018.4012,-426.95097)">
      <path
         style="opacity:1;fill:#01a6ca;fill-opacity:1;stroke:none;stroke-width:2.63526201;stroke-linecap:round;stroke-linejoin:miter;stroke-miterlimit:4;stroke-dasharray:none;stroke-dashoffset:0;stroke-opacity:1;paint-order:markers stroke fill"
         d="m -1818.5563,-683.86677 v 2.88459 c 0,1.3289 1.07,2.39829 2.3989,2.39829 h 11.3843 c 1.3289,0 2.3988,-1.06939 2.3988,-2.39829 v -2.88459 z"
         id="path6966"
         inkscape:connector-curvature="0" />
      <rect
         ry="2.2565536"
         y="-691.77667"
         x="-1817.597"
         height="13.19298"
         width="15.222669"
         id="rect6968"
         style="opacity:1;fill:#01a6ca;fill-opacity:1;stroke:none;stroke-width:2.47906685;stroke-linecap:round;stroke-linejoin:miter;stroke-miterlimit:4;stroke-dasharray:none;stroke-dashoffset:0;stroke-opacity:1;paint-order:markers stroke fill" />
      <rect
         style="opacity:1;fill:#c9e9f1;fill-opacity:1;stroke:none;stroke-width:2.01943159;stroke-linecap:round;stroke-linejoin:miter;stroke-miterlimit:4;stroke-dasharray:none;stroke-dashoffset:0;stroke-opacity:1;paint-order:markers stroke fill"
         id="rect6970"
         width="13.94357"
         height="9.5574417"
         x="-1816.9579"
         y="-690.89709"
         ry="1.6347238" />
      <rect
         ry="1.5089756"
         y="-690.52954"
         x="-1816.4218"
         height="8.8222532"
         width="12.870985"
         id="rect6972"
         style="opacity:1;fill:#01597c;fill-opacity:1;stroke:none;stroke-width:1.86409092;stroke-linecap:round;stroke-linejoin:miter;stroke-miterlimit:4;stroke-dasharray:none;stroke-dashoffset:0;stroke-opacity:1;paint-order:markers stroke fill" />
      <path
         inkscape:connector-curvature="0"
         id="path6974"
         d="m -1816.5134,-689.21249 c -0.6343,0 -0.054,0.51251 -0.054,1.149 v 1.88148 h 13.3924 v -0.49099 c 0,-0.70028 0.4283,-1.2643 -0.2697,-1.2643 h -5.1733 c -0.077,0 -0.152,0.01 -0.2238,0.0229 v -0.14906 c 0,-0.63649 -0.5111,-1.14899 -1.1455,-1.14899 z"
         style="opacity:1;fill:#c9e9f1;fill-opacity:1;stroke:none;stroke-width:1.26012909;stroke-linecap:round;stroke-linejoin:miter;stroke-miterlimit:4;stroke-dasharray:none;stroke-dashoffset:0;stroke-opacity:1;paint-order:markers stroke fill"
         sodipodi:nodetypes="csccssscscc" />
      <path
         sodipodi:nodetypes="csccssscscc"
         style="opacity:1;fill:#01a6ca;fill-opacity:1;stroke:none;stroke-width:1.33952439;stroke-linecap:round;stroke-linejoin:miter;stroke-miterlimit:4;stroke-dasharray:none;stroke-dashoffset:0;stroke-opacity:1;paint-order:markers stroke fill"
         d="m -1818.0282,-688.80023 c -0.6743,0 -0.5161,0.5448 -0.5161,1.22139 v 6.34983 h 16.1464 v -0.52192 c 0,-0.74441 0.1983,-5.69377 -0.5436,-5.69377 h -7.1526 c -0.082,0 -0.1615,0.0102 -0.238,0.0243 v -0.15845 c 0,-0.67659 -0.5432,-1.22139 -1.2175,-1.22139 z"
         id="path6976"
         inkscape:connector-curvature="0" />
      <g
         transform="matrix(2.7348984,0,0,2.7348984,3320.4587,954.07425)"
         id="g6978" />
    </g>
    <path
       style="opacity:1;fill:#01597c;fill-opacity:1;stroke:none;stroke-width:1.31974256;stroke-linecap:round;stroke-linejoin:round;stroke-miterlimit:4;stroke-dasharray:none;stroke-dashoffset:0;stroke-opacity:1;paint-order:markers stroke fill"
       d="m -7139.5508,-3046.6094 c -1.601,0 -2.9253,1.1106 -3.2715,2.6035 h 1.1973 c 0.3417,-1.0121 1.1387,-1.5156 2.0742,-1.5156 1.2492,0 2.2559,0.7121 2.2559,2.7051 v 1.25 c -5.9336,0 0,0 -5.9336,0 -0.4687,0 -0.8457,0.3772 -0.8457,0.8457 v 3.9941 c 0,0.4686 0.3778,0.8457 0.8457,0.8457 h 7.3574 c 0.4683,0 0.8457,-0.3772 0.8457,-0.8457 v -3.9941 c 0,-0.4686 -0.3782,-0.8457 -0.8457,-0.8457 h -0.3086 v -1.6738 c 0,-1.8659 -1.5051,-3.3692 -3.3711,-3.3692 z m -2.8301,5.9961 h 5.6621 c 0.3591,0 0.6504,0.2895 0.6504,0.6504 v 2.5859 c 0,0.3606 -0.2905,0.6485 -0.6504,0.6485 h -5.6621 c -0.359,0 -0.6504,-0.2878 -0.6503,-0.6485 v -2.5859 c 0,-0.3606 0.2902,-0.6504 0.6503,-0.6504 z"
       transform="matrix(0.26458333,0,0,0.26458333,-19.162878,42.333333)"
       id="path6982"
       inkscape:connector-curvature="0"
       sodipodi:nodetypes="sccssccssssssscsssssssscss" />
    <ellipse
       style="opacity:1;fill:#01597c;fill-opacity:1;stroke:none;stroke-width:0.28578264;stroke-linecap:round;stroke-linejoin:round;stroke-miterlimit:4;stroke-dasharray:none;stroke-dashoffset:0;stroke-opacity:1;paint-order:fill markers stroke"
       id="path6993"
       cx="-1908.8755"
       cy="-763.05988"
       rx="0.15916342"
       ry="0.083715819" />
  </g>
</svg>
