<?xml version="1.0" encoding="UTF-8" standalone="no"?>
<!-- Created with Inkscape (http://www.inkscape.org/) -->

<svg
   xmlns:dc="http://purl.org/dc/elements/1.1/"
   xmlns:cc="http://creativecommons.org/ns#"
   xmlns:rdf="http://www.w3.org/1999/02/22-rdf-syntax-ns#"
   xmlns:svg="http://www.w3.org/2000/svg"
   xmlns="http://www.w3.org/2000/svg"
   xmlns:sodipodi="http://sodipodi.sourceforge.net/DTD/sodipodi-0.dtd"
   xmlns:inkscape="http://www.inkscape.org/namespaces/inkscape"
   width="32"
   version="1.1"
   height="32"
   viewBox="0 0 32 32"
   id="svg2"
   inkscape:version="0.92.2 (unknown)"
   sodipodi:docname="favorites.svg">
  <sodipodi:namedview
     pagecolor="#ffffff"
     bordercolor="#666666"
     borderopacity="1"
     objecttolerance="10"
     gridtolerance="10"
     guidetolerance="10"
     inkscape:pageopacity="0"
     inkscape:pageshadow="2"
     inkscape:window-width="1868"
     inkscape:window-height="1050"
     id="namedview19"
     showgrid="false"
     inkscape:zoom="7.375"
     inkscape:cx="-11.728814"
     inkscape:cy="16"
     inkscape:window-x="52"
     inkscape:window-y="0"
     inkscape:window-maximized="1"
     inkscape:current-layer="layer1" />
  <defs
     id="defs5455" />
  <metadata
     id="metadata5458">
    <rdf:RDF>
      <cc:Work
         rdf:about="">
        <dc:format>image/svg+xml</dc:format>
        <dc:type
           rdf:resource="http://purl.org/dc/dcmitype/StillImage" />
      </cc:Work>
    </rdf:RDF>
  </metadata>
  <g
     inkscape:label="Capa 1"
     inkscape:groupmode="layer"
     id="layer1"
     transform="matrix(1 0 0 1 -384.57143 -515.798)">
    <g
       id="g4348"
       transform="matrix(3.7795276,0,0,3.7795276,7589.9071,3457.784)">
      <g
         transform="matrix(0.49037476,0,0,0.49037476,-1014.371,-438.17206)"
         id="g4334">
        <path
           inkscape:connector-curvature="0"
           id="path4318"
           d="m -1818.5563,-683.86677 v 2.88459 c 0,1.3289 1.07,2.39829 2.3989,2.39829 h 11.3843 c 1.3289,0 2.3988,-1.06939 2.3988,-2.39829 v -2.88459 z"
           style="opacity:1;fill:#01a6ca;fill-opacity:1;stroke:none;stroke-width:2.63526201;stroke-linecap:round;stroke-linejoin:miter;stroke-miterlimit:4;stroke-dasharray:none;stroke-dashoffset:0;stroke-opacity:1;paint-order:markers stroke fill" />
        <rect
           style="opacity:1;fill:#01a6ca;fill-opacity:1;stroke:none;stroke-width:2.47906685;stroke-linecap:round;stroke-linejoin:miter;stroke-miterlimit:4;stroke-dasharray:none;stroke-dashoffset:0;stroke-opacity:1;paint-order:markers stroke fill"
           id="rect4320"
           width="15.222669"
           height="13.19298"
           x="-1817.597"
           y="-691.77667"
           ry="2.2565536" />
        <rect
           ry="1.6347238"
           y="-690.89709"
           x="-1816.9579"
           height="9.5574417"
           width="13.94357"
           id="rect4322"
           style="opacity:1;fill:#c9e9f1;fill-opacity:1;stroke:none;stroke-width:2.01943159;stroke-linecap:round;stroke-linejoin:miter;stroke-miterlimit:4;stroke-dasharray:none;stroke-dashoffset:0;stroke-opacity:1;paint-order:markers stroke fill" />
        <rect
           style="opacity:1;fill:#01597c;fill-opacity:1;stroke:none;stroke-width:1.86409092;stroke-linecap:round;stroke-linejoin:miter;stroke-miterlimit:4;stroke-dasharray:none;stroke-dashoffset:0;stroke-opacity:1;paint-order:markers stroke fill"
           id="rect4324"
           width="12.870985"
           height="8.8222532"
           x="-1816.4218"
           y="-690.52954"
           ry="1.5089756" />
        <path
           sodipodi:nodetypes="csccssscscc"
           style="opacity:1;fill:#c9e9f1;fill-opacity:1;stroke:none;stroke-width:1.26012909;stroke-linecap:round;stroke-linejoin:miter;stroke-miterlimit:4;stroke-dasharray:none;stroke-dashoffset:0;stroke-opacity:1;paint-order:markers stroke fill"
           d="m -1816.5134,-689.21249 c -0.6343,0 -0.054,0.51251 -0.054,1.149 v 1.88148 h 13.3924 v -0.49099 c 0,-0.70028 0.4283,-1.2643 -0.2697,-1.2643 h -5.1733 c -0.077,0 -0.152,0.01 -0.2238,0.0229 v -0.14906 c 0,-0.63649 -0.5111,-1.14899 -1.1455,-1.14899 z"
           id="path4326"
           inkscape:connector-curvature="0" />
        <path
           inkscape:connector-curvature="0"
           id="path4328"
           d="m -1818.0282,-688.80023 c -0.6743,0 -0.5161,0.5448 -0.5161,1.22139 v 6.34983 h 16.1464 v -0.52192 c 0,-0.74441 0.1983,-5.69377 -0.5436,-5.69377 h -7.1526 c -0.082,0 -0.1615,0.0102 -0.238,0.0243 v -0.15845 c 0,-0.67659 -0.5432,-1.22139 -1.2175,-1.22139 z"
           style="opacity:1;fill:#01a6ca;fill-opacity:1;stroke:none;stroke-width:1.33952439;stroke-linecap:round;stroke-linejoin:miter;stroke-miterlimit:4;stroke-dasharray:none;stroke-dashoffset:0;stroke-opacity:1;paint-order:markers stroke fill"
           sodipodi:nodetypes="csccssscscc" />
        <g
           id="g4332"
           transform="matrix(2.7348984,0,0,2.7348984,3320.4587,954.07425)" />
      </g>
      <path
         inkscape:transform-center-y="-0.1283003"
         inkscape:transform-center-x="-0.0049847726"
         d="m -1903.2818,-772.20678 c -0.1612,0.11442 -0.6721,-0.4675 -0.8698,-0.4697 -0.1977,-0.002 -0.7214,0.5682 -0.88,0.45023 -0.1587,-0.11798 0.2369,-0.78367 0.1779,-0.97236 -0.059,-0.18869 -0.7633,-0.51049 -0.7001,-0.69782 0.063,-0.18733 0.8185,-0.0168 0.9797,-0.13125 0.1613,-0.11442 0.2497,-0.8837 0.4474,-0.8815 0.1976,0.002 0.2689,0.77326 0.4275,0.89123 0.1587,0.11798 0.9176,-0.0357 0.9766,0.15302 0.059,0.1887 -0.6523,0.49474 -0.7155,0.68207 -0.063,0.18733 0.3175,0.86166 0.1563,0.97608 z"
         inkscape:randomized="0"
         inkscape:rounded="0.2"
         inkscape:flatsided="false"
         sodipodi:arg2="1.5819235"
         sodipodi:arg1="0.95360494"
         sodipodi:r2="0.74428052"
         sodipodi:r1="1.488561"
         sodipodi:cy="-773.42072"
         sodipodi:cx="-1904.1433"
         sodipodi:sides="5"
         id="path4336"
         style="opacity:1;fill:#01597c;fill-opacity:1;stroke:none;stroke-width:0.31376612;stroke-linecap:round;stroke-linejoin:round;stroke-miterlimit:4;stroke-dasharray:none;stroke-dashoffset:0;stroke-opacity:1;paint-order:markers stroke fill"
         sodipodi:type="star" />
    </g>
  </g>
</svg>
