<?xml version="1.0" encoding="UTF-8" standalone="no"?>
<!-- Created with Inkscape (http://www.inkscape.org/) -->

<svg
   xmlns:dc="http://purl.org/dc/elements/1.1/"
   xmlns:cc="http://creativecommons.org/ns#"
   xmlns:rdf="http://www.w3.org/1999/02/22-rdf-syntax-ns#"
   xmlns:svg="http://www.w3.org/2000/svg"
   xmlns="http://www.w3.org/2000/svg"
   xmlns:sodipodi="http://sodipodi.sourceforge.net/DTD/sodipodi-0.dtd"
   xmlns:inkscape="http://www.inkscape.org/namespaces/inkscape"
   width="32"
   version="1.1"
   height="32"
   viewBox="0 0 32 32"
   id="svg17"
   sodipodi:docname="folder-public.svg"
   inkscape:version="0.92.2 (unknown)">
  <sodipodi:namedview
     pagecolor="#ffffff"
     bordercolor="#666666"
     borderopacity="1"
     objecttolerance="10"
     gridtolerance="10"
     guidetolerance="10"
     inkscape:pageopacity="0"
     inkscape:pageshadow="2"
     inkscape:window-width="1868"
     inkscape:window-height="1050"
     id="namedview19"
     showgrid="false"
     inkscape:zoom="7.375"
     inkscape:cx="16"
     inkscape:cy="16"
     inkscape:window-x="52"
     inkscape:window-y="0"
     inkscape:window-maximized="1"
     inkscape:current-layer="layer1" />
  <defs
     id="defs5455" />
  <metadata
     id="metadata5458">
    <rdf:RDF>
      <cc:Work
         rdf:about="">
        <dc:format>image/svg+xml</dc:format>
        <dc:type
           rdf:resource="http://purl.org/dc/dcmitype/StillImage" />
      </cc:Work>
    </rdf:RDF>
  </metadata>
  <g
     inkscape:label="Capa 1"
     inkscape:groupmode="layer"
     id="layer1"
     transform="matrix(1 0 0 1 -384.57143 -515.798)">
    <g
       id="g6367"
       transform="matrix(3.7795276,0,0,3.7795276,7510.5567,3525.9331)">
      <path
         style="opacity:1;fill:#01a6ca;fill-opacity:1;stroke:none;stroke-width:1.29226601;stroke-linecap:round;stroke-linejoin:miter;stroke-miterlimit:4;stroke-dasharray:none;stroke-dashoffset:0;stroke-opacity:1;paint-order:markers stroke fill"
         d="m -1885.1503,-791.55415 v 1.41453 c 0,0.65166 0.5247,1.17606 1.1764,1.17606 h 5.5826 c 0.6516,0 1.1763,-0.5244 1.1763,-1.17606 v -1.41453 z"
         id="path6314"
         inkscape:connector-curvature="0" />
      <rect
         ry="1.106557"
         y="-795.43298"
         x="-1884.6798"
         height="6.4695044"
         width="7.4648123"
         id="rect6316"
         style="opacity:1;fill:#01a6ca;fill-opacity:1;stroke:none;stroke-width:1.21567178;stroke-linecap:round;stroke-linejoin:miter;stroke-miterlimit:4;stroke-dasharray:none;stroke-dashoffset:0;stroke-opacity:1;paint-order:markers stroke fill" />
      <rect
         style="opacity:1;fill:#c9e9f1;fill-opacity:1;stroke:none;stroke-width:0.9902783;stroke-linecap:round;stroke-linejoin:miter;stroke-miterlimit:4;stroke-dasharray:none;stroke-dashoffset:0;stroke-opacity:1;paint-order:markers stroke fill"
         id="rect6318"
         width="6.837575"
         height="4.686728"
         x="-1884.3663"
         y="-795.00165"
         ry="0.80162728" />
      <rect
         ry="0.73996353"
         y="-794.82141"
         x="-1884.1034"
         height="4.3262105"
         width="6.3116064"
         id="rect6320"
         style="opacity:1;fill:#01597c;fill-opacity:1;stroke:none;stroke-width:0.91410315;stroke-linecap:round;stroke-linejoin:miter;stroke-miterlimit:4;stroke-dasharray:none;stroke-dashoffset:0;stroke-opacity:1;paint-order:markers stroke fill" />
      <path
         inkscape:connector-curvature="0"
         id="path6322"
         d="m -1884.1485,-794.17556 c -0.311,0 -0.026,0.25132 -0.026,0.56344 v 0.92263 h 6.5673 v -0.24077 c 0,-0.3434 0.2101,-0.61998 -0.1322,-0.61998 h -2.5369 c -0.038,0 -0.074,0.005 -0.1097,0.0112 v -0.0731 c 0,-0.31212 -0.2506,-0.56344 -0.5617,-0.56344 z"
         style="opacity:1;fill:#c9e9f1;fill-opacity:1;stroke:none;stroke-width:0.61793548;stroke-linecap:round;stroke-linejoin:miter;stroke-miterlimit:4;stroke-dasharray:none;stroke-dashoffset:0;stroke-opacity:1;paint-order:markers stroke fill"
         sodipodi:nodetypes="csccssscscc" />
      <path
         sodipodi:nodetypes="csccssscscc"
         style="opacity:1;fill:#01a6ca;fill-opacity:1;stroke:none;stroke-width:0.65686893;stroke-linecap:round;stroke-linejoin:miter;stroke-miterlimit:4;stroke-dasharray:none;stroke-dashoffset:0;stroke-opacity:1;paint-order:markers stroke fill"
         d="m -1884.8913,-793.9734 c -0.3307,0 -0.2531,0.26716 -0.2531,0.59894 v 3.1138 h 7.9178 v -0.25594 c 0,-0.36504 0.097,-2.79208 -0.2666,-2.79208 h -3.5074 c -0.04,0 -0.079,0.005 -0.1167,0.0119 v -0.0777 c 0,-0.33179 -0.2664,-0.59894 -0.5971,-0.59894 z"
         id="path6324"
         inkscape:connector-curvature="0" />
      <g
         inkscape:label="Capa 1"
         id="layer1-64"
         transform="matrix(0.2365558,0,0,0.2365558,-1980.3474,-915.99373)">
        <path
           inkscape:connector-curvature="0"
           style="fill:#01597c;fill-opacity:1;stroke-width:1.15470099"
           id="rect4214-8"
           d="m 412.91287,520.93144 c -1.10457,0 -2,0.89543 -2,2 0,1.10457 0.89543,2 2,2 1.10457,0 2,-0.89543 2,-2 0,-1.10457 -0.89543,-2 -2,-2 z m -4,1 c -1.10457,0 -2,0.89543 -2,2 0,1.10457 0.89543,2 2,2 1.10457,0 2,-0.89543 2,-2 0,-1.10457 -0.89543,-2 -2,-2 z m 4,4 c -0.30461,0.001 -0.60801,0.029 -0.9043,0.082 0.33702,0.26622 0.63832,0.57475 0.89649,0.91797 h 0.008 c 1.65685,0 3,0.89543 3,2 h -2.10547 c 0.0687,0.32894 0.10401,0.66397 0.10547,1 h 1.5957 1.17188 0.23242 v -1 c 0,-1.65686 -1.79086,-3 -4,-3 z m -4,1 c -2.20914,0 -4,1.34314 -4,3 v 1 h 0.23437 1.17383 5.1875 1.17188 0.23242 v -1 c 0,-1.65686 -1.79086,-3 -4,-3 z m 0,1 c 1.65685,0 3,0.89543 3,2 h -6 c 0,-1.10457 1.34315,-2 3,-2 z" />
      </g>
    </g>
  </g>
</svg>
