<?xml version="1.0" encoding="UTF-8" standalone="no"?>
<!-- Created with Inkscape (http://www.inkscape.org/) -->

<svg
   xmlns:dc="http://purl.org/dc/elements/1.1/"
   xmlns:cc="http://creativecommons.org/ns#"
   xmlns:rdf="http://www.w3.org/1999/02/22-rdf-syntax-ns#"
   xmlns:svg="http://www.w3.org/2000/svg"
   xmlns="http://www.w3.org/2000/svg"
   xmlns:sodipodi="http://sodipodi.sourceforge.net/DTD/sodipodi-0.dtd"
   xmlns:inkscape="http://www.inkscape.org/namespaces/inkscape"
   width="32"
   version="1.1"
   height="32"
   viewBox="0 0 32 32"
   id="svg17"
   sodipodi:docname="network-server.svg"
   inkscape:version="0.92.2 (unknown)">
  <sodipodi:namedview
     pagecolor="#ffffff"
     bordercolor="#666666"
     borderopacity="1"
     objecttolerance="10"
     gridtolerance="10"
     guidetolerance="10"
     inkscape:pageopacity="0"
     inkscape:pageshadow="2"
     inkscape:window-width="1868"
     inkscape:window-height="1050"
     id="namedview19"
     showgrid="false"
     inkscape:zoom="7.375"
     inkscape:cx="-23.115704"
     inkscape:cy="12.827896"
     inkscape:window-x="52"
     inkscape:window-y="0"
     inkscape:window-maximized="1"
     inkscape:current-layer="layer1" />
  <defs
     id="defs5455" />
  <metadata
     id="metadata5458">
    <rdf:RDF>
      <cc:Work
         rdf:about="">
        <dc:format>image/svg+xml</dc:format>
        <dc:type
           rdf:resource="http://purl.org/dc/dcmitype/StillImage" />
      </cc:Work>
    </rdf:RDF>
  </metadata>
  <g
     inkscape:label="Capa 1"
     inkscape:groupmode="layer"
     id="layer1"
     transform="matrix(1 0 0 1 -384.57143 -515.798)">
    <g
       transform="matrix(3.7795276,0,0,3.7795276,7532.0018,3573.4817)"
       id="g7412">
      <path
         style="opacity:1;fill:#01a6ca;fill-opacity:1;stroke:none;stroke-width:1.29226601;stroke-linecap:round;stroke-linejoin:miter;stroke-miterlimit:4;stroke-dasharray:none;stroke-dashoffset:0;stroke-opacity:1;paint-order:markers stroke fill"
         d="m -1890.8243,-804.13468 v 1.41453 c 0,0.65166 0.5247,1.17606 1.1764,1.17606 h 5.5826 c 0.6516,0 1.1763,-0.5244 1.1763,-1.17606 v -1.41453 z"
         id="path7358"
         inkscape:connector-curvature="0" />
      <rect
         ry="1.106557"
         y="-808.01355"
         x="-1890.3539"
         height="6.4695044"
         width="7.4648123"
         id="rect7360"
         style="opacity:1;fill:#01a6ca;fill-opacity:1;stroke:none;stroke-width:1.21567178;stroke-linecap:round;stroke-linejoin:miter;stroke-miterlimit:4;stroke-dasharray:none;stroke-dashoffset:0;stroke-opacity:1;paint-order:markers stroke fill" />
      <rect
         style="opacity:1;fill:#c9e9f1;fill-opacity:1;stroke:none;stroke-width:0.9902783;stroke-linecap:round;stroke-linejoin:miter;stroke-miterlimit:4;stroke-dasharray:none;stroke-dashoffset:0;stroke-opacity:1;paint-order:markers stroke fill"
         id="rect7362"
         width="6.837575"
         height="4.686728"
         x="-1890.0404"
         y="-807.58221"
         ry="0.80162728" />
      <rect
         ry="0.73996353"
         y="-807.40198"
         x="-1889.7775"
         height="4.3262105"
         width="6.3116064"
         id="rect7364"
         style="opacity:1;fill:#01597c;fill-opacity:1;stroke:none;stroke-width:0.91410315;stroke-linecap:round;stroke-linejoin:miter;stroke-miterlimit:4;stroke-dasharray:none;stroke-dashoffset:0;stroke-opacity:1;paint-order:markers stroke fill" />
      <path
         inkscape:connector-curvature="0"
         id="path7366"
         d="m -1889.8225,-806.75609 c -0.311,0 -0.026,0.25132 -0.026,0.56344 v 0.92263 h 6.5673 v -0.24077 c 0,-0.3434 0.2101,-0.61998 -0.1322,-0.61998 h -2.5369 c -0.038,0 -0.074,0.005 -0.1097,0.0112 v -0.0731 c 0,-0.31212 -0.2506,-0.56344 -0.5617,-0.56344 z"
         style="opacity:1;fill:#c9e9f1;fill-opacity:1;stroke:none;stroke-width:0.61793548;stroke-linecap:round;stroke-linejoin:miter;stroke-miterlimit:4;stroke-dasharray:none;stroke-dashoffset:0;stroke-opacity:1;paint-order:markers stroke fill"
         sodipodi:nodetypes="csccssscscc" />
      <path
         sodipodi:nodetypes="csccssscscc"
         style="opacity:1;fill:#01a6ca;fill-opacity:1;stroke:none;stroke-width:0.65686893;stroke-linecap:round;stroke-linejoin:miter;stroke-miterlimit:4;stroke-dasharray:none;stroke-dashoffset:0;stroke-opacity:1;paint-order:markers stroke fill"
         d="m -1890.5653,-806.55393 c -0.3307,0 -0.2531,0.26716 -0.2531,0.59894 v 3.1138 h 7.9178 v -0.25594 c 0,-0.36504 0.097,-2.79208 -0.2666,-2.79208 h -3.5074 c -0.04,0 -0.079,0.005 -0.1167,0.0119 v -0.0777 c 0,-0.33179 -0.2664,-0.59894 -0.5971,-0.59894 z"
         id="path7368"
         inkscape:connector-curvature="0" />
      <path
         inkscape:connector-curvature="0"
         id="path7372"
         d="m -1889.9682,-805.58149 c -0.1486,0 -0.2687,0.11962 -0.2687,0.26821 v 2.30166 c 0,0.14862 0.1198,0.26871 0.2687,0.26871 h 2.3017 c 0.1488,0 0.2687,-0.12009 0.2687,-0.26871 v -2.30166 c 0,-0.14862 -0.1198,-0.26821 -0.2687,-0.26821 z m 0.084,0.49249 a 0.13281499,0.13281499 0 0 1 0.01,0 h 2.1172 a 0.13281499,0.13281499 0 1 1 0,0.26562 h -2.1172 a 0.13290409,0.13290409 0 0 1 -0.01,-0.26562 z m 0.9271,0.52917 a 0.13280999,0.13280999 0 0 1 0.01,0 h 1.1912 a 0.13281,0.13281 0 1 1 0,0.26562 h -1.1912 a 0.13290409,0.13290409 0 0 1 -0.01,-0.26562 z m -0.9322,0.52967 a 0.13230489,0.13230489 0 0 1 0.014,0 h 2.1172 a 0.13281,0.13281 0 1 1 0,0.26562 h -2.1172 a 0.13299435,0.13299435 0 0 1 -0.014,-0.26562 z m 0.9255,0.52917 a 0.13230489,0.13230489 0 0 1 0.014,0 h 1.1911 a 0.132815,0.132815 0 1 1 0,0.26561 h -1.1911 a 0.1330046,0.1330046 0 0 1 -0.014,-0.26561 z"
         style="opacity:1;fill:#01597c;fill-opacity:1;stroke:none;stroke-width:0.14065573;stroke-linecap:round;stroke-linejoin:miter;stroke-miterlimit:4;stroke-dasharray:none;stroke-dashoffset:0;stroke-opacity:1;paint-order:markers stroke fill" />
    </g>
  </g>
</svg>
