<?xml version="1.0" encoding="UTF-8" standalone="no"?>
<!-- Created with Inkscape (http://www.inkscape.org/) -->

<svg
   xmlns:dc="http://purl.org/dc/elements/1.1/"
   xmlns:cc="http://creativecommons.org/ns#"
   xmlns:rdf="http://www.w3.org/1999/02/22-rdf-syntax-ns#"
   xmlns:svg="http://www.w3.org/2000/svg"
   xmlns="http://www.w3.org/2000/svg"
   xmlns:sodipodi="http://sodipodi.sourceforge.net/DTD/sodipodi-0.dtd"
   xmlns:inkscape="http://www.inkscape.org/namespaces/inkscape"
   width="32"
   version="1.1"
   height="32"
   viewBox="0 0 32 32"
   id="svg17"
   sodipodi:docname="user-home.svg"
   inkscape:version="0.92.2 (unknown)">
  <sodipodi:namedview
     pagecolor="#ffffff"
     bordercolor="#666666"
     borderopacity="1"
     objecttolerance="10"
     gridtolerance="10"
     guidetolerance="10"
     inkscape:pageopacity="0"
     inkscape:pageshadow="2"
     inkscape:window-width="1868"
     inkscape:window-height="1050"
     id="namedview19"
     showgrid="false"
     inkscape:zoom="7.375"
     inkscape:cx="16"
     inkscape:cy="16"
     inkscape:window-x="52"
     inkscape:window-y="0"
     inkscape:window-maximized="1"
     inkscape:current-layer="layer1" />
  <defs
     id="defs5455" />
  <metadata
     id="metadata5458">
    <rdf:RDF>
      <cc:Work
         rdf:about="">
        <dc:format>image/svg+xml</dc:format>
        <dc:type
           rdf:resource="http://purl.org/dc/dcmitype/StillImage" />
      </cc:Work>
    </rdf:RDF>
  </metadata>
  <g
     inkscape:label="Capa 1"
     inkscape:groupmode="layer"
     id="layer1"
     transform="matrix(1 0 0 1 -384.57143 -515.798)">
    <g
       id="g7613"
       transform="matrix(3.7795276,0,0,3.7795276,7547.6796,3563.0561)">
      <path
         style="opacity:1;fill:#01a6ca;fill-opacity:1;stroke:none;stroke-width:1.29226601;stroke-linecap:round;stroke-linejoin:miter;stroke-miterlimit:4;stroke-dasharray:none;stroke-dashoffset:0;stroke-opacity:1;paint-order:markers stroke fill"
         d="m -1894.9724,-801.37631 v 1.41453 c 0,0.65166 0.5247,1.17606 1.1764,1.17606 h 5.5826 c 0.6516,0 1.1763,-0.5244 1.1763,-1.17606 v -1.41453 z"
         id="path7553"
         inkscape:connector-curvature="0" />
      <rect
         ry="1.106557"
         y="-805.25513"
         x="-1894.5021"
         height="6.4695044"
         width="7.4648123"
         id="rect7555"
         style="opacity:1;fill:#01a6ca;fill-opacity:1;stroke:none;stroke-width:1.21567178;stroke-linecap:round;stroke-linejoin:miter;stroke-miterlimit:4;stroke-dasharray:none;stroke-dashoffset:0;stroke-opacity:1;paint-order:markers stroke fill" />
      <rect
         style="opacity:1;fill:#c9e9f1;fill-opacity:1;stroke:none;stroke-width:0.9902783;stroke-linecap:round;stroke-linejoin:miter;stroke-miterlimit:4;stroke-dasharray:none;stroke-dashoffset:0;stroke-opacity:1;paint-order:markers stroke fill"
         id="rect7557"
         width="6.837575"
         height="4.686728"
         x="-1894.1886"
         y="-804.82379"
         ry="0.80162728" />
      <rect
         ry="0.73996353"
         y="-804.64355"
         x="-1893.9257"
         height="4.3262105"
         width="6.3116064"
         id="rect7559"
         style="opacity:1;fill:#01597c;fill-opacity:1;stroke:none;stroke-width:0.91410315;stroke-linecap:round;stroke-linejoin:miter;stroke-miterlimit:4;stroke-dasharray:none;stroke-dashoffset:0;stroke-opacity:1;paint-order:markers stroke fill" />
      <path
         inkscape:connector-curvature="0"
         id="path7561"
         d="m -1893.9706,-803.99772 c -0.311,0 -0.026,0.25132 -0.026,0.56344 v 0.92263 h 6.5673 v -0.24077 c 0,-0.3434 0.2101,-0.61998 -0.1322,-0.61998 h -2.5369 c -0.038,0 -0.074,0.005 -0.1097,0.0112 v -0.0731 c 0,-0.31212 -0.2506,-0.56344 -0.5617,-0.56344 z"
         style="opacity:1;fill:#c9e9f1;fill-opacity:1;stroke:none;stroke-width:0.61793548;stroke-linecap:round;stroke-linejoin:miter;stroke-miterlimit:4;stroke-dasharray:none;stroke-dashoffset:0;stroke-opacity:1;paint-order:markers stroke fill"
         sodipodi:nodetypes="csccssscscc" />
      <path
         sodipodi:nodetypes="csccssscscc"
         style="opacity:1;fill:#01a6ca;fill-opacity:1;stroke:none;stroke-width:0.65686893;stroke-linecap:round;stroke-linejoin:miter;stroke-miterlimit:4;stroke-dasharray:none;stroke-dashoffset:0;stroke-opacity:1;paint-order:markers stroke fill"
         d="m -1894.7134,-803.79556 c -0.3307,0 -0.2531,0.26716 -0.2531,0.59894 v 3.1138 h 7.9178 v -0.25594 c 0,-0.36504 0.097,-2.79208 -0.2666,-2.79208 h -3.5074 c -0.04,0 -0.079,0.005 -0.1167,0.0119 v -0.0777 c 0,-0.33179 -0.2664,-0.59894 -0.5971,-0.59894 z"
         id="path7563"
         inkscape:connector-curvature="0" />
      <g
         transform="matrix(1.0142693,0,0,1.0142693,27.103619,11.407404)"
         id="g7585">
        <g
           transform="translate(5.1576628,-0.53786845)"
           id="g7597">
          <path
             id="path7567"
             d="m -1899.0229,-801.43251 c -0.1044,0 -0.1885,0.084 -0.1885,0.1884 v 1.61655 c 0,0.10438 0.084,0.18887 0.1885,0.18887 h 1.6169 c 0.1045,0 0.1884,-0.0845 0.1884,-0.18887 v -1.61655 c 0,-0.10438 -0.084,-0.1884 -0.1884,-0.1884 z m 0.1323,0.16403 h 1.3518 c 0.088,0 0.1576,0.0699 0.1576,0.15723 v 1.35131 c 0,0.0872 -0.07,0.1577 -0.1576,0.1577 h -1.3518 c -0.088,0 -0.1572,-0.0706 -0.1572,-0.1577 v -1.35131 c 0,-0.0872 0.071,-0.15723 0.1572,-0.15723 z"
             style="opacity:1;fill:#01597c;fill-opacity:1;stroke:none;stroke-width:0.09879163;stroke-linecap:round;stroke-linejoin:miter;stroke-miterlimit:4;stroke-dasharray:none;stroke-dashoffset:0;stroke-opacity:1;paint-order:markers stroke fill"
             inkscape:connector-curvature="0"
             sodipodi:nodetypes="ssssssssssssssssss" />
          <path
             sodipodi:nodetypes="sssssssss"
             inkscape:connector-curvature="0"
             style="opacity:1;fill:#01597c;fill-opacity:1;stroke:none;stroke-width:0.02749452;stroke-linecap:round;stroke-linejoin:miter;stroke-miterlimit:4;stroke-dasharray:none;stroke-dashoffset:0;stroke-opacity:1;paint-order:markers stroke fill"
             d="m -1898.3689,-800.12925 c -0.029,0 -0.053,0.0234 -0.053,0.0525 v 0.44991 c 0,0.0291 0.024,0.0525 0.053,0.0525 h 0.3088 c 0.029,0 0.053,-0.0236 0.053,-0.0525 v -0.44991 c 0,-0.0291 -0.023,-0.0525 -0.053,-0.0525 z"
             id="path7569" />
          <path
             sodipodi:nodetypes="sssssssss"
             inkscape:connector-curvature="0"
             style="opacity:1;fill:#01597c;fill-opacity:1;stroke:none;stroke-width:0.02052459;stroke-linecap:round;stroke-linejoin:miter;stroke-miterlimit:4;stroke-dasharray:none;stroke-dashoffset:0;stroke-opacity:1;paint-order:markers stroke fill"
             d="m -1897.7864,-802.18828 c -0.022,0 -0.039,0.0175 -0.039,0.0391 v 0.64279 c 0,0.0217 0.017,0.0392 0.039,0.0392 h 0.1881 c 0.022,0 0.039,-0.0176 0.039,-0.0392 v -0.64279 c 0,-0.0217 -0.017,-0.0391 -0.039,-0.0391 z"
             id="path7573" />
          <path
             transform="matrix(2.3308046,0.09274194,-0.1495022,1.4458872,2377.2397,511.55582)"
             inkscape:transform-center-y="0.023890114"
             inkscape:transform-center-x="0.058161758"
             d="m -1884.2752,-786.8748 c -0.047,0.0932 -0.9824,0.14933 -1.0398,0.0624 -0.057,-0.0869 0.3619,-0.92539 0.4659,-0.93164 0.1039,-0.006 0.6205,0.77607 0.5739,0.86923 z"
             inkscape:randomized="0"
             inkscape:rounded="0.1"
             inkscape:flatsided="true"
             sodipodi:arg2="1.5108452"
             sodipodi:arg1="0.46364761"
             sodipodi:r2="0.30068401"
             sodipodi:r1="0.60136801"
             sodipodi:cy="-787.14374"
             sodipodi:cx="-1884.8131"
             sodipodi:sides="3"
             id="path7575"
             style="opacity:1;fill:#01597c;fill-opacity:1;stroke:none;stroke-width:0.05476875;stroke-linecap:round;stroke-linejoin:round;stroke-miterlimit:4;stroke-dasharray:none;stroke-dashoffset:0;stroke-opacity:1;paint-order:fill markers stroke"
             sodipodi:type="star" />
        </g>
      </g>
    </g>
  </g>
</svg>
