<?xml version="1.0" encoding="UTF-8" standalone="no"?>
<!-- Created with Inkscape (http://www.inkscape.org/) -->

<svg
   xmlns:dc="http://purl.org/dc/elements/1.1/"
   xmlns:cc="http://creativecommons.org/ns#"
   xmlns:rdf="http://www.w3.org/1999/02/22-rdf-syntax-ns#"
   xmlns:svg="http://www.w3.org/2000/svg"
   xmlns="http://www.w3.org/2000/svg"
   xmlns:sodipodi="http://sodipodi.sourceforge.net/DTD/sodipodi-0.dtd"
   xmlns:inkscape="http://www.inkscape.org/namespaces/inkscape"
   width="32"
   version="1.1"
   height="32"
   viewBox="0 0 32 32"
   id="svg36"
   sodipodi:docname="desktop.svg"
   inkscape:version="0.92.2 (unknown)">
  <sodipodi:namedview
     pagecolor="#ffffff"
     bordercolor="#666666"
     borderopacity="1"
     objecttolerance="10"
     gridtolerance="10"
     guidetolerance="10"
     inkscape:pageopacity="0"
     inkscape:pageshadow="2"
     inkscape:window-width="1868"
     inkscape:window-height="1050"
     id="namedview38"
     showgrid="false"
     inkscape:zoom="20.85965"
     inkscape:cx="8.4728579"
     inkscape:cy="19.38746"
     inkscape:window-x="52"
     inkscape:window-y="0"
     inkscape:window-maximized="1"
     inkscape:current-layer="g4242"
     inkscape:snap-global="true" />
  <defs
     id="defs5455">
    <clipPath
       clipPathUnits="userSpaceOnUse"
       id="clipPath3856">
      <path
         style="opacity:1;fill:#016ea1;fill-opacity:1;stroke:none;stroke-width:2.78780913;stroke-linecap:round;stroke-linejoin:miter;stroke-miterlimit:4;stroke-dasharray:none;stroke-dashoffset:0;stroke-opacity:1;paint-order:markers stroke fill"
         d="m -1859.0172,-379.98352 c -1.2503,0 -2.2568,1.00647 -2.2568,2.25671 v 8.68008 c 0,0.10385 0.01,0.20537 0.023,0.3054 h 19.203 c 0.014,-0.10003 0.023,-0.20155 0.023,-0.3054 v -8.68008 c 0,-1.25024 -1.0064,-2.25671 -2.2567,-2.25671 z m 16.9695,11.2422 c -0.055,0.41237 -0.2212,0.78877 -0.4667,1.09865 0.2461,-0.30985 0.4112,-0.68609 0.4667,-1.09865 z m -19.203,0 c 0.056,0.41446 0.2218,0.7921 0.4697,1.10278 -0.2472,-0.31065 -0.414,-0.68861 -0.4697,-1.10278 z m 0.4697,1.10278 c 0.04,0.0507 0.083,0.0993 0.1277,0.14623 -0.044,-0.047 -0.087,-0.0955 -0.1277,-0.14623 z m 18.263,0 c -0.036,0.0453 -0.075,0.0883 -0.1142,0.13073 0.04,-0.0423 0.078,-0.0854 0.1142,-0.13073 z m -18.1317,0.14986 c 0.04,0.0422 0.083,0.0824 0.1261,0.12142 -0.043,-0.0391 -0.086,-0.0791 -0.1261,-0.12142 z m 17.9968,0.004 c -0.036,0.038 -0.074,0.0742 -0.1132,0.10957 0.039,-0.0353 0.077,-0.0717 0.1132,-0.10957 z m -17.8469,0.13954 c 0.038,0.0335 0.078,0.0653 0.1188,0.0961 -0.04,-0.0308 -0.081,-0.0627 -0.1188,-0.0961 z m 17.6965,0.004 c -0.035,0.0303 -0.071,0.0592 -0.108,0.0873 0.037,-0.0281 0.073,-0.057 0.108,-0.0873 z m -17.5276,0.12972 c 0.036,0.0254 0.072,0.0499 0.1091,0.0734 -0.037,-0.0236 -0.073,-0.0478 -0.1091,-0.0734 z m 17.3592,0.003 c -0.034,0.0241 -0.069,0.0469 -0.1039,0.0692 0.035,-0.0222 0.07,-0.0451 0.1039,-0.0692 z m -17.1798,0.11266 c 0.035,0.0201 0.07,0.0395 0.1059,0.0579 -0.036,-0.0182 -0.071,-0.0377 -0.1059,-0.0579 z m 17.003,0 c -0.033,0.0193 -0.067,0.0376 -0.1012,0.0553 0.034,-0.0177 0.068,-0.036 0.1012,-0.0553 z m -16.8103,0.0987 c 0.032,0.0145 0.064,0.0288 0.096,0.0419 -0.033,-0.0132 -0.064,-0.0273 -0.096,-0.0419 z m 16.6145,0.003 c -0.03,0.0138 -0.061,0.0273 -0.091,0.0398 0.031,-0.0124 0.061,-0.0259 0.091,-0.0398 z m -0.1953,0.0781 c -0.033,0.0114 -0.066,0.023 -0.1,0.0331 0.034,-0.0101 0.067,-0.0217 0.1,-0.0331 z m -16.2161,0 c 0.031,0.0108 0.063,0.022 0.095,0.0315 -0.032,-0.01 -0.063,-0.0206 -0.095,-0.0315 z m 16.0114,0.0589 c -0.035,0.008 -0.069,0.0175 -0.1044,0.0243 0.035,-0.007 0.07,-0.0159 0.1044,-0.0243 z m -15.8083,0 c 0.034,0.008 0.068,0.0172 0.1023,0.0238 -0.035,-0.007 -0.068,-0.0156 -0.1023,-0.0238 z m 0.2103,0.0403 c 0.035,0.005 0.07,0.0111 0.1059,0.0145 -0.036,-0.003 -0.071,-0.009 -0.1059,-0.0145 z m 15.3856,0 c -0.035,0.005 -0.07,0.0111 -0.1059,0.0145 0.036,-0.003 0.071,-0.009 0.1059,-0.0145 z"
         id="path3858"
         inkscape:connector-curvature="0" />
    </clipPath>
  </defs>
  <metadata
     id="metadata5458">
    <rdf:RDF>
      <cc:Work
         rdf:about="">
        <dc:format>image/svg+xml</dc:format>
        <dc:type
           rdf:resource="http://purl.org/dc/dcmitype/StillImage" />
      </cc:Work>
    </rdf:RDF>
  </metadata>
  <g
     inkscape:label="Capa 1"
     inkscape:groupmode="layer"
     id="layer1"
     transform="matrix(1 0 0 1 -384.57143 -515.798)">
    <g
       id="g4242"
       transform="matrix(2.6850368,0,0,2.6850368,5327.3607,1800.7866)">
      <rect
         ry="1.7666665"
         y="-477.77939"
         x="-1840.8646"
         height="10.328846"
         width="11.9179"
         id="rect4178"
         style="opacity:1;fill:#454949;fill-opacity:1;stroke:none;stroke-width:1.94087303;stroke-linecap:round;stroke-linejoin:miter;stroke-miterlimit:4;stroke-dasharray:none;stroke-dashoffset:0;stroke-opacity:1;paint-order:markers stroke fill" />
      <rect
         ry="1.2125119"
         y="-476.89401"
         x="-1840.3226"
         height="7.0889726"
         width="10.833929"
         id="rect838"
         style="opacity:1;fill:none;fill-opacity:1;stroke:#ececec;stroke-width:0.37839937;stroke-linecap:round;stroke-linejoin:miter;stroke-miterlimit:4;stroke-dasharray:none;stroke-dashoffset:0;stroke-opacity:1;paint-order:markers stroke fill" />
      <g
         id="g907"
         transform="translate(23.078247,9.9484253)">
        <g
           id="g868"
           transform="matrix(0.52349553,0,0,0.52349553,-888.45777,-290.57397)">
          <path
             inkscape:connector-curvature="0"
             id="path892"
             d="m -1862.3458,-363.65819 c 2.2991,-1.64796 4.5982,-3.29593 6.8973,-4.94389 3.1673,2.13032 6.3347,4.26057 9.502,6.39089 -1.1497,0.40833 -2.3987,0.10877 -3.5819,0.0363 -0.9352,-0.15029 -1.8813,-0.10489 -2.7933,0.15365 -0.9061,0.11828 -1.8196,0.206 -2.7259,0.30943 -1.6818,0.0233 -3.3607,0.14183 -5.0399,0.20318 -0.7839,-0.0448 -1.5794,-0.42921 -2.0882,-1.03212 -0.1722,-0.33921 -0.2212,-0.74274 -0.1701,-1.11747 z"
             style="fill:#515659;fill-opacity:1;fill-rule:evenodd;stroke:none;stroke-width:0.71143752px;stroke-linecap:butt;stroke-linejoin:miter;stroke-opacity:1" />
          <path
             inkscape:connector-curvature="0"
             id="path890"
             d="m -1841.7262,-371.35136 -14.1805,4.24451 7.8138,4.31686 6.3668,-0.16882 z"
             style="fill:#ffe16e;fill-opacity:1;fill-rule:evenodd;stroke:none;stroke-width:0.71143752px;stroke-linecap:butt;stroke-linejoin:miter;stroke-opacity:1" />
          <path
             sodipodi:nodetypes="csscc"
             style="fill:#ffffff;fill-opacity:1;stroke-width:0.61182296"
             d="m -1862.3411,-363.50282 c 0.1485,1.10445 1.0871,1.9513 2.2334,1.9513 h 16.0998 c 1.1464,0 2.0855,-0.84685 2.2339,-1.9513 z"
             id="path860"
             inkscape:connector-curvature="0" />
          <circle
             cx="-1844.6744"
             cy="-362.46686"
             style="fill:#4d4d4d;stroke-width:0.51800466"
             r="0.51800466"
             id="circle862" />
          <path
             inkscape:connector-curvature="0"
             style="fill:#4d4d4d;stroke-width:0.51800466"
             id="path864"
             d="m -1860.2369,-362.98479 v 0.518 h 0.518 v -0.518 z m 0.518,0.518 v 0.518 h 0.518 v -0.518 z" />
          <path
             inkscape:connector-curvature="0"
             id="path886"
             d="m -1862.3458,-363.65819 19.6309,-10.85243 c -0.2234,-0.0614 -0.4475,-0.0482 -0.6752,-0.0482 -0.048,0 -0.099,0.0153 -0.1447,0 -0.022,-0.007 -0.027,-0.041 -0.048,-0.0482 -0.027,-0.009 -0.1957,0 -0.2411,0 -0.1608,0 -0.3216,0 -0.4824,0 -0.1608,0 -0.3215,0 -0.4823,0 -0.032,0 -0.065,0.006 -0.096,0 -0.3965,-0.13219 0.1017,0.017 -0.2894,-0.0482 -0.05,-0.008 -0.094,-0.0399 -0.1447,-0.0482 -0.047,-0.008 -0.096,0 -0.1447,0 -0.048,0 -0.096,0 -0.1447,0 -0.1607,0 -0.3215,0 -0.4823,0 -0.08,0 -0.1619,0.0132 -0.2412,0 -0.05,-0.008 -0.094,-0.0399 -0.1447,-0.0482 -0.111,-0.0185 -0.2259,0.014 -0.3376,0 -0.066,-0.008 -0.1273,-0.0389 -0.1929,-0.0482 -0.048,-0.007 -0.097,0 -0.1447,0 -0.048,0 -0.097,0 -0.1447,0 -0.048,0 -0.098,0.0117 -0.1447,0 -0.022,-0.006 -0.028,-0.0381 -0.048,-0.0482 -0.014,-0.007 -0.032,0 -0.048,0 -0.016,0 -0.032,0 -0.048,0 -0.08,0 -0.1608,0 -0.2412,0 -0.3698,0 -0.7396,0 -1.1093,0 -0.1126,0 -0.2251,0 -0.3377,0 -0.048,0 -0.098,0.0117 -0.1447,0 -0.022,-0.006 -0.027,-0.041 -0.048,-0.0482 -0.031,-0.0102 -0.064,0 -0.097,0 -0.049,0 -0.3142,0.008 -0.3376,0 -0.022,-0.007 -0.032,-0.0322 -0.048,-0.0482 -0.032,-0.0161 -0.062,-0.0395 -0.096,-0.0482 -0.047,-0.0117 -0.097,0 -0.1447,0 -0.1286,0 -0.2573,0 -0.3859,0 -0.3698,0 -0.7395,0 -1.1093,0 -0.4663,0 -0.9325,0 -1.3988,0 -0.1447,0 -0.2894,0 -0.4341,0 -0.032,0 -0.064,0 -0.097,0 -0.032,0 -0.066,-0.0102 -0.096,0 -0.022,0.007 -0.027,0.041 -0.048,0.0482 -0.018,0.006 -0.2811,0 -0.2894,0 -0.2411,0 -0.4823,0 -0.7234,0 -0.027,0 -0.2191,-0.007 -0.2412,0 -0.022,0.007 -0.026,0.0427 -0.048,0.0482 -0.047,0.0117 -0.097,0 -0.1447,0 -0.032,0 -0.064,0 -0.096,0 -0.1608,0 -0.3216,0 -0.4823,0 -0.611,0 -1.2219,0 -1.8329,0 -0.209,0 -0.418,0 -0.627,0 -0.034,0 -0.277,-0.006 -0.2894,0 -0.02,0.0102 -0.027,0.041 -0.048,0.0482 -0.031,0.0102 -0.064,0 -0.096,0 -0.016,0 -0.034,-0.007 -0.048,0 -0.02,0.0102 -0.027,0.041 -0.048,0.0482 -0.2196,0 0,-0.0227 -0.1447,0.0482 -0.014,0.007 -0.032,0 -0.048,0 -0.016,0 -0.032,0 -0.048,0 -0.08,0 -0.1607,0 -0.2411,0 -0.055,0 -0.143,-0.0125 -0.193,0 -0.2216,0.0554 -0.011,0.0482 -0.1447,0.0482 -0.1286,0 -0.2572,0 -0.3858,0 -0.032,0 -0.064,0 -0.097,0 -0.032,0 -0.066,-0.0102 -0.097,0 -0.021,0.007 -0.027,0.041 -0.048,0.0482 -0.022,0.007 -0.1715,-0.0107 -0.1929,0 -0.02,0.0102 -0.028,0.0381 -0.048,0.0482 -0.039,0.0193 -0.1062,-0.0193 -0.1447,0 -0.02,0.0102 -0.028,0.0381 -0.048,0.0482 -0.029,0.0144 -0.068,-0.0144 -0.096,0 -0.02,0.0102 -0.028,0.0381 -0.048,0.0482 -0.039,0.0193 -0.1061,-0.0193 -0.1447,0 -0.02,0.0102 -0.028,0.0381 -0.048,0.0482 -0.029,0.0144 -0.068,-0.0144 -0.096,0 -0.02,0.0102 -0.027,0.041 -0.048,0.0482 -0.031,0.0102 -0.066,-0.0102 -0.097,0 -0.022,0.007 -0.028,0.0381 -0.048,0.0482 -0.029,0.0144 -0.068,-0.0144 -0.097,0 -0.02,0.0102 -0.028,0.0381 -0.048,0.0482 -0.014,0.007 -0.034,-0.007 -0.048,0 -0.2008,0.10037 0.052,-0.003 -0.048,0.0965 -0.011,0.0114 -0.034,-0.007 -0.048,0 -0.2007,0.10037 0.052,-0.003 -0.048,0.0965 -0.011,0.0114 -0.037,-0.0114 -0.048,0 -0.011,0.0114 0.01,0.0338 0,0.0482 -0.01,0.0203 -0.038,0.0279 -0.048,0.0482 -0.01,0.0144 0.01,0.0339 0,0.0482 -0.024,0.0475 -0.1692,0.14547 -0.1929,0.19293 -0.01,0.0144 0.01,0.0339 0,0.0482 -0.029,0.0579 -0.1158,0.0868 -0.1447,0.14469 -0.01,0.0144 0.011,0.0369 0,0.0482 -0.011,0.0114 -0.037,-0.0114 -0.048,0 -0.011,0.0114 0.01,0.0349 0,0.0482 -0.025,0.0378 -0.064,0.0643 -0.096,0.0965 -0.032,0.0322 -0.064,0.0643 -0.096,0.0965 -0.016,0.0161 -0.036,0.0293 -0.048,0.0482 -0.02,0.0299 -0.037,0.0624 -0.048,0.0965 -0.01,0.0152 0.011,0.0369 0,0.0482 -0.011,0.0114 -0.037,-0.0114 -0.048,0 -0.023,0.0227 0.014,0.0677 0,0.0965 -0.1004,0.20074 0,-0.0516 -0.097,0.0482 -0.015,0.0149 0.015,0.22623 0,0.24117 -0.011,0.0114 -0.037,-0.0114 -0.048,0 -0.011,0.0114 0,0.0322 0,0.0482 0,0.0482 0,0.0965 0,0.1447 0,0.0965 0,0.19293 0,0.2894 0,0.0161 -0.011,0.0369 0,0.0482 0.011,0.0114 0.037,-0.0114 0.048,0 0.011,0.0114 -0.01,0.0339 0,0.0482 0.01,0.0203 0.038,0.0279 0.048,0.0482 0.01,0.0144 -0.011,0.0369 0,0.0482 0.011,0.0114 0.037,-0.0114 0.048,0 0.01,0.01 -0.01,0.12558 0,0.1447 0.01,0.0203 0.041,0.0267 0.048,0.0482 0.015,0.0458 0,0.0965 0,0.1447 0,0.11255 0,0.22509 0,0.33763 0,0.0395 0.01,0.20992 0,0.24117 -0.011,0.0341 -0.037,0.0624 -0.048,0.0965 -0.014,0.0404 0.016,0.16096 0,0.19293 -0.01,0.0203 -0.038,0.0279 -0.048,0.0482 -0.01,0.0108 0,0.18147 0,0.19293 0,0.16078 0,0.32156 0,0.48233 0,0.0965 0,0.19294 0,0.2894 0,0.0322 -0.014,0.0677 0,0.0965 0.01,0.0144 0.041,-0.0144 0.048,0 0.014,0.0288 -0.01,0.066 0,0.0965 0.01,0.0216 0.038,0.0279 0.048,0.0482 0.01,0.0144 0,0.0322 0,0.0482 0,0.0322 0,0.0643 0,0.0965 0,0.0414 -0.01,0.26118 0,0.2894 0.01,0.0216 0.038,0.0279 0.048,0.0482 0.01,0.0144 0,0.0322 0,0.0482 0,0.0161 0,0.0322 0,0.0482 0,0.0804 0,0.16078 0,0.24117 0,0.21957 -0.023,0.003 0.048,0.1447 0.01,0.0125 0,0.25521 0,0.2894 0,0.0161 -0.01,0.0339 0,0.0482 0.01,0.0203 0.038,0.0279 0.048,0.0482 0.01,0.0125 0,0.25521 0,0.2894 0,0.24117 0,0.48233 0,0.7235 0,0.24116 0,0.48233 0,0.72349 0,0.0203 0.01,0.27505 0,0.2894 -0.06,0.11921 -0.048,-0.0167 -0.048,0.0965 0,0.1447 0,0.2894 0,0.4341 0,0.0161 0,0.0322 0,0.0482 0,0.0161 0.011,0.0369 0,0.0482 -0.011,0.0114 -0.037,-0.0114 -0.048,0 -0.011,0.0114 0,0.0322 0,0.0482 0,0.0161 0,0.0322 0,0.0482 0,0.11254 0,0.22509 0,0.33763 0,0.0161 0.011,0.0369 0,0.0482 -0.011,0.0114 -0.041,-0.0144 -0.048,0 -0.022,0.0431 0,0.0965 0,0.1447 0,0.11254 0,0.22509 0,0.33763 0,0.17686 0,0.35371 0,0.53057 0,0.0595 -0.01,0.18953 0,0.24116 0.013,0.065 0.032,0.12862 0.048,0.19293 z"
             style="fill:#53c4ab;fill-opacity:1;fill-rule:evenodd;stroke:none;stroke-width:0.71143752px;stroke-linecap:butt;stroke-linejoin:miter;stroke-opacity:1" />
          <path
             inkscape:connector-curvature="0"
             id="path888"
             d="m -1844.4031,-374.87237 -11.5036,7.76552 14.2771,-3.93099 c 0.044,-0.049 -0.018,-0.11543 0,-0.16882 0,-0.0108 0.021,-0.0133 0.024,-0.0241 0.01,-0.0153 0,-0.0322 0,-0.0482 0,-0.0482 0,-0.0965 0,-0.1447 0,-0.0723 0,-0.1447 0,-0.21705 0,-0.0194 0,-0.0813 0,-0.0965 -0.01,-0.0171 -0.019,-0.0312 -0.024,-0.0482 -0.01,-0.0283 0.013,-0.0699 0,-0.0965 0,-0.007 -0.019,0.006 -0.024,0 -0.011,-0.0114 0.01,-0.0339 0,-0.0482 0,-0.0102 -0.019,-0.0139 -0.024,-0.0241 -0.01,-0.0152 0.01,-0.10537 0,-0.12058 -0.01,-0.0102 -0.019,-0.0139 -0.024,-0.0241 -0.01,-0.0107 0,-0.0854 0,-0.0965 -0.03,-0.0894 -0.024,0.0294 -0.024,-0.0482 0,-0.12058 0,-0.24117 0,-0.36175 0,-0.0171 0,-0.13846 0,-0.1447 -0.01,-0.0102 -0.02,-0.0133 -0.024,-0.0241 -0.01,-0.0153 0,-0.0322 0,-0.0482 0,-0.008 0,-0.0169 0,-0.0241 -0.01,-0.0102 -0.021,-0.0133 -0.024,-0.0241 -0.01,-0.0229 0.01,-0.0495 0,-0.0724 -0.01,-0.017 -0.018,-0.0312 -0.024,-0.0482 0,-0.0152 0.01,-0.033 0,-0.0482 -0.01,-0.0171 -0.018,-0.0312 -0.024,-0.0482 -0.01,-0.0166 0.01,-0.0581 0,-0.0723 -0.01,-0.0102 -0.019,-0.014 -0.024,-0.0241 -0.01,-0.0193 0.01,-0.0531 0,-0.0723 0,-0.007 -0.018,0.006 -0.024,0 -0.01,-0.006 0.01,-0.0907 0,-0.0965 -0.01,-0.006 -0.018,0.006 -0.024,0 -0.011,-0.0114 0.011,-0.0369 0,-0.0482 -0.01,-0.006 -0.018,0.006 -0.024,0 0,-0.005 0,-0.0628 0,-0.0724 -0.01,-0.0102 -0.019,-0.0139 -0.024,-0.0241 -0.01,-0.0144 0.01,-0.0339 0,-0.0482 -0.01,-0.0102 -0.019,-0.014 -0.024,-0.0241 0,-0.007 0.01,-0.0184 0,-0.0241 -0.01,-0.006 -0.021,0.007 -0.024,0 -0.01,-0.0144 0,-0.0322 0,-0.0482 0,-0.008 0.01,-0.0184 0,-0.0241 -0.013,-0.0127 -0.035,-0.0114 -0.048,-0.0241 -0.01,-0.006 0,-0.0161 0,-0.0241 -0.01,-0.0161 -0.011,-0.0355 -0.024,-0.0482 -0.01,-0.006 -0.019,0.006 -0.024,0 -0.011,-0.0114 0.01,-0.0338 0,-0.0482 -0.01,-0.0203 -0.041,-0.0267 -0.048,-0.0482 -0.01,-0.0152 0.01,-0.0338 0,-0.0482 0,-0.007 -0.018,0.006 -0.024,0 -0.01,-0.006 0.01,-0.0184 0,-0.0241 -0.064,0 0.01,0.008 -0.024,-0.0241 -0.01,-0.006 -0.019,0.006 -0.024,0 -0.01,-0.006 0.01,-0.0184 0,-0.0241 -0.01,-0.006 -0.018,0.006 -0.024,0 -0.01,-0.006 0,-0.0169 0,-0.0241 0,-0.0102 -0.019,-0.0139 -0.024,-0.0241 0,-0.007 0,-0.0169 0,-0.0241 -0.05,-0.10037 0,0.0258 -0.048,-0.0241 -0.01,-0.006 0,-0.0169 0,-0.0241 -0.01,-0.0203 -0.038,-0.0279 -0.048,-0.0482 0,-0.007 0,-0.0169 0,-0.0241 -0.01,-0.0102 -0.016,-0.0161 -0.024,-0.0241 -0.01,-0.008 -0.014,-0.019 -0.024,-0.0241 -0.01,-0.004 -0.018,0.006 -0.024,0 -0.01,-0.006 0.01,-0.0184 0,-0.0241 -0.01,-0.006 -0.018,0.006 -0.024,0 0,-0.0643 0.01,0.008 -0.024,-0.0241 -0.01,-0.006 0.01,-0.0184 0,-0.0241 -0.05,-0.0499 0,0.0763 -0.048,-0.0241 0,-0.007 0.01,-0.0184 0,-0.0241 -0.011,-0.0114 -0.034,0.007 -0.048,0 -0.1004,-0.0502 0.026,0.002 -0.024,-0.0482 -0.011,-0.0114 -0.037,0.0114 -0.048,0 -0.01,-0.006 0.01,-0.0184 0,-0.0241 -0.01,-0.006 -0.017,0.004 -0.024,0 -0.01,-0.005 -0.014,-0.019 -0.024,-0.0241 -0.01,-0.004 -0.018,0.006 -0.024,0 -0.01,-0.006 0.01,-0.0184 0,-0.0241 -0.011,-0.0114 -0.037,0.0114 -0.048,0 0,-0.0643 0.01,0.008 -0.024,-0.0241 -0.01,-0.006 0.01,-0.0184 0,-0.0241 -0.011,-0.0114 -0.034,0.007 -0.048,0 -0.01,-0.005 -0.014,-0.019 -0.024,-0.0241 -0.014,-0.007 -0.033,0.005 -0.048,0 -0.112,-0.056 0.014,-0.002 -0.097,-0.0241 -0.067,0.0469 -0.062,-0.0395 -0.096,-0.0482 -0.023,-0.006 -0.049,0.005 -0.072,0 -0.043,-0.009 -0.084,-0.0602 -0.1206,-0.0723 -0.023,-0.008 -0.049,0.006 -0.072,0 -0.011,-0.003 -0.013,-0.0205 -0.024,-0.0241 -0.031,-0.0102 -0.068,0.0144 -0.096,0 -0.01,-0.004 0.01,-0.0184 0,-0.0241 -0.01,-0.006 -0.091,0.006 -0.097,0 -0.01,-0.006 0.01,-0.0184 0,-0.0241 -0.011,-0.0114 -0.037,0.0114 -0.048,0 -0.01,-0.006 0.01,-0.0184 0,-0.0241 -0.01,-0.008 -0.079,0.006 -0.096,0 -0.011,-0.004 -0.014,-0.019 -0.024,-0.0241 -0.01,-0.004 -0.016,0 -0.024,0 -0.016,0 -0.033,0.005 -0.048,0 -0.011,-0.004 -0.013,-0.0205 -0.024,-0.0241 -0.1097,0 0,0.0114 -0.072,-0.0241 -0.013,-0.007 -0.09,0.007 -0.097,0 -0.01,-0.006 0.01,-0.0205 0,-0.0241 -0.01,-0.005 -0.1004,0 -0.1206,0 -0.088,0 -0.1769,0 -0.2653,0 z"
             style="fill:#ffd865;fill-opacity:1;fill-rule:evenodd;stroke:none;stroke-width:0.71143752px;stroke-linecap:butt;stroke-linejoin:miter;stroke-opacity:1" />
          <path
             d="m -1851.8804,-372.40591 c -0.6288,0 -1.1495,0.44336 -1.2687,1.03601 h -3.1344 v 0.51801 h 3.1344 c 0.1192,0.59264 0.6399,1.036 1.2687,1.036 0.6288,0 1.1494,-0.44336 1.2687,-1.036 h 1.5803 v -0.51801 h -1.5803 c -0.1193,-0.59265 -0.6399,-1.03601 -1.2687,-1.03601 z m -3.1081,4.66204 c -0.7174,0 -1.295,0.57758 -1.295,1.29501 0,0.71744 0.5776,1.29502 1.295,1.29502 0.6288,0 1.1495,-0.44336 1.2687,-1.03601 h 4.6884 v -0.51801 h -4.6884 c -0.1192,-0.59265 -0.6399,-1.03601 -1.2687,-1.03601 z m 0,0.51801 c 0.4305,0 0.777,0.34654 0.777,0.777 0,0.43047 -0.3465,0.77701 -0.777,0.77701 -0.4304,0 -0.777,-0.34654 -0.777,-0.77701 0,-0.43046 0.3466,-0.777 0.777,-0.777 z"
             id="path866"
             style="fill:#ebede7;fill-opacity:1;stroke-width:0.51800466"
             inkscape:connector-curvature="0" />
        </g>
        <rect
           ry="1.2125119"
           y="-486.84244"
           x="-1863.4009"
           height="7.0889726"
           width="10.833929"
           id="rect870"
           style="opacity:1;fill:none;fill-opacity:1;stroke:#ececec;stroke-width:0.37839937;stroke-linecap:round;stroke-linejoin:miter;stroke-miterlimit:4;stroke-dasharray:none;stroke-dashoffset:0;stroke-opacity:1;paint-order:markers stroke fill" />
      </g>
    </g>
  </g>
</svg>
