<?xml version="1.0" encoding="UTF-8" standalone="no"?>
<svg
   xmlns:dc="http://purl.org/dc/elements/1.1/"
   xmlns:cc="http://creativecommons.org/ns#"
   xmlns:rdf="http://www.w3.org/1999/02/22-rdf-syntax-ns#"
   xmlns:svg="http://www.w3.org/2000/svg"
   xmlns="http://www.w3.org/2000/svg"
   xmlns:sodipodi="http://sodipodi.sourceforge.net/DTD/sodipodi-0.dtd"
   xmlns:inkscape="http://www.inkscape.org/namespaces/inkscape"
   viewBox="0 0 16 16"
   version="1.1"
   id="svg6"
   sodipodi:docname="user-desktop-symbolic.svg"
   inkscape:version="0.92.2 (unknown)">
  <metadata
     id="metadata10">
    <rdf:RDF>
      <cc:Work
         rdf:about="">
        <dc:format>image/svg+xml</dc:format>
        <dc:type
           rdf:resource="http://purl.org/dc/dcmitype/StillImage" />
      </cc:Work>
    </rdf:RDF>
  </metadata>
  <sodipodi:namedview
     pagecolor="#ffffff"
     bordercolor="#666666"
     borderopacity="1"
     objecttolerance="10"
     gridtolerance="10"
     guidetolerance="10"
     inkscape:pageopacity="0"
     inkscape:pageshadow="2"
     inkscape:window-width="1280"
     inkscape:window-height="994"
     id="namedview8"
     showgrid="false"
     inkscape:zoom="14.75"
     inkscape:cx="-5.8644068"
     inkscape:cy="8"
     inkscape:window-x="1920"
     inkscape:window-y="0"
     inkscape:window-maximized="1"
     inkscape:current-layer="svg6" />
  <defs
     id="defs3051">
    <style
       type="text/css"
       id="current-color-scheme">
      .ColorScheme-Text {
        color:#4d4d4d;
      }
      </style>
  </defs>
  <path
     inkscape:connector-curvature="0"
     id="path3265-9-6"
     d="M 3.679306,2 C 3.510215,2 3.379169,2.1340045 3.379169,2.2997136 V 13.701977 C 3.379169,13.867687 3.510215,14 3.679306,14 h 6.089385 l 2.85214,-2.697719 V 2.3000095 c 0,-0.1657091 -0.131045,-0.2997136 -0.300136,-0.2997136 z m 0.949445,1.3195007 v 0.00228 h 6.726435 c 0.126819,0 0.236727,0.1035676 0.236727,0.2320772 V 10.489039 H 9.550564 c -0.3255,0 -0.59055,0.265473 -0.59055,0.592917 v 1.596091 h -4.32915 c -0.126817,0 -0.236727,-0.105259 -0.236727,-0.234613 V 3.5511553 c 0,-0.1289318 0.105684,-0.2316546 0.236727,-0.2316546 z m 6.794494,10.6640543 -0.0465,0.01268 c 0,0 0.0465,2.53e-4 0.0465,-0.01268 z"
     style="opacity:1;fill:#4d4d4d;fill-opacity:1;stroke:none;stroke-width:0.95849812;stroke-linecap:round;stroke-linejoin:miter;stroke-miterlimit:4;stroke-dasharray:none;stroke-dashoffset:0;stroke-opacity:1;paint-order:markers stroke fill" />
</svg>
