<?xml version="1.0" encoding="UTF-8" standalone="no"?>
<svg
   xmlns:dc="http://purl.org/dc/elements/1.1/"
   xmlns:cc="http://creativecommons.org/ns#"
   xmlns:rdf="http://www.w3.org/1999/02/22-rdf-syntax-ns#"
   xmlns:svg="http://www.w3.org/2000/svg"
   xmlns="http://www.w3.org/2000/svg"
   xmlns:sodipodi="http://sodipodi.sourceforge.net/DTD/sodipodi-0.dtd"
   xmlns:inkscape="http://www.inkscape.org/namespaces/inkscape"
   viewBox="0 0 16 16"
   version="1.1"
   id="svg6"
   sodipodi:docname="folder-videos-symbolic.svg"
   inkscape:version="0.92.2 (unknown)">
  <metadata
     id="metadata10">
    <rdf:RDF>
      <cc:Work
         rdf:about="">
        <dc:format>image/svg+xml</dc:format>
        <dc:type
           rdf:resource="http://purl.org/dc/dcmitype/StillImage" />
      </cc:Work>
    </rdf:RDF>
  </metadata>
  <sodipodi:namedview
     pagecolor="#ffffff"
     bordercolor="#666666"
     borderopacity="1"
     objecttolerance="10"
     gridtolerance="10"
     guidetolerance="10"
     inkscape:pageopacity="0"
     inkscape:pageshadow="2"
     inkscape:window-width="1868"
     inkscape:window-height="1050"
     id="namedview8"
     showgrid="false"
     inkscape:zoom="14.75"
     inkscape:cx="-5.8644068"
     inkscape:cy="8"
     inkscape:window-x="52"
     inkscape:window-y="0"
     inkscape:window-maximized="1"
     inkscape:current-layer="svg6" />
  <defs
     id="defs3051">
    <style
       type="text/css"
       id="current-color-scheme">
      .ColorScheme-Text {
        color:#4d4d4d;
      }
      </style>
  </defs>
  <path
     sodipodi:nodetypes="sssssssssssssssssssssssssssssssssssssssssssssssssssssssssssssssssssssssssssssssssssssssssssssssssss"
     inkscape:connector-curvature="0"
     id="path7057-7"
     d="M 3.13485,2 C 2.506762,2 2.001247,2.5054719 2.001247,3.1335182 V 12.862002 C 2.001247,13.490133 2.505493,14 3.13485,14 h 9.730724 c 0.628933,0 1.133179,-0.509867 1.133179,-1.137998 V 3.1335182 C 13.998753,2.5053874 13.494507,2 12.865574,2 Z M 2.805168,3.1466209 h 1.369874 c 0.08453,0 0.156389,0.071431 0.156389,0.1593469 V 4.675463 c 0,0.088338 -0.07185,0.1618829 -0.156389,0.1618829 H 2.805168 c -0.08453,0 -0.156389,-0.073968 -0.156389,-0.1618829 V 3.3059678 c 0,-0.088338 0.06762,-0.1593469 0.156389,-0.1593469 z m 8.946669,0 h 1.369453 c 0.08453,0 0.156388,0.071431 0.156388,0.1593469 V 4.675463 c 0,0.088338 -0.07185,0.1618829 -0.156388,0.1618829 h -1.369453 c -0.08453,0 -0.156388,-0.073968 -0.156388,-0.1618829 V 3.3059678 c 0,-0.088338 0.06762,-0.1593469 0.156388,-0.1593469 z m -6.039118,0.012681 h 4.571183 c 0.29587,0 0.532987,0.2379636 0.532987,0.5330301 V 6.97513 c 0,0.2950241 -0.236695,0.535101 -0.532987,0.535101 H 5.712719 c -0.29587,0 -0.532988,-0.2400769 -0.532988,-0.535101 V 3.6923311 c 0,-0.2950242 0.236696,-0.53303 0.532988,-0.5330296 z M 2.805168,5.8196748 h 1.369874 c 0.08453,0 0.156389,0.071431 0.156389,0.1593468 v 1.3694952 c 0,0.088338 -0.07185,0.1614602 -0.156389,0.1614602 H 2.805168 c -0.08453,0 -0.156389,-0.073968 -0.156389,-0.1614602 V 5.9790216 c 0,-0.088338 0.06762,-0.1593468 0.156389,-0.1593468 z m 8.946669,0 h 1.369453 c 0.08453,0 0.156388,0.071431 0.156388,0.1593468 v 1.3694952 c 0,0.088338 -0.07185,0.1614602 -0.156388,0.1614602 h -1.369453 c -0.08453,0 -0.156388,-0.073968 -0.156388,-0.1614602 V 5.9790216 c 0,-0.088338 0.06762,-0.1593468 0.156388,-0.1593468 z M 2.805168,8.4887554 h 1.369874 c 0.08453,0 0.156389,0.071431 0.156389,0.1593469 v 1.3694947 c 0,0.08834 -0.07185,0.159347 -0.156389,0.159347 H 2.805168 c -0.08453,0 -0.156389,-0.07143 -0.156389,-0.159347 V 8.6481023 c 0,-0.088338 0.06762,-0.1593469 0.156389,-0.1593469 z m 8.946669,0 h 1.369453 c 0.08453,0 0.156388,0.071431 0.156388,0.1593469 v 1.3694947 c 0,0.08834 -0.07185,0.159347 -0.156388,0.159347 h -1.369453 c -0.08453,0 -0.156388,-0.07143 -0.156388,-0.159347 V 8.6481023 c 0,-0.088338 0.06762,-0.1593469 0.156388,-0.1593469 z m -6.039118,0 h 4.571183 c 0.29587,0 0.532987,0.2379636 0.532987,0.5329877 v 3.3263339 c 0,0.295024 -0.236695,0.535101 -0.532987,0.535101 H 5.712719 c -0.29587,0 -0.532988,-0.240077 -0.532988,-0.535101 V 9.0217431 c 0,-0.2950241 0.236696,-0.5329877 0.532988,-0.5329877 z M 2.805168,11.151158 h 1.369874 c 0.08453,0 0.156389,0.07143 0.156389,0.159347 v 1.369453 c 0,0.08834 -0.07185,0.159346 -0.156389,0.159346 H 2.805168 c -0.08453,0 -0.156389,-0.07143 -0.156389,-0.159346 v -1.369453 c 0,-0.08834 0.06762,-0.159347 0.156389,-0.159347 z m 8.946669,0 h 1.369453 c 0.08453,0 0.156388,0.07143 0.156388,0.159347 v 1.369453 c 0,0.08834 -0.07185,0.159346 -0.156388,0.159346 h -1.369453 c -0.08453,0 -0.156388,-0.07143 -0.156388,-0.159346 v -1.369453 c 0,-0.08834 0.06762,-0.159347 0.156388,-0.159347 z"
     style="opacity:1;fill:#4d4d4d;fill-opacity:1;stroke:none;stroke-width:0.5945105;stroke-linecap:round;stroke-linejoin:miter;stroke-miterlimit:4;stroke-dasharray:none;stroke-dashoffset:0;stroke-opacity:1;paint-order:markers stroke fill" />
</svg>
