<?xml version="1.0" encoding="UTF-8" standalone="no"?>
<svg
   xmlns:dc="http://purl.org/dc/elements/1.1/"
   xmlns:cc="http://creativecommons.org/ns#"
   xmlns:rdf="http://www.w3.org/1999/02/22-rdf-syntax-ns#"
   xmlns:svg="http://www.w3.org/2000/svg"
   xmlns="http://www.w3.org/2000/svg"
   xmlns:sodipodi="http://sodipodi.sourceforge.net/DTD/sodipodi-0.dtd"
   xmlns:inkscape="http://www.inkscape.org/namespaces/inkscape"
   viewBox="0 0 16 16"
   version="1.1"
   id="svg6"
   sodipodi:docname="folder-music-symbolic.svg"
   inkscape:version="0.92.2 (unknown)">
  <metadata
     id="metadata10">
    <rdf:RDF>
      <cc:Work
         rdf:about="">
        <dc:format>image/svg+xml</dc:format>
        <dc:type
           rdf:resource="http://purl.org/dc/dcmitype/StillImage" />
      </cc:Work>
    </rdf:RDF>
  </metadata>
  <sodipodi:namedview
     pagecolor="#ffffff"
     bordercolor="#666666"
     borderopacity="1"
     objecttolerance="10"
     gridtolerance="10"
     guidetolerance="10"
     inkscape:pageopacity="0"
     inkscape:pageshadow="2"
     inkscape:window-width="1280"
     inkscape:window-height="994"
     id="namedview8"
     showgrid="false"
     inkscape:zoom="14.75"
     inkscape:cx="-5.7966102"
     inkscape:cy="8"
     inkscape:window-x="1920"
     inkscape:window-y="0"
     inkscape:window-maximized="1"
     inkscape:current-layer="svg6" />
  <defs
     id="defs3051">
    <style
       type="text/css"
       id="current-color-scheme">
      .ColorScheme-Text {
        color:#4d4d4d;
      }
      </style>
  </defs>
  <path
     inkscape:connector-curvature="0"
     id="path4183-4-1"
     d="M 6.798897,2.0023365 C 6.157619,1.9562595 5.599194,2.5999475 5.599194,3.2021241 V 9.524322 C 5.235648,9.3129579 4.820951,9.2013575 4.399491,9.2009348 c -1.325253,0 -2.399406,1.0742792 -2.399406,2.3995322 C 2.000085,12.925636 3.074238,14 4.399491,14 5.724744,14 6.798897,12.925636 6.798897,11.600467 V 5.6016145 h 5.998937 V 8.326775 C 12.434288,8.1145653 12.019591,8.0025423 11.598132,8.0012742 c -1.325253,0 -2.399406,1.0742794 -2.399406,2.3995328 0,1.325169 1.074153,2.399575 2.399406,2.399575 1.325252,0 2.399405,-1.074406 2.399405,-2.399575 0,0 -0.0465,-6.5572349 0,-7.1985983 0.0465,-0.6415326 -0.597315,-1.1997876 -1.199703,-1.1997876 -0.602387,0 -5.357236,0.046078 -5.998937,0 z m 0.300137,1.1997876 h 5.399086 c 0.164865,0 0.300137,0.1335821 0.300137,0.3001371 V 4.102155 c 0,0.1661322 -0.135272,0.300137 -0.300137,0.300137 H 7.099034 c -0.164864,0 -0.300137,-0.1335821 -0.300137,-0.300137 V 3.5022612 c 0,-0.1661322 0.135273,-0.3001371 0.300137,-0.3001371 z"
     style="fill:#4d4d4d;fill-opacity:1;stroke-width:1.59969485" />
</svg>
