<?xml version="1.0" encoding="UTF-8" standalone="no"?>
<svg
   xmlns:dc="http://purl.org/dc/elements/1.1/"
   xmlns:cc="http://creativecommons.org/ns#"
   xmlns:rdf="http://www.w3.org/1999/02/22-rdf-syntax-ns#"
   xmlns:svg="http://www.w3.org/2000/svg"
   xmlns="http://www.w3.org/2000/svg"
   xmlns:sodipodi="http://sodipodi.sourceforge.net/DTD/sodipodi-0.dtd"
   xmlns:inkscape="http://www.inkscape.org/namespaces/inkscape"
   viewBox="0 0 16 16"
   version="1.1"
   id="svg6"
   sodipodi:docname="folder-symbolic.svg"
   inkscape:version="0.92.2 (unknown)">
  <metadata
     id="metadata10">
    <rdf:RDF>
      <cc:Work
         rdf:about="">
        <dc:format>image/svg+xml</dc:format>
        <dc:type
           rdf:resource="http://purl.org/dc/dcmitype/StillImage" />
      </cc:Work>
    </rdf:RDF>
  </metadata>
  <sodipodi:namedview
     pagecolor="#ffffff"
     bordercolor="#666666"
     borderopacity="1"
     objecttolerance="10"
     gridtolerance="10"
     guidetolerance="10"
     inkscape:pageopacity="0"
     inkscape:pageshadow="2"
     inkscape:window-width="1868"
     inkscape:window-height="1050"
     id="namedview8"
     showgrid="false"
     inkscape:zoom="14.75"
     inkscape:cx="8"
     inkscape:cy="8"
     inkscape:window-x="52"
     inkscape:window-y="0"
     inkscape:window-maximized="1"
     inkscape:current-layer="svg6" />
  <defs
     id="defs3051">
    <style
       type="text/css"
       id="current-color-scheme">
      .ColorScheme-Text {
        color:#4d4d4d;
      }
      </style>
  </defs>
  <g
     id="g8635"
     transform="matrix(2.9937078,0,0,2.9937078,5861.8609,2412.2196)">
    <g
       transform="matrix(0.47145535,0,0,0.47145535,-1033.113,-427.56052)"
       id="g8630">
      <path
         style="opacity:1;fill:none;fill-opacity:1;stroke:#4d4d4d;stroke-width:0.53423083;stroke-linecap:round;stroke-linejoin:miter;stroke-miterlimit:4;stroke-dasharray:none;stroke-dashoffset:0;stroke-opacity:1;paint-order:markers stroke fill"
         d="m -1952.2715,-796.69898 c -0.02,-0.83143 0,-0.17337 0,-2.08923 0,-0.58358 -0.4701,-1.05369 -1.0537,-1.05369 l -5.0041,5e-5 c -0.5836,0 -1.0537,0.47011 -1.0537,1.05368 v 0.33599"
         id="rect8608"
         inkscape:connector-curvature="0"
         sodipodi:nodetypes="ccsssc" />
      <path
         style="opacity:1;fill:none;fill-opacity:1;stroke:#4d4d4d;stroke-width:2.1210916;stroke-linecap:round;stroke-linejoin:miter;stroke-miterlimit:4;stroke-dasharray:none;stroke-dashoffset:0;stroke-opacity:1;paint-order:markers stroke fill"
         d="m -7407.6348,-3017.0098 c -1.2495,0 -0.955,1.0096 -0.955,2.2637 v 6.8809 h -0.024 v 5.3457 c 0,2.4631 1.9842,4.4453 4.4473,4.4453 h 21.1015 c 2.4632,0 4.4454,-1.9822 4.4454,-4.4453 v -5.3457 h -0.02 c -0.01,-3.0436 -0.1635,-6.6328 -1.0312,-6.6328 h -13.2578 c -0.4659,0.018 -0.2666,-0.2217 -0.353,-0.2702 -0.221,-1.0109 -1.0944,-2.2416 -2.3443,-2.2416 z"
         transform="scale(0.26458333)"
         id="path8606"
         inkscape:connector-curvature="0"
         sodipodi:nodetypes="ssccssssccsccss" />
    </g>
  </g>
</svg>
