<?xml version="1.0" encoding="UTF-8" standalone="no"?>
<svg
   xmlns:dc="http://purl.org/dc/elements/1.1/"
   xmlns:cc="http://creativecommons.org/ns#"
   xmlns:rdf="http://www.w3.org/1999/02/22-rdf-syntax-ns#"
   xmlns:svg="http://www.w3.org/2000/svg"
   xmlns="http://www.w3.org/2000/svg"
   xmlns:sodipodi="http://sodipodi.sourceforge.net/DTD/sodipodi-0.dtd"
   xmlns:inkscape="http://www.inkscape.org/namespaces/inkscape"
   viewBox="0 0 16 16"
   version="1.1"
   id="svg6"
   sodipodi:docname="folder-publicshare-symbolic.svg"
   inkscape:version="0.92.2 (unknown)">
  <metadata
     id="metadata10">
    <rdf:RDF>
      <cc:Work
         rdf:about="">
        <dc:format>image/svg+xml</dc:format>
        <dc:type
           rdf:resource="http://purl.org/dc/dcmitype/StillImage" />
      </cc:Work>
    </rdf:RDF>
  </metadata>
  <sodipodi:namedview
     pagecolor="#ffffff"
     bordercolor="#666666"
     borderopacity="1"
     objecttolerance="10"
     gridtolerance="10"
     guidetolerance="10"
     inkscape:pageopacity="0"
     inkscape:pageshadow="2"
     inkscape:window-width="1868"
     inkscape:window-height="1050"
     id="namedview8"
     showgrid="false"
     inkscape:zoom="14.75"
     inkscape:cx="8"
     inkscape:cy="8"
     inkscape:window-x="52"
     inkscape:window-y="0"
     inkscape:window-maximized="1"
     inkscape:current-layer="svg6" />
  <defs
     id="defs3051">
    <style
       type="text/css"
       id="current-color-scheme">
      .ColorScheme-Text {
        color:#4d4d4d;
      }
      </style>
  </defs>
  <path
     inkscape:connector-curvature="0"
     style="fill:#4d4d4d;fill-opacity:1;stroke-width:1.15542114"
     id="rect4214-8-2"
     d="m 10.004792,2.9968779 c -1.10529,0 -2.001197,0.895992 -2.001197,2.0012404 0,1.1052485 0.895907,2.0012403 2.001197,2.0012403 1.105292,0 2.001199,-0.8959918 2.001199,-2.0012403 0,-1.1052484 -0.895907,-2.0012404 -2.001199,-2.0012404 z M 6.002396,3.9975193 c -1.10529,0 -2.001197,0.8959495 -2.001197,2.0012404 C 4.001199,7.104008 4.897106,8 6.002396,8 7.107687,8 8.003595,7.104008 8.003595,5.9987597 8.003595,4.8934688 7.107687,3.9975193 6.002396,3.9975193 Z M 10.004792,8 C 9.700235,8.00102 9.396523,8.02961 9.100002,8.082062 9.4384,8.34855 9.738728,8.6571686 9.997179,9.0005996 v 0 c 1.657724,0 3.001585,0.8959919 3.001585,2.0012404 H 10.89224 c 0.06768,0.329092 0.105751,0.664401 0.105751,1.000641 H 12.594805 13.767352 14 V 11.00184 C 14,9.343946 12.208185,7.9999581 9.997604,7.9999581 Z M 6.002396,9.000599 C 3.791815,9.000599 2,10.344587 2,12.002481 v 1.000641 H 2.232648 3.407311 8.597905 9.770452 10.0031 v -1.000641 c 0,-1.657894 -1.791814,-3.001882 -4.002396,-3.001882 z m 0,1.000642 c 1.657725,0 3.002009,0.895991 3.002009,2.00124 H 3.000388 c 0,-1.105249 1.344283,-2.00124 3.002008,-2.00124 z" />
</svg>
