<?xml version="1.0" encoding="UTF-8" standalone="no"?>
<svg
   xmlns:dc="http://purl.org/dc/elements/1.1/"
   xmlns:cc="http://creativecommons.org/ns#"
   xmlns:rdf="http://www.w3.org/1999/02/22-rdf-syntax-ns#"
   xmlns:svg="http://www.w3.org/2000/svg"
   xmlns="http://www.w3.org/2000/svg"
   xmlns:sodipodi="http://sodipodi.sourceforge.net/DTD/sodipodi-0.dtd"
   xmlns:inkscape="http://www.inkscape.org/namespaces/inkscape"
   viewBox="0 0 16 16"
   version="1.1"
   id="svg5"
   sodipodi:docname="start-here-symbolic.svg"
   inkscape:version="0.92.2 (unknown)">
  <metadata
     id="metadata9">
    <rdf:RDF>
      <cc:Work
         rdf:about="">
        <dc:format>image/svg+xml</dc:format>
        <dc:type
           rdf:resource="http://purl.org/dc/dcmitype/StillImage" />
      </cc:Work>
    </rdf:RDF>
  </metadata>
  <sodipodi:namedview
     pagecolor="#ffffff"
     bordercolor="#666666"
     borderopacity="1"
     objecttolerance="10"
     gridtolerance="10"
     guidetolerance="10"
     inkscape:pageopacity="0"
     inkscape:pageshadow="2"
     inkscape:window-width="1868"
     inkscape:window-height="1050"
     id="namedview7"
     showgrid="false"
     inkscape:zoom="14.75"
     inkscape:cx="8"
     inkscape:cy="8"
     inkscape:window-x="52"
     inkscape:window-y="0"
     inkscape:window-maximized="1"
     inkscape:current-layer="svg5" />
  <defs
     id="defs3051">
    <style
       type="text/css"
       id="current-color-scheme">
      .ColorScheme-Text {
        color:#4d4d4d;
      }
      </style>
  </defs>
  <path
     d="M 10.399928,2.0002311 9.199787,3.2001591 11.600071,5.6000881 9.199787,7.999946 10.399928,9.1999815 14,5.6000881 Z M 5.599715,3.2001591 A 1.1999555,1.1999555 0 0 0 4.400284,4.4000882 1.1999555,1.1999555 0 0 0 5.599715,5.6000881 1.1999555,1.1999555 0 0 0 6.799858,4.4000882 1.1999555,1.1999555 0 0 0 5.599715,3.2001591 Z M 3.200142,6.800017 A 1.1999554,1.1999554 0 0 0 2,7.999946 1.1999554,1.1999554 0 0 0 3.200142,9.1999815 1.1999554,1.1999554 0 0 0 4.400284,7.999946 1.1999554,1.1999554 0 0 0 3.200142,6.800017 Z M 6.26109,10.280358 A 1.8599305,1.8599305 0 0 0 4.400284,12.13889 1.8599305,1.8599305 0 0 0 6.26109,13.999769 1.8599305,1.8599305 0 0 0 8.119409,12.13889 1.8599305,1.8599305 0 0 0 6.26109,10.280358 Z"
     id="path4210-7"
     style="fill:#4d4d4d;fill-opacity:1;stroke-width:1.85992992"
     inkscape:connector-curvature="0" />
</svg>
