<?xml version="1.0" encoding="UTF-8" standalone="no"?>
<svg
   xmlns:dc="http://purl.org/dc/elements/1.1/"
   xmlns:cc="http://creativecommons.org/ns#"
   xmlns:rdf="http://www.w3.org/1999/02/22-rdf-syntax-ns#"
   xmlns:svg="http://www.w3.org/2000/svg"
   xmlns="http://www.w3.org/2000/svg"
   xmlns:sodipodi="http://sodipodi.sourceforge.net/DTD/sodipodi-0.dtd"
   xmlns:inkscape="http://www.inkscape.org/namespaces/inkscape"
   viewBox="0 0 16 16"
   version="1.1"
   id="svg7"
   sodipodi:docname="folder-remote-symbolic.svg"
   inkscape:version="0.92.2 (unknown)">
  <metadata
     id="metadata11">
    <rdf:RDF>
      <cc:Work
         rdf:about="">
        <dc:format>image/svg+xml</dc:format>
        <dc:type
           rdf:resource="http://purl.org/dc/dcmitype/StillImage" />
      </cc:Work>
    </rdf:RDF>
  </metadata>
  <sodipodi:namedview
     pagecolor="#ffffff"
     bordercolor="#666666"
     borderopacity="1"
     objecttolerance="10"
     gridtolerance="10"
     guidetolerance="10"
     inkscape:pageopacity="0"
     inkscape:pageshadow="2"
     inkscape:window-width="1868"
     inkscape:window-height="1050"
     id="namedview9"
     showgrid="false"
     inkscape:zoom="14.75"
     inkscape:cx="8"
     inkscape:cy="8"
     inkscape:window-x="52"
     inkscape:window-y="0"
     inkscape:window-maximized="1"
     inkscape:current-layer="svg7" />
  <defs
     id="defs3051">
    <style
       type="text/css"
       id="current-color-scheme">
      .ColorScheme-Text {
        color:#4d4d4d;
      }
      </style>
  </defs>
  <path
     inkscape:connector-curvature="0"
     id="path4183-26-8"
     d="m 8.0081629,2.0016805 c -2.949782,-0.07525 -5.702575,2.387133 -5.952829,5.3293494 -0.29168,2.319202 0.913511,4.7500461 2.970919,5.8783861 1.895927,1.097397 4.401847,1.065311 6.2229501,-0.177545 1.775027,-1.152478 2.864815,-3.2724068 2.727006,-5.3901374 -0.12259,-2.7840731 -2.437861,-5.3059731 -5.2257401,-5.5887761 -0.24518,-0.03382 -0.494167,-0.0482 -0.742306,-0.05115 z m 0,1.199442 c 0.957897,0.101456 2.0819261,0.163596 2.7413781,0.966311 0.105684,0.444242 -1.0542781,0.206713 -0.661989,0.814085 0.531366,0.449738 -0.4840211,0.89935 -0.6742481,1.301193 -0.283226,0.5680171 -0.325498,1.4039156 0.26209,1.7988263 0.5377081,0.6473203 1.2935421,-0.1433041 1.9128361,0.2523675 0.414271,0.2088266 0.0465,0.6621158 0.434985,0.8646437 0.122591,0.6248314 -0.152181,1.302081 -0.283227,1.90586 -0.484444,0.562945 -1.153619,0.955953 -1.8071541,1.296501 -1.003974,0.44196 -2.209589,0.565439 -3.235967,0.150913 -0.410044,-0.324653 0.540666,-0.202908 0.439635,-0.6808 0,-0.730555 1.057237,-0.67336 0.905056,-1.451007 0,-0.4479205 0.670867,-0.9740031 -0.04651,-1.2161406 C 7.3875919,9.0817076 6.8887739,8.7677913 6.5040939,8.2864331 5.9773769,7.9799567 5.4523519,7.6513294 4.7996629,7.6597417 c -0.338181,0.033818 -1.011161,0.5943529 -1.233937,-0.052841 0.04649,-0.3140855 0,-0.3550899 -0.2325,-0.4925182 0.05495,-0.3927125 0.190226,-1.13058 0.56603,-1.234951 0.300136,0.6764876 0.21559,-0.519107 0.662834,-0.483007 0.542358,-0.427926 1.025111,-1.179406 1.779254,-1.053603 0.342408,-0.139499 0.143727,-0.138653 0,-0.221508 0.09723,-0.290413 -0.257863,-0.291258 0.1395,-0.323386 0.236726,0.06763 0.808253,-0.293794 0.435408,0.146687 0,0.352975 0.79388,0.0558 0.291681,-0.157678 0.202908,-0.232499 -0.190227,-0.636878 0.342408,-0.537537 0.114136,-0.02537 0.471763,-0.01691 0.465421,-0.04861 z m -3.164527,1.199359 c 0.224045,-0.04734 0.126818,0.08581 0,0 z m 6.4089501,0.07271 c 0.283226,0.114559 0.71187,0.82626 0.08877,0.564212 -0.211364,0.117096 -1.257188,0.321695 -0.603653,0.01268 0.219818,-0.147532 0.325499,-0.405395 0.512767,-0.578248 z m 0.634934,0.714492 c 0.350862,0.410467 0,0.381722 0,0 z M 3.2292449,7.595869 c 0.131045,0.5901679 1.221256,0.2286949 0.802334,0.9708749 -0.459503,0.5964242 -0.09723,1.2933727 0.380453,1.7316971 0.456544,0.261245 0.861093,0.927546 0.499662,1.386415 C 4.3384779,11.19796 3.8781299,10.529334 3.5796849,9.8271862 3.2837759,9.1262641 3.1569579,8.351365 3.2288219,7.595869 Z m 1.499409,0.234613 c 0.131045,0.063409 -0.118363,0.083277 0,0 z"
     style="fill:#4d4d4d;fill-opacity:1;stroke-width:1.19939375" />
</svg>
