<?xml version="1.0" encoding="UTF-8" standalone="no"?>
<svg
   xmlns:dc="http://purl.org/dc/elements/1.1/"
   xmlns:cc="http://creativecommons.org/ns#"
   xmlns:rdf="http://www.w3.org/1999/02/22-rdf-syntax-ns#"
   xmlns:svg="http://www.w3.org/2000/svg"
   xmlns="http://www.w3.org/2000/svg"
   xmlns:sodipodi="http://sodipodi.sourceforge.net/DTD/sodipodi-0.dtd"
   xmlns:inkscape="http://www.inkscape.org/namespaces/inkscape"
   viewBox="0 0 16 16"
   version="1.1"
   id="svg5"
   sodipodi:docname="network-server-symbolic.svg"
   inkscape:version="0.92.2 (unknown)">
  <metadata
     id="metadata9">
    <rdf:RDF>
      <cc:Work
         rdf:about="">
        <dc:format>image/svg+xml</dc:format>
        <dc:type
           rdf:resource="http://purl.org/dc/dcmitype/StillImage" />
      </cc:Work>
    </rdf:RDF>
  </metadata>
  <sodipodi:namedview
     pagecolor="#ffffff"
     bordercolor="#666666"
     borderopacity="1"
     objecttolerance="10"
     gridtolerance="10"
     guidetolerance="10"
     inkscape:pageopacity="0"
     inkscape:pageshadow="2"
     inkscape:window-width="1868"
     inkscape:window-height="1050"
     id="namedview7"
     showgrid="false"
     inkscape:zoom="14.75"
     inkscape:cx="8"
     inkscape:cy="8"
     inkscape:window-x="52"
     inkscape:window-y="0"
     inkscape:window-maximized="1"
     inkscape:current-layer="svg5" />
  <defs
     id="defs3051">
    <style
       type="text/css"
       id="current-color-scheme">
      .ColorScheme-Text {
        color:#4d4d4d;
      }
      </style>
  </defs>
  <path
     inkscape:connector-curvature="0"
     id="path7372-1"
     d="M 3.135712,2.0010997 C 2.507625,2.0010997 2,2.5066957 2,3.1347397 v 9.7284073 c 0,0.62817 0.506357,1.135753 1.135712,1.135753 h 9.728575 C 13.493219,13.9989 14,13.491317 14,12.863147 V 3.1347397 c 0,-0.628171 -0.506358,-1.13364 -1.135713,-1.13364 z m 0.355042,2.081602 a 0.56136799,0.56136799 0 0 1 0.04226,0 h 8.948751 a 0.56136799,0.56136799 0 1 1 0,1.1226939 H 3.533014 A 0.56174462,0.56174462 0 0 1 3.490754,4.0827017 Z m 3.918565,2.236639 a 0.56134685,0.56134685 0 0 1 0.04227,0 h 5.034836 a 0.561347,0.561347 0 1 1 0,1.1226939 H 7.451589 A 0.56174473,0.56174473 0 0 1 7.409319,6.3193407 Z M 3.469197,8.5580924 a 0.55921195,0.55921195 0 0 1 0.05917,0 h 8.948752 a 0.5613469,0.5613469 0 1 1 0,1.1226937 H 3.528368 A 0.56212609,0.56212609 0 0 1 3.469198,8.5580924 Z M 7.381,10.794731 a 0.55921195,0.55921195 0 0 1 0.05917,0 h 5.034413 a 0.56136803,0.56136803 0 1 1 0,1.122651 H 7.440171 A 0.56216941,0.56216941 0 0 1 7.381,10.794731 Z"
     style="opacity:1;fill:#4d4d4d;fill-opacity:1;stroke:none;stroke-width:0.59450841;stroke-linecap:round;stroke-linejoin:miter;stroke-miterlimit:4;stroke-dasharray:none;stroke-dashoffset:0;stroke-opacity:1;paint-order:markers stroke fill" />
</svg>
