<?xml version="1.0" encoding="UTF-8" standalone="no"?>
<svg
   xmlns:dc="http://purl.org/dc/elements/1.1/"
   xmlns:cc="http://creativecommons.org/ns#"
   xmlns:rdf="http://www.w3.org/1999/02/22-rdf-syntax-ns#"
   xmlns:svg="http://www.w3.org/2000/svg"
   xmlns="http://www.w3.org/2000/svg"
   xmlns:sodipodi="http://sodipodi.sourceforge.net/DTD/sodipodi-0.dtd"
   xmlns:inkscape="http://www.inkscape.org/namespaces/inkscape"
   viewBox="0 0 16 16"
   version="1.1"
   id="svg6"
   sodipodi:docname="user-home-symbolic.svg"
   inkscape:version="0.92.2 (unknown)">
  <metadata
     id="metadata10">
    <rdf:RDF>
      <cc:Work
         rdf:about="">
        <dc:format>image/svg+xml</dc:format>
        <dc:type
           rdf:resource="http://purl.org/dc/dcmitype/StillImage" />
      </cc:Work>
    </rdf:RDF>
  </metadata>
  <sodipodi:namedview
     pagecolor="#ffffff"
     bordercolor="#666666"
     borderopacity="1"
     objecttolerance="10"
     gridtolerance="10"
     guidetolerance="10"
     inkscape:pageopacity="0"
     inkscape:pageshadow="2"
     inkscape:window-width="1868"
     inkscape:window-height="1050"
     id="namedview8"
     showgrid="false"
     inkscape:zoom="14.75"
     inkscape:cx="8"
     inkscape:cy="8"
     inkscape:window-x="52"
     inkscape:window-y="0"
     inkscape:window-maximized="1"
     inkscape:current-layer="svg6" />
  <defs
     id="defs3051">
    <style
       type="text/css"
       id="current-color-scheme">
      .ColorScheme-Text {
        color:#4d4d4d;
      }
      </style>
  </defs>
  <g
     transform="matrix(4.2268693,0,0,4.2268693,8364.5746,3281.1323)"
     id="g8917">
    <path
       sodipodi:nodetypes="ssssssssssssssssss"
       inkscape:connector-curvature="0"
       style="opacity:1;fill:#4d4d4d;fill-opacity:1;stroke:none;stroke-width:0.10020132;stroke-linecap:round;stroke-linejoin:miter;stroke-miterlimit:4;stroke-dasharray:none;stroke-dashoffset:0;stroke-opacity:1;paint-order:markers stroke fill"
       d="m -1977.833,-774.96604 c -0.1059,0 -0.1912,0.0852 -0.1912,0.19109 v 1.63962 c 0,0.10586 0.085,0.19156 0.1912,0.19156 h 1.6399 c 0.106,0 0.1911,-0.0857 0.1911,-0.19156 v -1.63962 c 0,-0.10587 -0.085,-0.19109 -0.1911,-0.19109 z m 0.1341,0.16637 h 1.3711 c 0.089,0 0.1599,0.0709 0.1599,0.15947 v 1.3706 c 0,0.0884 -0.071,0.15995 -0.1599,0.15995 h -1.3711 c -0.089,0 -0.1594,-0.0716 -0.1594,-0.15995 v -1.3706 c 0,-0.0884 0.072,-0.15947 0.1594,-0.15947 z"
       id="path7567-0" />
    <path
       id="path7569-6"
       d="m -1977.1697,-773.64418 c -0.029,0 -0.054,0.0237 -0.054,0.0533 v 0.45633 c 0,0.0295 0.024,0.0532 0.054,0.0532 h 0.3132 c 0.029,0 0.054,-0.0239 0.054,-0.0532 v -0.45633 c 0,-0.0295 -0.023,-0.0533 -0.054,-0.0533 z"
       style="opacity:1;fill:#4d4d4d;fill-opacity:1;stroke:none;stroke-width:0.02788685;stroke-linecap:round;stroke-linejoin:miter;stroke-miterlimit:4;stroke-dasharray:none;stroke-dashoffset:0;stroke-opacity:1;paint-order:markers stroke fill"
       inkscape:connector-curvature="0"
       sodipodi:nodetypes="sssssssss" />
    <path
       id="path7573-3"
       d="m -1976.5789,-775.73259 c -0.022,0 -0.04,0.0177 -0.04,0.0396 v 0.65197 c 0,0.022 0.017,0.0398 0.04,0.0398 h 0.1908 c 0.022,0 0.039,-0.0179 0.039,-0.0398 v -0.65197 c 0,-0.022 -0.017,-0.0396 -0.039,-0.0396 z"
       style="opacity:1;fill:#4d4d4d;fill-opacity:1;stroke:none;stroke-width:0.02081746;stroke-linecap:round;stroke-linejoin:miter;stroke-miterlimit:4;stroke-dasharray:none;stroke-dashoffset:0;stroke-opacity:1;paint-order:markers stroke fill"
       inkscape:connector-curvature="0"
       sodipodi:nodetypes="sssssssss" />
    <path
       sodipodi:type="star"
       style="opacity:1;fill:#4d4d4d;fill-opacity:1;stroke:none;stroke-width:0.05476875;stroke-linecap:round;stroke-linejoin:round;stroke-miterlimit:4;stroke-dasharray:none;stroke-dashoffset:0;stroke-opacity:1;paint-order:fill markers stroke"
       id="path7575-2"
       sodipodi:sides="3"
       sodipodi:cx="-1884.8131"
       sodipodi:cy="-787.14374"
       sodipodi:r1="0.60136801"
       sodipodi:r2="0.30068401"
       sodipodi:arg1="0.46364761"
       sodipodi:arg2="1.5108452"
       inkscape:flatsided="true"
       inkscape:rounded="0.1"
       inkscape:randomized="0"
       d="m -1884.2752,-786.8748 c -0.047,0.0932 -0.9824,0.14933 -1.0398,0.0624 -0.057,-0.0869 0.3619,-0.92539 0.4659,-0.93164 0.1039,-0.006 0.6205,0.77607 0.5739,0.86923 z"
       inkscape:transform-center-x="0.058161758"
       inkscape:transform-center-y="0.023890114"
       transform="matrix(2.3640635,0.0940653,-0.15163549,1.466519,2359.4489,556.75773)" />
  </g>
</svg>
