<?xml version="1.0" encoding="UTF-8" standalone="no"?>
<svg
   xmlns:dc="http://purl.org/dc/elements/1.1/"
   xmlns:cc="http://creativecommons.org/ns#"
   xmlns:rdf="http://www.w3.org/1999/02/22-rdf-syntax-ns#"
   xmlns:svg="http://www.w3.org/2000/svg"
   xmlns="http://www.w3.org/2000/svg"
   xmlns:sodipodi="http://sodipodi.sourceforge.net/DTD/sodipodi-0.dtd"
   xmlns:inkscape="http://www.inkscape.org/namespaces/inkscape"
   viewBox="0 0 22 22"
   id="svg2"
   version="1.1"
   inkscape:version="0.91 r13725"
   sodipodi:docname="audio-volume-muted.svg">
  <metadata
     id="metadata12">
    <rdf:RDF>
      <cc:Work
         rdf:about="">
        <dc:format>image/svg+xml</dc:format>
        <dc:type
           rdf:resource="http://purl.org/dc/dcmitype/StillImage" />
      </cc:Work>
    </rdf:RDF>
  </metadata>
  <sodipodi:namedview
     pagecolor="#ffffff"
     bordercolor="#666666"
     borderopacity="1"
     objecttolerance="10"
     gridtolerance="10"
     guidetolerance="10"
     inkscape:pageopacity="0"
     inkscape:pageshadow="2"
     inkscape:window-width="1280"
     inkscape:window-height="995"
     id="namedview10"
     showgrid="false"
     inkscape:zoom="10.727273"
     inkscape:cx="11"
     inkscape:cy="11"
     inkscape:window-x="1920"
     inkscape:window-y="0"
     inkscape:window-maximized="1"
     inkscape:current-layer="svg2" />
  <defs
     id="defs3051">
    <style
       type="text/css"
       id="current-color-scheme">
      .ColorScheme-Text {
        color:#4d4d4d;
      }
      .ColorScheme-NegativeText {
        color:#da4453;
      }
      </style>
  </defs>
  <g
     id="g18881"
     transform="matrix(3.7534896,0,0,3.7534896,7478.9468,2641.8544)">
    <path
       id="rect18774"
       d="m -1991.5324,-701.49799 0.1343,0 c 0.1108,0 0.2,0.0892 0.2,0.2 l 0,0.78275 c 0,0.1108 -0.089,0.2 -0.2,0.2 l -0.1343,0 c -0.1108,0 -0.2,-0.0892 -0.2,-0.2 l 0,-0.78275 c 0,-0.1108 0.089,-0.2 0.2,-0.2 z"
       style="opacity:1;fill:#4d4d4d;fill-opacity:1;stroke:none;stroke-width:0.41409278;stroke-linecap:round;stroke-linejoin:round;stroke-miterlimit:4;stroke-dasharray:none;stroke-dashoffset:0;stroke-opacity:1;paint-order:fill markers stroke"
       inkscape:connector-curvature="0" />
    <path
       sodipodi:nodetypes="sssssssss"
       inkscape:connector-curvature="0"
       id="path18776"
       d="m -1990.7623,-701.69801 1.3976,-1.32751 c 0.081,-0.0764 0.2,0.0892 0.2,0.2 l 0,3.83321 c 0,0.1108 -0.1189,0.27636 -0.2,0.2 l -1.3976,-1.3151 c -0.081,-0.0759 -0.2,-0.0892 -0.2,-0.2 l 0,-1.1906 c 0,-0.1108 0.1192,-0.1232 0.2,-0.2 z"
       style="opacity:1;fill:#4d4d4d;fill-opacity:1;stroke:none;stroke-width:1.34822464;stroke-linecap:round;stroke-linejoin:round;stroke-miterlimit:4;stroke-dasharray:none;stroke-dashoffset:0;stroke-opacity:1;paint-order:fill markers stroke" />
    <path
       id="rect18778"
       d="m -700.97377,1987.4697 0.13433,0 c 0.1108,0 0.2,0.089 0.2,0.2 l 0,0.9743 c 0,0.1108 -0.0892,0.2 -0.2,0.2 l -0.13433,0 c -0.1108,0 -0.2,-0.089 -0.2,-0.2 l 0,-0.9743 c 0,-0.1108 0.0892,-0.2 0.2,-0.2 z"
       style="opacity:1;fill:#cb3839;fill-opacity:1;stroke:none;stroke-width:0.44637156;stroke-linecap:round;stroke-linejoin:round;stroke-miterlimit:4;stroke-dasharray:none;stroke-dashoffset:0;stroke-opacity:1;paint-order:fill markers stroke"
       transform="matrix(0,1,-1,0,0,0)"
       inkscape:connector-curvature="0" />
  </g>
</svg>
