<?xml version="1.0" encoding="UTF-8" standalone="no"?>
<svg
   xmlns:dc="http://purl.org/dc/elements/1.1/"
   xmlns:cc="http://creativecommons.org/ns#"
   xmlns:rdf="http://www.w3.org/1999/02/22-rdf-syntax-ns#"
   xmlns:svg="http://www.w3.org/2000/svg"
   xmlns="http://www.w3.org/2000/svg"
   xmlns:sodipodi="http://sodipodi.sourceforge.net/DTD/sodipodi-0.dtd"
   xmlns:inkscape="http://www.inkscape.org/namespaces/inkscape"
   viewBox="0 0 22 22"
   id="svg2"
   version="1.1"
   inkscape:version="0.91 r13725"
   sodipodi:docname="camera-on.svg">
  <metadata
     id="metadata12">
    <rdf:RDF>
      <cc:Work
         rdf:about="">
        <dc:format>image/svg+xml</dc:format>
        <dc:type
           rdf:resource="http://purl.org/dc/dcmitype/StillImage" />
      </cc:Work>
    </rdf:RDF>
  </metadata>
  <sodipodi:namedview
     pagecolor="#ffffff"
     bordercolor="#666666"
     borderopacity="1"
     objecttolerance="10"
     gridtolerance="10"
     guidetolerance="10"
     inkscape:pageopacity="0"
     inkscape:pageshadow="2"
     inkscape:window-width="1280"
     inkscape:window-height="995"
     id="namedview10"
     showgrid="false"
     inkscape:zoom="10.727273"
     inkscape:cx="11"
     inkscape:cy="11"
     inkscape:window-x="1920"
     inkscape:window-y="0"
     inkscape:window-maximized="1"
     inkscape:current-layer="svg2" />
  <defs
     id="defs3051">
    <style
       type="text/css"
       id="current-color-scheme">
      .ColorScheme-Text {
        color:#4d4d4d;
      }
      .ColorScheme-PositiveText {
        color:#27ae60;
      }
      </style>
  </defs>
  <path
     style="fill:currentColor;fill-opacity:1;stroke:none"
     class="ColorScheme-PositiveText"
     d="M 11 7 A 2.9999826 2.9999826 0 0 0 8 10 A 2.9999826 2.9999826 0 0 0 11 13 A 2.9999826 2.9999826 0 0 0 14 10 A 2.9999826 2.9999826 0 0 0 11 7 z "
     id="path8" />
  <g
     id="g12597"
     transform="matrix(3.7409439,0,0,3.7409439,8053.8508,2462.4942)">
    <g
       transform="matrix(0.97798464,0,0,0.97798464,-159.67762,7.1342624)"
       id="g12550">
      <path
         style="color:#000000;font-style:normal;font-variant:normal;font-weight:normal;font-stretch:normal;font-size:medium;line-height:normal;font-family:sans-serif;text-indent:0;text-align:start;text-decoration:none;text-decoration-line:none;text-decoration-style:solid;text-decoration-color:#000000;letter-spacing:normal;word-spacing:normal;text-transform:none;direction:ltr;writing-mode:lr-tb;baseline-shift:baseline;text-anchor:start;white-space:normal;clip-rule:nonzero;display:inline;overflow:visible;visibility:visible;opacity:1;isolation:auto;mix-blend-mode:normal;color-interpolation:sRGB;color-interpolation-filters:linearRGB;solid-color:#000000;solid-opacity:1;fill:#4d4d4d;fill-opacity:1;fill-rule:nonzero;stroke:#4d4d4d;stroke-width:0.13229167;stroke-linecap:butt;stroke-linejoin:round;stroke-miterlimit:4;stroke-dasharray:none;stroke-dashoffset:0;stroke-opacity:1;paint-order:stroke markers fill;color-rendering:auto;image-rendering:auto;shape-rendering:auto;text-rendering:auto;enable-background:accumulate"
         d="m -2036.4588,-676.33572 c 0,0.06 -0.01,0.12152 -0.01,0.18449 0,0.22725 0.037,0.40153 0.1116,0.53485 0.074,0.13333 0.1859,0.22257 0.3163,0.2775 0.2607,0.10983 0.5971,0.0978 0.9612,0.0977 0.3648,-2e-5 0.7005,0.006 0.9606,-0.1075 0.1301,-0.0565 0.2405,-0.14552 0.3147,-0.27749 0.074,-0.132 0.1132,-0.30382 0.1132,-0.52504 0,-0.0634 0,-0.12391 -0.01,-0.18346 -0.041,0.0336 -0.084,0.065 -0.1297,0.0936 9e-4,0.0301 0,0.0587 0,0.0899 0,0.20595 -0.036,0.35272 -0.096,0.45889 -0.06,0.10615 -0.1425,0.17529 -0.2517,0.22273 -0.2185,0.0949 -0.543,0.0956 -0.9085,0.0956 -0.3662,0 -0.692,0.006 -0.91,-0.0858 -0.1089,-0.0459 -0.1926,-0.1135 -0.2522,-0.22066 -0.06,-0.10715 -0.096,-0.25836 -0.096,-0.47077 0,-0.0319 0,-0.062 0,-0.093 -0.044,-0.0281 -0.087,-0.0586 -0.1271,-0.0915 z"
         id="path12544"
         inkscape:connector-curvature="0" />
      <path
         sodipodi:nodetypes="ccccc"
         inkscape:connector-curvature="0"
         id="path12546"
         d="m -2033.7929,-677.61435 c 0,0.86209 -0.5752,1.10776 -1.2845,1.10775 -0.7092,-6e-5 -1.2844,-0.25079 -1.2844,-1.10775 0,-0.70934 0.5752,-1.28438 1.2844,-1.28444 0.7093,-1e-5 1.2845,0.57505 1.2845,1.28444"
         style="opacity:1;fill:#4d4d4d;fill-opacity:1;stroke:#4d4d4d;stroke-width:0.13608129;stroke-linecap:butt;stroke-linejoin:round;stroke-miterlimit:4;stroke-dasharray:none;stroke-dashoffset:0;stroke-opacity:1;paint-order:stroke markers fill" />
      <path
         inkscape:connector-curvature="0"
         id="path12548"
         d="m -2035.0766,-679.47956 c -1.0505,6e-5 -1.9043,0.85204 -1.9043,1.90234 0,0.62749 0.2167,1.0511 0.5664,1.30665 0.3498,0.25554 0.8231,0.34567 1.3379,0.3457 0.5147,2e-5 0.988,-0.0891 1.3379,-0.34375 0.3499,-0.25468 0.5644,-0.67755 0.5644,-1.3086 0,-1.05038 -0.8519,-1.90238 -1.9023,-1.90234 z m 0,0.13672 c 0.9768,-4e-5 1.7656,0.78877 1.7656,1.76562 0,0.60079 -0.1935,0.97042 -0.5078,1.19922 -0.3143,0.22881 -0.7589,0.31643 -1.2578,0.31641 -0.4987,-3e-5 -0.9434,-0.0886 -1.2578,-0.31836 -0.3144,-0.22974 -0.5098,-0.60022 -0.5098,-1.19727 0,-0.97677 0.7907,-1.76556 1.7676,-1.76562 z"
         style="color:#000000;font-style:normal;font-variant:normal;font-weight:normal;font-stretch:normal;font-size:medium;line-height:normal;font-family:sans-serif;text-indent:0;text-align:start;text-decoration:none;text-decoration-line:none;text-decoration-style:solid;text-decoration-color:#000000;letter-spacing:normal;word-spacing:normal;text-transform:none;direction:ltr;writing-mode:lr-tb;baseline-shift:baseline;text-anchor:start;white-space:normal;clip-rule:nonzero;display:inline;overflow:visible;visibility:visible;opacity:1;isolation:auto;mix-blend-mode:normal;color-interpolation:sRGB;color-interpolation-filters:linearRGB;solid-color:#000000;solid-opacity:1;fill:#4d4d4d;fill-opacity:1;fill-rule:nonzero;stroke:#4d4d4d;stroke-width:0.13608129;stroke-linecap:butt;stroke-linejoin:round;stroke-miterlimit:4;stroke-dasharray:none;stroke-dashoffset:0;stroke-opacity:1;paint-order:stroke markers fill;color-rendering:auto;image-rendering:auto;shape-rendering:auto;text-rendering:auto;enable-background:accumulate" />
    </g>
    <circle
       style="opacity:1;fill:#27ae60;fill-opacity:1;stroke:none;stroke-width:0.1447009;stroke-linecap:round;stroke-linejoin:round;stroke-miterlimit:4;stroke-dasharray:none;stroke-dashoffset:0;stroke-opacity:1;paint-order:stroke markers fill"
       id="circle12562"
       cx="-2149.9521"
       cy="-655.66125"
       r="0.76094168" />
  </g>
</svg>
