<?xml version="1.0" encoding="UTF-8" standalone="no"?>
<svg
   xmlns:dc="http://purl.org/dc/elements/1.1/"
   xmlns:cc="http://creativecommons.org/ns#"
   xmlns:rdf="http://www.w3.org/1999/02/22-rdf-syntax-ns#"
   xmlns:svg="http://www.w3.org/2000/svg"
   xmlns="http://www.w3.org/2000/svg"
   xmlns:sodipodi="http://sodipodi.sourceforge.net/DTD/sodipodi-0.dtd"
   xmlns:inkscape="http://www.inkscape.org/namespaces/inkscape"
   viewBox="0 0 22 22"
   id="svg2"
   version="1.1"
   inkscape:version="0.91 r13725"
   sodipodi:docname="kdeconnect-tray.svg">
  <metadata
     id="metadata10">
    <rdf:RDF>
      <cc:Work
         rdf:about="">
        <dc:format>image/svg+xml</dc:format>
        <dc:type
           rdf:resource="http://purl.org/dc/dcmitype/StillImage" />
      </cc:Work>
    </rdf:RDF>
  </metadata>
  <sodipodi:namedview
     pagecolor="#ffffff"
     bordercolor="#666666"
     borderopacity="1"
     objecttolerance="10"
     gridtolerance="10"
     guidetolerance="10"
     inkscape:pageopacity="0"
     inkscape:pageshadow="2"
     inkscape:window-width="1280"
     inkscape:window-height="995"
     id="namedview8"
     showgrid="false"
     inkscape:zoom="10.727273"
     inkscape:cx="11"
     inkscape:cy="11"
     inkscape:window-x="1920"
     inkscape:window-y="0"
     inkscape:window-maximized="1"
     inkscape:current-layer="svg2" />
  <defs
     id="defs3051">
    <style
       type="text/css"
       id="current-color-scheme">
      .ColorScheme-Text {
        color:#4d4d4d;
      }
      </style>
  </defs>
  <g
     id="g15701"
     transform="matrix(3.7798095,0,0,3.7798095,8049.387,2424.5604)">
    <rect
       ry="0.19224991"
       rx="0.22403333"
       y="-640.51923"
       x="-2127.8501"
       height="3.9580176"
       width="2.3710177"
       id="rect15674"
       style="opacity:1;fill:none;fill-opacity:1;stroke:#4d4d4d;stroke-width:0.27500001;stroke-linecap:round;stroke-linejoin:round;stroke-miterlimit:4;stroke-dasharray:none;stroke-dashoffset:0;stroke-opacity:1;paint-order:fill markers stroke" />
    <rect
       style="opacity:1;fill:#4d4d4d;fill-opacity:1;stroke:none;stroke-width:0.08168108;stroke-linecap:round;stroke-linejoin:round;stroke-miterlimit:4;stroke-dasharray:none;stroke-dashoffset:0;stroke-opacity:1;paint-order:fill markers stroke"
       id="rect15676"
       width="2.393604"
       height="0.34588966"
       x="-2127.8616"
       y="-636.99921" />
    <path
       inkscape:connector-curvature="0"
       id="path15692"
       d="m -2126.7854,-639.62387 -0.043,0.12195 -0.043,0.12247 -0.054,0.017 c -0.03,0.01 -0.081,0.0303 -0.1127,0.046 l -0.059,0.0284 -0.1163,-0.0558 -0.1163,-0.0553 -0.092,0.0915 -0.092,0.092 0.056,0.11629 0.055,0.11679 -0.031,0.0646 c -0.017,0.0354 -0.034,0.0845 -0.045,0.10904 -0.01,0.0246 -0.021,0.0476 -0.021,0.0506 0,0.003 -0.059,0.0241 -0.123,0.0465 l -0.1152,0.0408 0,0.13022 0,0.13023 0.1152,0.0408 c 0.064,0.0225 0.123,0.044 0.123,0.047 0,0.003 0.01,0.0261 0.021,0.0506 0.01,0.0245 0.028,0.0736 0.045,0.10904 l 0.031,0.0646 -0.055,0.11626 -0.056,0.11679 0.092,0.0915 0.092,0.0915 0.1163,-0.0553 0.1168,-0.0553 0.063,0.0305 c 0.035,0.0168 0.085,0.0375 0.1122,0.0455 l 0.05,0.015 0.043,0.12247 0.044,0.12301 0.1303,0 0.1302,0 0.043,-0.12248 0.043,-0.12247 0.05,-0.015 c 0.028,-0.008 0.078,-0.0287 0.1126,-0.0455 l 0.063,-0.0305 0.1163,0.0553 0.1162,0.0553 0.092,-0.0915 0.091,-0.0915 -0.055,-0.11678 -0.055,-0.11679 0.03,-0.0641 c 0.017,-0.0355 0.034,-0.0851 0.045,-0.10957 0.01,-0.0246 0.021,-0.0476 0.021,-0.0506 0,-0.003 0.059,-0.0241 0.123,-0.0465 l 0.1158,-0.0408 0,-0.13023 0,-0.13023 -0.1158,-0.0408 c -0.065,-0.0225 -0.1225,-0.0435 -0.1225,-0.0465 -0.01,-0.003 -0.016,-0.0317 -0.027,-0.063 -0.01,-0.0314 -0.032,-0.0805 -0.045,-0.10904 l -0.027,-0.0517 0.056,-0.11679 0.056,-0.11679 -0.092,-0.092 -0.092,-0.0915 -0.1168,0.0553 -0.1163,0.0553 -0.058,-0.0284 c -0.032,-0.0156 -0.084,-0.0359 -0.1126,-0.046 l -0.054,-0.017 -0.043,-0.12247 -0.043,-0.12195 -0.1302,0 z m 0.1302,0.51726 a 0.56637377,0.56637377 0 0 1 0.5664,0.56639 0.56637377,0.56637377 0 0 1 -0.5664,0.56637 0.56637377,0.56637377 0 0 1 -0.5664,-0.56637 0.56637377,0.56637377 0 0 1 0.5664,-0.56639 z"
       style="fill:#4d4d4d;fill-opacity:1;stroke:none;stroke-width:0.09373295;stroke-linecap:round;stroke-linejoin:round;stroke-miterlimit:4;stroke-dasharray:none;stroke-opacity:1" />
  </g>
</svg>
