<?xml version="1.0" encoding="UTF-8" standalone="no"?>
<svg
   xmlns:dc="http://purl.org/dc/elements/1.1/"
   xmlns:cc="http://creativecommons.org/ns#"
   xmlns:rdf="http://www.w3.org/1999/02/22-rdf-syntax-ns#"
   xmlns:svg="http://www.w3.org/2000/svg"
   xmlns="http://www.w3.org/2000/svg"
   xmlns:sodipodi="http://sodipodi.sourceforge.net/DTD/sodipodi-0.dtd"
   xmlns:inkscape="http://www.inkscape.org/namespaces/inkscape"
   viewBox="0 0 22 22"
   id="svg2"
   version="1.1"
   inkscape:version="0.91 r13725"
   sodipodi:docname="network-wireless-connected-00.svg">
  <metadata
     id="metadata12">
    <rdf:RDF>
      <cc:Work
         rdf:about="">
        <dc:format>image/svg+xml</dc:format>
        <dc:type
           rdf:resource="http://purl.org/dc/dcmitype/StillImage" />
      </cc:Work>
    </rdf:RDF>
  </metadata>
  <sodipodi:namedview
     pagecolor="#ffffff"
     bordercolor="#666666"
     borderopacity="1"
     objecttolerance="10"
     gridtolerance="10"
     guidetolerance="10"
     inkscape:pageopacity="0"
     inkscape:pageshadow="2"
     inkscape:window-width="1280"
     inkscape:window-height="995"
     id="namedview10"
     showgrid="false"
     inkscape:zoom="10.727273"
     inkscape:cx="11"
     inkscape:cy="11"
     inkscape:window-x="1920"
     inkscape:window-y="0"
     inkscape:window-maximized="1"
     inkscape:current-layer="svg2" />
  <defs
     id="defs3051">
    <style
       type="text/css"
       id="current-color-scheme">
      .ColorScheme-Text {
        color:#4d4d4d;
      }
      </style>
  </defs>
  <g
     style="fill:#4d4d4d;fill-opacity:1;stroke:#4d4d4d;stroke-linecap:round;stroke-linejoin:round;stroke-opacity:1"
     transform="matrix(0.94117647,0,0,0.94117647,157.36949,52.862133)"
     id="g19359">
    <path
       style="color:#4d4d4d;font-style:normal;font-variant:normal;font-weight:normal;font-stretch:normal;font-size:medium;line-height:normal;font-family:sans-serif;text-indent:0;text-align:start;text-decoration:none;text-decoration-line:none;text-decoration-style:solid;text-decoration-color:#000000;letter-spacing:normal;word-spacing:normal;text-transform:none;direction:ltr;writing-mode:lr-tb;baseline-shift:baseline;text-anchor:start;white-space:normal;clip-rule:nonzero;display:inline;overflow:visible;visibility:visible;opacity:0.25;isolation:auto;mix-blend-mode:normal;color-interpolation:sRGB;color-interpolation-filters:linearRGB;solid-color:#000000;solid-opacity:1;fill:#4d4d4d;fill-opacity:1;fill-rule:nonzero;stroke:none;stroke-width:1;stroke-linecap:round;stroke-linejoin:round;stroke-miterlimit:4;stroke-dasharray:none;stroke-dashoffset:0;stroke-opacity:1;color-rendering:auto;image-rendering:auto;shape-rendering:auto;text-rendering:auto;enable-background:accumulate"
       d="m -155.51758,-44.978516 c -2.07303,0 -3.95288,0.835699 -5.30859,2.191407 -0.19518,0.195265 -0.19518,0.511766 0,0.707031 l 0.70898,0.708984 c 0.19526,0.195183 0.51177,0.195183 0.70703,0 0.99429,-0.994285 2.36484,-1.607422 3.89258,-1.607422 1.52774,0 2.8983,0.613138 3.89258,1.607422 0.19526,0.195183 0.51177,0.195183 0.70703,0 l 0.70899,-0.708984 c 0.19518,-0.195265 0.19518,-0.511766 0,-0.707031 -1.35571,-1.355708 -3.23556,-2.191407 -5.3086,-2.191407 z"
       id="path19317"
       inkscape:connector-curvature="0"
       sodipodi:nodetypes="sccccsccccs" />
    <path
       style="color:#4d4d4d;font-style:normal;font-variant:normal;font-weight:normal;font-stretch:normal;font-size:medium;line-height:normal;font-family:sans-serif;text-indent:0;text-align:start;text-decoration:none;text-decoration-line:none;text-decoration-style:solid;text-decoration-color:#000000;letter-spacing:normal;word-spacing:normal;text-transform:none;direction:ltr;writing-mode:lr-tb;baseline-shift:baseline;text-anchor:start;white-space:normal;clip-rule:nonzero;display:inline;overflow:visible;visibility:visible;opacity:0.25;isolation:auto;mix-blend-mode:normal;color-interpolation:sRGB;color-interpolation-filters:linearRGB;solid-color:#000000;solid-opacity:1;fill:#4d4d4d;fill-opacity:1;fill-rule:nonzero;stroke:none;stroke-width:1;stroke-linecap:round;stroke-linejoin:round;stroke-miterlimit:4;stroke-dasharray:none;stroke-dashoffset:0;stroke-opacity:1;color-rendering:auto;image-rendering:auto;shape-rendering:auto;text-rendering:auto;enable-background:accumulate"
       d="m -155.51758,-52.978516 c -4.2891,0 -8.16907,1.727662 -10.9707,4.529297 -0.19518,0.195265 -0.19518,0.511766 0,0.707031 l 0.70898,0.708985 c 0.19526,0.195183 0.51177,0.195183 0.70703,0 2.44023,-2.440224 5.81089,-3.945313 9.55469,-3.945313 3.7438,0 7.11447,1.505089 9.55469,3.945313 0.19526,0.195183 0.51177,0.195183 0.70703,0 l 0.70898,-0.708985 c 0.19518,-0.195265 0.19518,-0.511766 0,-0.707031 -2.80163,-2.801635 -6.6816,-4.529297 -10.9707,-4.529297 z"
       id="path19319"
       inkscape:connector-curvature="0"
       sodipodi:nodetypes="sccccsccccs" />
    <path
       style="color:#4d4d4d;font-style:normal;font-variant:normal;font-weight:normal;font-stretch:normal;font-size:medium;line-height:normal;font-family:sans-serif;text-indent:0;text-align:start;text-decoration:none;text-decoration-line:none;text-decoration-style:solid;text-decoration-color:#000000;letter-spacing:normal;word-spacing:normal;text-transform:none;direction:ltr;writing-mode:lr-tb;baseline-shift:baseline;text-anchor:start;white-space:normal;clip-rule:nonzero;display:inline;overflow:visible;visibility:visible;opacity:0.25;isolation:auto;mix-blend-mode:normal;color-interpolation:sRGB;color-interpolation-filters:linearRGB;solid-color:#000000;solid-opacity:1;fill:#4d4d4d;fill-opacity:1;fill-rule:nonzero;stroke:none;stroke-width:1;stroke-linecap:round;stroke-linejoin:round;stroke-miterlimit:4;stroke-dasharray:none;stroke-dashoffset:0;stroke-opacity:1;color-rendering:auto;image-rendering:auto;shape-rendering:auto;text-rendering:auto;enable-background:accumulate"
       d="m -155.51758,-48.978516 c -3.18118,0 -6.06013,1.282786 -8.13867,3.361328 -0.19518,0.195265 -0.19518,0.511767 0,0.707032 l 0.70703,0.707031 c 0.19526,0.195183 0.51177,0.195183 0.70703,0 1.71712,-1.717124 4.08871,-2.775391 6.72461,-2.775391 2.6359,0 5.00749,1.058266 6.72461,2.775391 0.19526,0.195183 0.51177,0.195183 0.70703,0 l 0.70703,-0.707031 c 0.19518,-0.195265 0.19518,-0.511767 0,-0.707032 -2.07854,-2.078542 -4.95748,-3.361328 -8.13867,-3.361328 z"
       id="path19321"
       inkscape:connector-curvature="0"
       sodipodi:nodetypes="sccccsccccs" />
    <path
       style="color:#4d4d4d;font-style:normal;font-variant:normal;font-weight:normal;font-stretch:normal;font-size:medium;line-height:normal;font-family:sans-serif;text-indent:0;text-align:start;text-decoration:none;text-decoration-line:none;text-decoration-style:solid;text-decoration-color:#000000;letter-spacing:normal;word-spacing:normal;text-transform:none;direction:ltr;writing-mode:lr-tb;baseline-shift:baseline;text-anchor:start;white-space:normal;clip-rule:nonzero;display:inline;overflow:visible;visibility:visible;opacity:0.25;isolation:auto;mix-blend-mode:normal;color-interpolation:sRGB;color-interpolation-filters:linearRGB;solid-color:#000000;solid-opacity:1;fill:#4d4d4d;fill-opacity:1;fill-rule:nonzero;stroke:none;stroke-width:1;stroke-linecap:round;stroke-linejoin:round;stroke-miterlimit:4;stroke-dasharray:none;stroke-dashoffset:0;stroke-opacity:1;color-rendering:auto;image-rendering:auto;shape-rendering:auto;text-rendering:auto;enable-background:accumulate"
       d="m -155.51758,-40.978516 c -1.37634,0 -2.5,1.123649 -2.5,2.5 0,1.376352 1.12366,2.5 2.5,2.5 1.37635,0 2.5,-1.123651 2.5,-2.5 0,-1.376348 -1.12365,-2.5 -2.5,-2.5 z"
       id="path19323"
       inkscape:connector-curvature="0"
       sodipodi:nodetypes="sssss" />
  </g>
</svg>
