<?xml version="1.0" encoding="UTF-8" standalone="no"?>
<svg
   xmlns:dc="http://purl.org/dc/elements/1.1/"
   xmlns:cc="http://creativecommons.org/ns#"
   xmlns:rdf="http://www.w3.org/1999/02/22-rdf-syntax-ns#"
   xmlns:svg="http://www.w3.org/2000/svg"
   xmlns="http://www.w3.org/2000/svg"
   xmlns:sodipodi="http://sodipodi.sourceforge.net/DTD/sodipodi-0.dtd"
   xmlns:inkscape="http://www.inkscape.org/namespaces/inkscape"
   viewBox="0 0 22 22"
   id="svg2"
   version="1.1"
   inkscape:version="0.91 r13725"
   sodipodi:docname="network-wireless-connected-100.svg">
  <metadata
     id="metadata10">
    <rdf:RDF>
      <cc:Work
         rdf:about="">
        <dc:format>image/svg+xml</dc:format>
        <dc:type
           rdf:resource="http://purl.org/dc/dcmitype/StillImage" />
      </cc:Work>
    </rdf:RDF>
  </metadata>
  <sodipodi:namedview
     pagecolor="#ffffff"
     bordercolor="#666666"
     borderopacity="1"
     objecttolerance="10"
     gridtolerance="10"
     guidetolerance="10"
     inkscape:pageopacity="0"
     inkscape:pageshadow="2"
     inkscape:window-width="1280"
     inkscape:window-height="995"
     id="namedview8"
     showgrid="false"
     inkscape:zoom="10.727273"
     inkscape:cx="11"
     inkscape:cy="11"
     inkscape:window-x="1920"
     inkscape:window-y="0"
     inkscape:window-maximized="1"
     inkscape:current-layer="svg2" />
  <defs
     id="defs3051">
    <style
       type="text/css"
       id="current-color-scheme">
      .ColorScheme-Text {
        color:#4d4d4d;
      }
      </style>
  </defs>
  <g
     style="fill:#4d4d4d;fill-opacity:1;stroke:#4d4d4d;stroke-linecap:round;stroke-linejoin:round;stroke-opacity:1"
     transform="matrix(0.94117647,0,0,0.94117647,43.941176,53.823529)"
     id="g19378">
    <path
       style="color:#4d4d4d;font-style:normal;font-variant:normal;font-weight:normal;font-stretch:normal;font-size:medium;line-height:normal;font-family:sans-serif;text-indent:0;text-align:start;text-decoration:none;text-decoration-line:none;text-decoration-style:solid;text-decoration-color:#000000;letter-spacing:normal;word-spacing:normal;text-transform:none;direction:ltr;writing-mode:lr-tb;baseline-shift:baseline;text-anchor:start;white-space:normal;clip-rule:nonzero;display:inline;overflow:visible;visibility:visible;opacity:1;isolation:auto;mix-blend-mode:normal;color-interpolation:sRGB;color-interpolation-filters:linearRGB;solid-color:#000000;solid-opacity:1;fill:#4d4d4d;fill-opacity:1;fill-rule:nonzero;stroke:none;stroke-width:1;stroke-linecap:round;stroke-linejoin:round;stroke-miterlimit:4;stroke-dasharray:none;stroke-dashoffset:0;stroke-opacity:1;color-rendering:auto;image-rendering:auto;shape-rendering:auto;text-rendering:auto;enable-background:accumulate"
       d="m -35,-50 c -3.181186,0 -6.060129,1.282786 -8.138672,3.361328 -0.195184,0.195265 -0.195184,0.511766 0,0.707031 l 0.707031,0.707032 c 0.195265,0.195185 0.511767,0.195185 0.707032,0 C -40.007495,-46.941733 -37.635901,-48 -35,-48 c 2.635901,0 5.007484,1.058265 6.724609,2.775391 0.195265,0.195185 0.511767,0.195185 0.707032,0 l 0.707031,-0.707032 c 0.195184,-0.195265 0.195184,-0.511766 0,-0.707031 C -28.939871,-48.717214 -31.818814,-50 -35,-50 Z m 0,4 c -2.073033,0 -3.952886,0.835698 -5.308594,2.191406 -0.195185,0.195265 -0.195185,0.511767 0,0.707032 l 0.708985,0.708984 c 0.195265,0.195184 0.511766,0.195184 0.707031,0 C -37.898294,-43.386863 -36.527743,-44 -35,-44 c 1.527743,0 2.898294,0.613137 3.892578,1.607422 0.195265,0.195184 0.511766,0.195184 0.707031,0 l 0.708985,-0.708984 c 0.195185,-0.195265 0.195185,-0.511767 0,-0.707032 C -31.047114,-45.164302 -32.926967,-46 -35,-46 Z m 0,4 c -1.37635,0 -2.5,1.12365 -2.5,2.5 0,1.37635 1.12365,2.5 2.5,2.5 1.37635,0 2.5,-1.12365 2.5,-2.5 0,-1.37635 -1.12365,-2.5 -2.5,-2.5 z"
       id="path19256"
       inkscape:connector-curvature="0"
       sodipodi:nodetypes="sccccsccccssccccsccccssssss" />
    <path
       style="color:#4d4d4d;font-style:normal;font-variant:normal;font-weight:normal;font-stretch:normal;font-size:medium;line-height:normal;font-family:sans-serif;text-indent:0;text-align:start;text-decoration:none;text-decoration-line:none;text-decoration-style:solid;text-decoration-color:#000000;letter-spacing:normal;word-spacing:normal;text-transform:none;direction:ltr;writing-mode:lr-tb;baseline-shift:baseline;text-anchor:start;white-space:normal;clip-rule:nonzero;display:inline;overflow:visible;visibility:visible;opacity:1;isolation:auto;mix-blend-mode:normal;color-interpolation:sRGB;color-interpolation-filters:linearRGB;solid-color:#000000;solid-opacity:1;fill:#4d4d4d;fill-opacity:1;fill-rule:nonzero;stroke:none;stroke-width:1;stroke-linecap:round;stroke-linejoin:round;stroke-miterlimit:4;stroke-dasharray:none;stroke-dashoffset:0;stroke-opacity:1;color-rendering:auto;image-rendering:auto;shape-rendering:auto;text-rendering:auto;enable-background:accumulate"
       d="m -35,-54 c -4.2891,0 -8.169068,1.727662 -10.970703,4.529297 a 0.50005,0.50005 0 0 0 0,0.707031 l 0.708984,0.708984 a 0.50005,0.50005 0 0 0 0.707031,0 C -42.114463,-50.494912 -38.743799,-52 -35,-52 c 3.743799,0 7.114463,1.505088 9.554688,3.945312 a 0.50005,0.50005 0 0 0 0.707031,0 l 0.708984,-0.708984 a 0.50005,0.50005 0 0 0 0,-0.707031 C -26.830932,-52.272338 -30.7109,-54 -35,-54 Z m -2.931641,1.292969 c -2.663789,0.543387 -5.033761,1.8434 -6.943359,3.625 l -0.002,-0.002 c 1.910134,-1.782364 4.27841,-3.0806 6.945312,-3.623047 z m 13.195313,3.236328 -0.386719,0.386719 c 0.122419,0.11423 0.26833,0.201923 0.386719,0.320312 z m -0.388672,0.388672 -0.320312,0.320312 0.707031,0 c -0.118385,-0.118385 -0.264278,-0.206078 -0.386719,-0.320312 z"
       id="path19258"
       inkscape:connector-curvature="0" />
  </g>
</svg>
