<?xml version="1.0" encoding="UTF-8" standalone="no"?>
<svg
   xmlns:dc="http://purl.org/dc/elements/1.1/"
   xmlns:cc="http://creativecommons.org/ns#"
   xmlns:rdf="http://www.w3.org/1999/02/22-rdf-syntax-ns#"
   xmlns:svg="http://www.w3.org/2000/svg"
   xmlns="http://www.w3.org/2000/svg"
   xmlns:sodipodi="http://sodipodi.sourceforge.net/DTD/sodipodi-0.dtd"
   xmlns:inkscape="http://www.inkscape.org/namespaces/inkscape"
   viewBox="0 0 22 22"
   id="svg2"
   version="1.1"
   inkscape:version="0.91 r13725"
   sodipodi:docname="network-wireless-connected-50.svg">
  <metadata
     id="metadata12">
    <rdf:RDF>
      <cc:Work
         rdf:about="">
        <dc:format>image/svg+xml</dc:format>
        <dc:type
           rdf:resource="http://purl.org/dc/dcmitype/StillImage" />
      </cc:Work>
    </rdf:RDF>
  </metadata>
  <sodipodi:namedview
     pagecolor="#ffffff"
     bordercolor="#666666"
     borderopacity="1"
     objecttolerance="10"
     gridtolerance="10"
     guidetolerance="10"
     inkscape:pageopacity="0"
     inkscape:pageshadow="2"
     inkscape:window-width="1280"
     inkscape:window-height="995"
     id="namedview10"
     showgrid="false"
     inkscape:zoom="10.727273"
     inkscape:cx="11"
     inkscape:cy="11"
     inkscape:window-x="1920"
     inkscape:window-y="0"
     inkscape:window-maximized="1"
     inkscape:current-layer="svg2" />
  <defs
     id="defs3051">
    <style
       type="text/css"
       id="current-color-scheme">
      .ColorScheme-Text {
        color:#4d4d4d;
      }
      </style>
  </defs>
  <g
     style="fill:#4d4d4d;fill-opacity:1;stroke:#4d4d4d;stroke-linecap:round;stroke-linejoin:round;stroke-opacity:1"
     transform="matrix(0.94117647,0,0,0.94117647,99.588232,53.117647)"
     id="g19370">
    <path
       style="color:#4d4d4d;font-style:normal;font-variant:normal;font-weight:normal;font-stretch:normal;font-size:medium;line-height:normal;font-family:sans-serif;text-indent:0;text-align:start;text-decoration:none;text-decoration-line:none;text-decoration-style:solid;text-decoration-color:#000000;letter-spacing:normal;word-spacing:normal;text-transform:none;direction:ltr;writing-mode:lr-tb;baseline-shift:baseline;text-anchor:start;white-space:normal;clip-rule:nonzero;display:inline;overflow:visible;visibility:visible;opacity:1;isolation:auto;mix-blend-mode:normal;color-interpolation:sRGB;color-interpolation-filters:linearRGB;solid-color:#000000;solid-opacity:1;fill:#4d4d4d;fill-opacity:1;fill-rule:nonzero;stroke:none;stroke-width:1;stroke-linecap:round;stroke-linejoin:round;stroke-miterlimit:4;stroke-dasharray:none;stroke-dashoffset:0;stroke-opacity:1;color-rendering:auto;image-rendering:auto;shape-rendering:auto;text-rendering:auto;enable-background:accumulate"
       d="m -94.125,-45.25 c -2.073033,0 -3.952887,0.835699 -5.308594,2.191406 -0.195185,0.195265 -0.195185,0.511767 0,0.707032 l 0.708985,0.708984 c 0.195265,0.195184 0.511766,0.195184 0.707031,0 0.994285,-0.994285 2.364835,-1.607422 3.892578,-1.607422 1.527743,0 2.898294,0.613138 3.892578,1.607422 0.195265,0.195184 0.511766,0.195184 0.707031,0 l 0.708985,-0.708984 c 0.195185,-0.195265 0.195185,-0.511767 0,-0.707032 C -90.172114,-44.414302 -92.051967,-45.25 -94.125,-45.25 Z m 0,4 c -1.376345,0 -2.5,1.123649 -2.5,2.5 0,1.376351 1.123655,2.5 2.5,2.5 1.376353,0 2.5,-1.123652 2.5,-2.5 0,-1.376348 -1.123647,-2.5 -2.5,-2.5 z"
       id="path19303"
       inkscape:connector-curvature="0"
       sodipodi:nodetypes="sccccsccccssssss" />
    <path
       style="color:#4d4d4d;font-style:normal;font-variant:normal;font-weight:normal;font-stretch:normal;font-size:medium;line-height:normal;font-family:sans-serif;text-indent:0;text-align:start;text-decoration:none;text-decoration-line:none;text-decoration-style:solid;text-decoration-color:#000000;letter-spacing:normal;word-spacing:normal;text-transform:none;direction:ltr;writing-mode:lr-tb;baseline-shift:baseline;text-anchor:start;white-space:normal;clip-rule:nonzero;display:inline;overflow:visible;visibility:visible;opacity:0.25;isolation:auto;mix-blend-mode:normal;color-interpolation:sRGB;color-interpolation-filters:linearRGB;solid-color:#000000;solid-opacity:1;fill:#4d4d4d;fill-opacity:1;fill-rule:nonzero;stroke:none;stroke-width:1;stroke-linecap:round;stroke-linejoin:round;stroke-miterlimit:4;stroke-dasharray:none;stroke-dashoffset:0;stroke-opacity:1;color-rendering:auto;image-rendering:auto;shape-rendering:auto;text-rendering:auto;enable-background:accumulate"
       d="m -94.125,-53.25 c -4.2891,0 -8.16907,1.727661 -10.9707,4.529297 -0.19518,0.195265 -0.19518,0.511766 0,0.707031 l 0.70898,0.708984 c 0.19526,0.195183 0.51177,0.195183 0.70703,0 2.44023,-2.440224 5.810891,-3.945312 9.55469,-3.945312 3.743799,0 7.114463,1.505088 9.554688,3.945312 0.195265,0.195184 0.511766,0.195184 0.707031,0 l 0.708984,-0.708984 c 0.195184,-0.195265 0.195184,-0.511766 0,-0.707031 C -85.955932,-51.522339 -89.8359,-53.25 -94.125,-53.25 Z"
       id="path19305"
       inkscape:connector-curvature="0"
       sodipodi:nodetypes="sccccsccccs" />
    <path
       style="color:#4d4d4d;font-style:normal;font-variant:normal;font-weight:normal;font-stretch:normal;font-size:medium;line-height:normal;font-family:sans-serif;text-indent:0;text-align:start;text-decoration:none;text-decoration-line:none;text-decoration-style:solid;text-decoration-color:#000000;letter-spacing:normal;word-spacing:normal;text-transform:none;direction:ltr;writing-mode:lr-tb;baseline-shift:baseline;text-anchor:start;white-space:normal;clip-rule:nonzero;display:inline;overflow:visible;visibility:visible;opacity:0.25;isolation:auto;mix-blend-mode:normal;color-interpolation:sRGB;color-interpolation-filters:linearRGB;solid-color:#000000;solid-opacity:1;fill:#4d4d4d;fill-opacity:1;fill-rule:nonzero;stroke:none;stroke-width:1;stroke-linecap:round;stroke-linejoin:round;stroke-miterlimit:4;stroke-dasharray:none;stroke-dashoffset:0;stroke-opacity:1;color-rendering:auto;image-rendering:auto;shape-rendering:auto;text-rendering:auto;enable-background:accumulate"
       d="m -94.125,-49.25 c -3.181186,0 -6.06013,1.282786 -8.13867,3.361328 -0.19518,0.195265 -0.19518,0.511766 0,0.707031 l 0.70703,0.707032 c 0.19526,0.195183 0.51177,0.195183 0.70703,0 1.717116,-1.717124 4.088709,-2.775391 6.72461,-2.775391 2.635901,0 5.007484,1.058266 6.724609,2.775391 0.195265,0.195185 0.511767,0.195185 0.707032,0 l 0.707031,-0.707032 c 0.195184,-0.195265 0.195184,-0.511766 0,-0.707031 C -88.064871,-47.967215 -90.943814,-49.25 -94.125,-49.25 Z"
       id="path19307"
       inkscape:connector-curvature="0"
       sodipodi:nodetypes="sccccsccccs" />
  </g>
</svg>
