<?xml version="1.0" encoding="UTF-8" standalone="no"?>
<svg
   xmlns:dc="http://purl.org/dc/elements/1.1/"
   xmlns:cc="http://creativecommons.org/ns#"
   xmlns:rdf="http://www.w3.org/1999/02/22-rdf-syntax-ns#"
   xmlns:svg="http://www.w3.org/2000/svg"
   xmlns="http://www.w3.org/2000/svg"
   xmlns:sodipodi="http://sodipodi.sourceforge.net/DTD/sodipodi-0.dtd"
   xmlns:inkscape="http://www.inkscape.org/namespaces/inkscape"
   viewBox="0 0 22 22"
   id="svg2"
   version="1.1"
   inkscape:version="0.91 r13725"
   sodipodi:docname="update-none.svg">
  <metadata
     id="metadata10">
    <rdf:RDF>
      <cc:Work
         rdf:about="">
        <dc:format>image/svg+xml</dc:format>
        <dc:type
           rdf:resource="http://purl.org/dc/dcmitype/StillImage" />
      </cc:Work>
    </rdf:RDF>
  </metadata>
  <sodipodi:namedview
     pagecolor="#ffffff"
     bordercolor="#666666"
     borderopacity="1"
     objecttolerance="10"
     gridtolerance="10"
     guidetolerance="10"
     inkscape:pageopacity="0"
     inkscape:pageshadow="2"
     inkscape:window-width="1280"
     inkscape:window-height="995"
     id="namedview8"
     showgrid="false"
     inkscape:zoom="10.727273"
     inkscape:cx="11"
     inkscape:cy="11"
     inkscape:window-x="1920"
     inkscape:window-y="0"
     inkscape:window-maximized="1"
     inkscape:current-layer="svg2" />
  <defs
     id="defs3051">
    <style
       type="text/css"
       id="current-color-scheme">
      .ColorScheme-Text {
        color:#4d4d4d;
      }
      </style>
  </defs>
  <g
     id="g15578"
     transform="matrix(3.7789324,0,0,3.7789324,7811.4095,2445.6853)">
    <path
       inkscape:connector-curvature="0"
       id="circle15535"
       d="m -2064.1834,-646.39523 a 2.1167156,2.1167156 0 0 0 -2.117,2.11704 2.1167156,2.1167156 0 0 0 2.117,2.11622 2.1167156,2.1167156 0 0 0 2.117,-2.11622 2.1167156,2.1167156 0 0 0 -2.117,-2.11704 z m 0,0.43969 c 0.2373,0 1.4377,1.55106 1.319,1.70448 -0.037,0.0481 -0.323,0.0754 -0.6687,0.0933 l 0,1.03497 c 0,0.17111 -0.1377,0.30879 -0.3088,0.30879 l -0.6823,0 c -0.171,0 -0.3088,-0.13768 -0.3088,-0.30879 l 0,-1.03497 c -0.3458,-0.0179 -0.6314,-0.0452 -0.6687,-0.0933 -0.1186,-0.15342 1.0809,-1.70448 1.3183,-1.70448 z"
       style="opacity:1;fill:#4d4d4d;fill-opacity:1;stroke:none;stroke-width:1.93823135;stroke-linecap:round;stroke-linejoin:round;stroke-miterlimit:4;stroke-dasharray:none;stroke-dashoffset:0;stroke-opacity:1;paint-order:markers stroke fill" />
  </g>
</svg>
