<?xml version="1.0" encoding="UTF-8" standalone="no"?>
<svg
   xmlns:dc="http://purl.org/dc/elements/1.1/"
   xmlns:cc="http://creativecommons.org/ns#"
   xmlns:rdf="http://www.w3.org/1999/02/22-rdf-syntax-ns#"
   xmlns:svg="http://www.w3.org/2000/svg"
   xmlns="http://www.w3.org/2000/svg"
   xmlns:sodipodi="http://sodipodi.sourceforge.net/DTD/sodipodi-0.dtd"
   xmlns:inkscape="http://www.inkscape.org/namespaces/inkscape"
   viewBox="0 0 22 22"
   id="svg2"
   version="1.1"
   inkscape:version="0.91 r13725"
   sodipodi:docname="update-high.svg">
  <metadata
     id="metadata12">
    <rdf:RDF>
      <cc:Work
         rdf:about="">
        <dc:format>image/svg+xml</dc:format>
        <dc:type
           rdf:resource="http://purl.org/dc/dcmitype/StillImage" />
      </cc:Work>
    </rdf:RDF>
  </metadata>
  <sodipodi:namedview
     pagecolor="#ffffff"
     bordercolor="#666666"
     borderopacity="1"
     objecttolerance="10"
     gridtolerance="10"
     guidetolerance="10"
     inkscape:pageopacity="0"
     inkscape:pageshadow="2"
     inkscape:window-width="1280"
     inkscape:window-height="995"
     id="namedview10"
     showgrid="false"
     inkscape:zoom="10.727273"
     inkscape:cx="11"
     inkscape:cy="11"
     inkscape:window-x="1920"
     inkscape:window-y="0"
     inkscape:window-maximized="1"
     inkscape:current-layer="svg2" />
  <defs
     id="defs3051">
    <style
       type="text/css"
       id="current-color-scheme">
      .ColorScheme-Text {
        color:#4d4d4d;
      }
      .ColorScheme-NegativeText {
        color:#da4453;
      }
      </style>
  </defs>
  <g
     id="g15571"
     transform="matrix(3.7790216,0,0,3.7790216,7765.5994,2445.6174)">
    <path
       inkscape:connector-curvature="0"
       style="opacity:1;fill:#4d4d4d;fill-opacity:1;stroke:none;stroke-width:1.93823135;stroke-linecap:round;stroke-linejoin:round;stroke-miterlimit:4;stroke-dasharray:none;stroke-dashoffset:0;stroke-opacity:1;paint-order:markers stroke fill"
       d="m -2052.0127,-646.3621 a 2.1167156,2.1167156 0 0 0 -2.1167,2.1172 2.1167156,2.1167156 0 0 0 2.1167,2.11613 2.1167156,2.1167156 0 0 0 0.8532,-0.18087 0.76870096,0.76870096 0 0 1 -0.2734,-0.58806 0.76870096,0.76870096 0 0 1 0,-0.003 c -0.057,0.0712 -0.1399,0.11988 -0.2382,0.11988 l -0.6822,0 c -0.171,0 -0.309,-0.13793 -0.309,-0.30903 l 0,-1.03455 c -0.3458,-0.0179 -0.6314,-0.0454 -0.6687,-0.0935 -0.1186,-0.15343 1.0809,-1.70429 1.3183,-1.70429 0.2373,0 1.438,1.55086 1.3193,1.70429 -0.037,0.0481 -0.323,0.0756 -0.6687,0.0935 l 0,0.90691 a 0.76870096,0.76870096 0 0 1 0.6976,-0.44855 0.76870096,0.76870096 0 0 1 0.5866,0.27284 2.1167156,2.1167156 0 0 0 0.1824,-0.85161 2.1167156,2.1167156 0 0 0 -2.1172,-2.1172 z"
       id="path15565" />
    <path
       inkscape:connector-curvature="0"
       style="color:#3daee9;fill:#ef5350;fill-opacity:1;stroke:none;stroke-width:0.1935173"
       class="ColorScheme-Highlight"
       d="m -2050.0837,-642.89761 a 0.58055011,0.58055011 0 0 1 -0.5806,0.58055 0.58055011,0.58055011 0 0 1 -0.5805,-0.58055 0.58055011,0.58055011 0 0 1 0.5805,-0.58055 0.58055011,0.58055011 0 0 1 0.5806,0.58055 z"
       id="path15567" />
  </g>
</svg>
